<?xml version="1.0" encoding="utf-8"?>
<!-- Generator: Adobe Illustrator 18.1.1, SVG Export Plug-In . SVG Version: 6.00 Build 0)  -->
<svg version="1.1" id="_x3C_Layer_x3E_" xmlns="http://www.w3.org/2000/svg" xmlns:xlink="http://www.w3.org/1999/xlink" x="0px"
	 y="0px" viewBox="0 0 2760 1840" enable-background="new 0 0 2760 1840" xml:space="preserve">
<g>
	<g>
		<ellipse fill="#B8D5DC" cx="1469.8" cy="1372.1" rx="945.9" ry="219.3"/>
	</g>
	<g>
		<g>
			<g>
				<path fill="#CCD39C" d="M2107.9,1082.8c-66,24.6-39.7,126.1-120.1,118.2c-68-6.7-74.4-11.9-94.4,10.3
					c-6.8,7.6-12.5,16.2-16.9,25.5c-5.3,11-16.3,27.8-35.7,34.2c-118.7,39-311.3-116.9-198.6-234.6c8.1-8.5,21.1-13.2,35.5-17.7
					c78.4-24.1,108.7,9,158.2-94.6c49.5-103.7,154.9,19.4,208,6.8c53.1-12.6,98.2-35.6,148.3,15.3
					C2242.4,997.1,2173.9,1058.2,2107.9,1082.8z"/>
			</g>
		</g>
		<g>
			<g>
				<g>
					<path fill="#C2C68E" d="M1700,1161.6l-3.1-3.4c1.5-1.4,155.4-137.8,507.3-197.3l0.8,4.6
						C1854.4,1024.7,1701.5,1160.3,1700,1161.6z"/>
				</g>
			</g>
			<g>
				<g>
					<path fill="#C2C68E" d="M1900,993.4c-52.7-35.2-65.7-67.3-66.2-68.6l4.3-1.7c0.1,0.3,13.2,32.2,64.5,66.5L1900,993.4z"/>
				</g>
			</g>
			<g>
				<g>
					<path fill="#C2C68E" d="M1915.2,1041.7c-16.4-21.2-20-54.6-10.3-96.6c7.2-31.5,19.5-57.1,19.6-57.4l4.2,2
						c-0.5,1-47.5,100.5-9.7,149.2L1915.2,1041.7z"/>
				</g>
			</g>
		</g>
	</g>
	<g>
		<g>
			<g>
				<g>
					<path fill="#ACC9C5" d="M632.9,559.5c-13.6,10.4-21,9-25,3.6c-4-5.4-3.3-12.9,10.4-23.3c24.8-18.9,44.1-18.1,44.1-18.1
						S658,540.4,632.9,559.5z"/>
				</g>
				<g>
					<g>
						<g>
							<path fill="#ACC9C5" d="M672,961.9l-3.2,0.1c0-0.5-1.8-51.3-27.1-123.2c-23.3-66.3-71.9-164.7-171.1-256.5l2.2-2.4
								c99.8,92.4,148.6,191.3,172.1,258C670.1,910.2,671.9,961.4,672,961.9z"/>
						</g>
					</g>
					<g>
						<g>
							<path fill="#ACC9C5" d="M573.7,698.6l-2.9-1.5c51.4-106.6-0.6-223.3-1.1-224.4l2.9-1.4C573.1,472.5,625.7,590.5,573.7,698.6z
								"/>
						</g>
					</g>
					<g>
						<g>
							<path fill="#ACC9C5" d="M519.2,651.2c-32.6,3.7-59.2-10.1-59.5-10.3l1.5-2.9c0.3,0.2,34.4,17.8,72.2,7.1l0.9,3.2
								C529.1,649.7,524.1,650.6,519.2,651.2z"/>
						</g>
					</g>
					<g>
						<g>
							<path fill="#ACC9C5" d="M466.3,564.3c18.8,13.6,21.2,22.1,17.4,27.6c-3.9,5.5-12.6,5.9-31.4-7.7
								c-34.2-24.8-43.8-46.8-43.8-46.8S431.5,539.2,466.3,564.3z"/>
						</g>
					</g>
					<g>
						<g>
							<path fill="#ACC9C5" d="M467.1,629.4c21.9,7.3,26.8,14.7,24.8,21.1c-2,6.4-10.2,9.5-32.2,2.2c-40-13.3-55.6-31.3-55.6-31.3
								S426.5,616,467.1,629.4z"/>
						</g>
					</g>
					<g>
						<g>
							<path fill="#ACC9C5" d="M546,595.6c5.8,16.3,2.4,23-3.9,25.3c-6.3,2.3-13.1-0.7-18.9-17.1c-10.6-29.7-4.3-48.2-4.3-48.2
								S535.3,565.5,546,595.6z"/>
						</g>
					</g>
					<g>
						<g>
							<path fill="#ACC9C5" d="M577.8,457.4c8,22,5.2,30.4-1.1,32.7c-6.3,2.3-13.7-2.4-21.7-24.3c-14.5-40-10.1-63.5-10.1-63.5
								S563.1,416.8,577.8,457.4z"/>
						</g>
					</g>
				</g>
			</g>
		</g>
		<g>
			<path fill="#ACC9C5" d="M1026.4,976.3c0,0-264.6-431.9-378-354.8c-113.5,77.1,240.8,249.7,313.9,377.9L1026.4,976.3z"/>
		</g>
		<g>
			<g>
				<path fill="#92BCB5" d="M903.1,981.7c0,0-347.6-365.8-465.1-259.5c-117.4,106.3,299.1,189,396.2,299L903.1,981.7z"/>
			</g>
			<g>
				<g>
					<path fill="#68A1BF" d="M864.8,1004.1C799.1,926.9,702,866.5,632.1,829.5c-75.8-40.2-136.8-62.3-137.4-62.5l1.4-3.8
						c0.6,0.2,61.9,22.5,137.9,62.8c70.2,37.2,167.8,97.9,233.9,175.5L864.8,1004.1z"/>
				</g>
			</g>
		</g>
		<g>
			<g>
				<g>
					<path fill="#CCD39C" d="M1043.3,1190.3c-41.1,89.1-117.5,111.3-177.8,108.8c-76,0.7-110.2-31.7-122.6-48
						c-6.4-8.5-13.8-16.2-22.1-22.7c-25.2-19.9-31-13.1-101.5,6.9c-59.9,16.9-72.1-36.6-101.7-73.2c-0.5-0.7-1.1-1.3-1.6-2
						c-11.4-13.5-25.3-24.5-45.3-28.2c-21.2-3.9-43.2-11-62.7-20.6c-1.6-0.8-3.2-1.6-4.8-2.4c-38.9-20.3-66.7-50.8-56.7-86.2
						c0.2-0.8,0.5-1.7,0.8-2.5c2-5.9,5-11.9,9.2-18c43.6-63.7,95.4-47.7,153.8-44.3c32.3,1.9,73.8-43.5,116.5-67.3
						c0.6-0.3,1.2-0.7,1.8-1c34-18.4,68.7-22.6,100,21.8c0,0,0,0,0,0c0.6,0.9,1.3,1.8,1.9,2.7c70,97.8,96.2,57.5,182.6,68.4
						c16.1,2,30.6,4.6,40.8,12.1C1048.7,1064.6,1125.4,1128.7,1043.3,1190.3z"/>
				</g>
			</g>
			<g>
				<g>
					<g>
						<path fill="#C2C68E" d="M916,1139.1l2.6-4.2c-1.8-1.2-189.6-117.7-572.3-114.8l0,5C727.7,1022.1,914.2,1137.9,916,1139.1z"/>
					</g>
				</g>
				<g>
					<g>
						<path fill="#C2C68E" d="M673.8,997.4c49.1-47.4,56.9-84.1,57.2-85.6l-4.9-1c-0.1,0.4-7.9,36.8-55.8,83L673.8,997.4z"/>
					</g>
				</g>
				<g>
					<g>
						<path fill="#C2C68E" d="M666.6,1051.7c13.4-25.7,11-62-6.9-105c-13.5-32.2-31.1-57.3-31.3-57.5l-4,2.9
							c0.7,1,68.8,98.2,37.9,157.3L666.6,1051.7z"/>
					</g>
				</g>
				<g>
					<g>
						<path fill="#C2C68E" d="M565.7,1046.1c5.9-5.3,9-8.7,9.1-8.8l-3.6-3.4c-0.7,0.7-67.1,72.2-168.1,72.3l0,5
							C484.5,1111.2,543.9,1065.7,565.7,1046.1z"/>
					</g>
				</g>
				<g>
					<g>
						<path fill="#C2C68E" d="M519.5,1163.6c22.3-26.7,28.1-52.8,29.1-70.1c1-18.8-3.2-31.1-3.4-31.6l-4.7,1.7
							c0.2,0.5,16,47.9-24.8,96.8L519.5,1163.6z"/>
					</g>
				</g>
			</g>
		</g>
		<g>
			<path fill="#ACC9C5" d="M487.6,913c-17-2.2-21.3-8.2-20.4-15c0.9-6.7,6.6-11.5,23.6-9.4c30.9,3.9,44.3,18,44.3,18
				S518.9,917,487.6,913z"/>
		</g>
	</g>
	<g>
		<g>
			<path fill="#764678" d="M1765.5,1345.3H841.8c-13.2,0-24.8-8.6-28.8-21.1L626.6,730.4c-9.8-31.1,13.5-62.8,46.1-62.8h840.6
				c23.4,0,44.1,15.2,51.1,37.5L1765.5,1345.3z"/>
		</g>
		<g>
			<path fill="#73B3CE" d="M1728.6,1331.3H857.3L669.5,733c-4.1-12.9,5.6-26.1,19.1-26.1h821.7c13.2,0,24.9,8.6,28.9,21.2
				L1728.6,1331.3z"/>
		</g>
		<g>
			<polygon fill="#764678" points="862.5,1345.3 2216.4,1345.3 2216.4,1301.3 835,1301.3 			"/>
		</g>
		<g>
			<path fill="#5A335D" d="M1492.4,1345.3h776.2c7.5,0,13.5-7.7,13.5-17.2v-9.6c0-9.5-6-17.2-13.5-17.2h-774.2
				c-6.2,0-11.6,5.3-13.1,13l-1.9,9.6C1477.1,1334.7,1483.6,1345.3,1492.4,1345.3z"/>
		</g>
	</g>
	<g>
		<g>
			<path fill="#331832" d="M961.3,817.1c0,0-2.9,18.9-10.6,28.6c-5.1,6.4-19.1,19-9.2,23.2c8,3.4,23.3-11.6,28.3-15.3
				c5-3.7,12.5-10.7,10.8-16.7c-3.5-12.4-2.3-28-2.3-28L961.3,817.1z"/>
		</g>
		<g>
			<path fill="#331832" d="M1017.2,802.4c0,0,3.9,18.8,0,30.5c-2.6,7.7-11.4,24.4-0.5,24.9c8.6,0.4,17.9-19,21.2-24.2
				c3.4-5.2,8-14.4,4.3-19.5c-7.6-10.4-11.9-25.5-11.9-25.5L1017.2,802.4z"/>
		</g>
		<g>
			<g>
				<path fill="#366F90" d="M1011.8,815.7c-103.6-69.1-98.5-129.6-84.1-153.3c16.7-27.5,43.1-49.2,83.5-58.9
					c10.8-2.6,21.1-4.1,29.6-4.9c12.4-1.2,23.1,8.7,22.8,21.2l-0.9,35.2l0.1,0c-17.3-0.4-69.7,4.9-83.5,32.8
					c-2.9,5.8,66.9,87.7,64.3,102.4C1040.6,806.8,1021.9,822.4,1011.8,815.7z"/>
			</g>
		</g>
		<g>
			<g>
				<path fill="#366F90" d="M971.6,826c-11.9,0.1-21.4-9.9-20.7-21.8c1.6-26.4,6.5-71.4,21.9-105.4c8.7-19.3,22.6-36.8,41.3-52.1
					c14.1-11.5,30.9-21.8,50-30.6c31.8-14.6,54.7-12.6,54.7-12.6l17.4,25.6c-0.2,0,4.9,25.9-31.9,48.9c-20.3,12.7-61,20.5-77.8,53.3
					c-12,23.4-16.5,54.5-18.1,76.2c-0.7,10.4-9.4,18.4-19.8,18.5L971.6,826z"/>
			</g>
		</g>
		<g>
			<path fill="#FFB27D" d="M995.3,512.6c0,0-21.4,32.9-29,81.6c-5.1,32.2,53.6-5.3,53.6-5.3l2.6-67.4L995.3,512.6z"/>
		</g>
		<g>
			<path fill="#6DA49A" d="M1102.1,494c0,0-16.3-27.8-53.8-19.3c-37.5,8.5-52.8,46.8-55.5,138.9c0,0,22.5,39.9,125,32.1
				c11.4-0.9,27.6-2.4,22.1-20.8C1129.6,590.7,1119.6,522.4,1102.1,494z"/>
		</g>
		<g>
			<path fill="#6DA49A" d="M1143.3,502.1l-38.6,7.3c0,0-67.5,20-86.4,20.1s-26.7-13.7-26.7-13.7s15.2-25.9,47.2-38.1
				c3-1.2,6.1-2.2,9.4-3c5.5-1.5,11.2-2.7,16.8-2.8C1128.7,471.2,1143.3,502.1,1143.3,502.1z"/>
		</g>
		<g>
			<path fill="#331832" d="M1143.3,502.1c0.8,3-7.3,8.1-18.1,11.3c-10.8,3.2-20.3,3.4-21.1,0.3c-0.8-3,7.3-8.1,18.1-11.3
				C1133,499.2,1142.5,499.1,1143.3,502.1z"/>
		</g>
		<g>
			<g>
				<path fill="#FFB27D" d="M1136.7,587.8c-16.5,25.8-49.1,42.3-83.4,41.2l3.7-27.5c26.6-4.8,47-22.2,50.8-36.7
					c4.8-18.3,3.1-36.2,0.9-49.6c-0.2-1.3,0.3-2.6,1.3-3.3c3.4-2.6,12.2-7.9,28-8.2c1.4,0,2.6,0.9,3,2.3
					C1147.4,530.7,1151.4,564.8,1136.7,587.8z"/>
			</g>
		</g>
		<g>
			<path fill="#E9845C" d="M1119.3,596c-0.6,0-1.1-0.1-1.6-0.3c-2.7-1.2-3.7-5.1-2.1-8.9c0.9-2.1,2.5-3.9,4.3-4.6
				c1.2-0.5,2.4-0.5,3.5-0.1c2.7,1.2,3.7,5.1,2.1,8.9l0,0c-0.9,2.1-2.5,3.9-4.3,4.6C1120.5,595.8,1119.9,596,1119.3,596z
				 M1121.8,582.5c-0.5,0-1.1,0.1-1.6,0.3c-1.6,0.7-3.1,2.2-4,4.2c-1.4,3.4-0.6,7,1.8,8c0.9,0.4,1.9,0.4,3-0.1
				c1.6-0.7,3.1-2.2,4-4.2l0,0c1.4-3.4,0.6-7-1.8-8C1122.7,582.5,1122.2,582.5,1121.8,582.5z M1125.2,590.9L1125.2,590.9
				L1125.2,590.9z"/>
		</g>
		<g>
			<g>
				<path fill="#FFB27D" d="M1056.9,601.5c0,0-24.6-7.8-32.5-4.1c-7.8,3.7-15,14.4-9.7,13.1c5.3-1.3,11.7-4.8,11.7-4.8
					s-13.3,8.1-10,10.4c3.2,2.3,14.7-4.9,14.7-4.9s-15,10.9-11.3,12.1c3.8,1.2,15.1-7.2,15.1-7.2s-13.6,10.7-9.2,12
					c4.4,1.2,11.2-8.9,14.4-6.7c3.2,2.3,11.5,12.8,19,4.5L1056.9,601.5z"/>
			</g>
			<g>
				<path fill="#E9845C" d="M1026.7,606l-0.4-0.5c0.1-0.1,3.6-3,6.3-2.2l-0.2,0.6C1030,603.2,1026.7,605.9,1026.7,606z"/>
			</g>
			<g>
				<path fill="#E9845C" d="M1031.4,611.5l-0.4-0.5c0.1-0.1,3.4-2.9,7.4-2.6l0,0.6C1034.6,608.7,1031.4,611.4,1031.4,611.5z"/>
			</g>
			<g>
				<path fill="#E9845C" d="M1035.2,616.3l-0.4-0.5c0.2-0.1,4.2-3.5,7.1-2.4l-0.2,0.6C1039.2,613.1,1035.2,616.3,1035.2,616.3z"/>
			</g>
		</g>
		<g>
			<g>
				<path fill="#331832" d="M1026.6,639.8h-79.1c-1.7,0-3.1-1.1-3.6-2.6l-16.4-49.1c-0.8-2.5,1-5,3.6-5h76.1c3.5,0,6.5,2.2,7.6,5.5
					l15.5,46.2C1031.1,637.3,1029.2,639.8,1026.6,639.8z"/>
			</g>
			<g>
				<path fill="#331832" d="M1021.7,639.8h-79.1c-1.7,0-3.1-1.1-3.6-2.6l-16.4-49.1c-0.8-2.5,1-5,3.6-5h76.1c3.5,0,6.5,2.2,7.6,5.5
					l15.5,46.2C1026.1,637.3,1024.3,639.8,1021.7,639.8z"/>
			</g>
			<g>
				<path fill="#DAEBE8" d="M966.2,609.9c0-1.9,2.1-2.6,4-2.6c1.9,0,4.9,2,4.9,4.7c0,2.8-2.2,3.2-4.1,3.2
					C969.2,615.1,966.2,612.3,966.2,609.9z"/>
			</g>
			<g>
				<path fill="#331832" d="M1050.7,632.9H942.5v6.9H1053c1.3,0,2.3-1,2.3-2.3l0,0C1055.3,635,1053.3,632.9,1050.7,632.9z"/>
			</g>
			<g>
				<path fill="#366F90" d="M1016,607.9c0-0.1-3.9-14.7-6.4-19.2c-2.5-4.4-5.5-5.3-5.6-5.3l0.1-0.5c0.1,0,3.3,0.9,5.9,5.6
					c2.5,4.6,6.3,18.7,6.5,19.3L1016,607.9z"/>
			</g>
			<g>
				<path fill="#366F90" d="M1027.7,633.2c-2.9,0-3.7-1.3-3.7-1.4l-6.2-18.4l0.5-0.2l6.2,18.4c0,0,0,0,0,0c0,0,0.7,1,3.2,1V633.2z"
					/>
			</g>
		</g>
		<g>
			<path fill="#020202" d="M954.8,767.7l-0.6,0c0-0.2,1.7-23.9,9-50.6c6.8-24.7,19.9-57.2,44-71.6l0.3,0.5
				c-23.9,14.3-37,46.6-43.7,71.3C956.5,743.9,954.8,767.5,954.8,767.7z"/>
		</g>
		<g>
			<path fill="#020202" d="M1007.6,812.7l-0.6,0c0.3-36.8,12.3-65.2,12.4-65.5l0.6,0.3C1019.9,747.7,1007.9,776,1007.6,812.7z"/>
		</g>
		<g>
			<g>
				<path fill="#EF8062" d="M1028.5,467.1c-0.2,0-5.6-1.1-7.4-4.9c-0.9-2-0.6-4.4,0.9-7c0.7-1.2,1.3-2.3,1.8-3.2
					c3.9-6.8,5.2-9.1,3.9-14.3l0.5-0.1c1.3,5.3-0.1,7.9-4,14.6c-0.6,1-1.2,2-1.8,3.2c-1.4,2.5-1.7,4.7-0.8,6.6
					c1.6,3.6,7,4.6,7.1,4.7L1028.5,467.1z"/>
			</g>
			<g>
				<path fill="#EF8062" d="M1028,437.6c0,0,2.2,8.3-3,17.2c-5.2,9,1.1,15.1,8.4,11.5c7.4-3.7,10.6,5.8,20,0.1
					C1062.8,460.8,1028,437.6,1028,437.6z"/>
			</g>
			<g>
				<path fill="#FFB27D" d="M1064,466.2l-5.6-11.7l-1.6-3.4l-9.6-20.1l2.4,21.1l1.4,12.7l0.4,3.6c0.5,4.4-5.8,7.1-5.8,7.1
					c-1.5,2.6-2.2,7.1,4.4,8.9c7.7,2.1,20.3-5.1,24.4-12.4C1074.4,472,1065.8,470,1064,466.2z"/>
			</g>
			<g>
				<path fill="#331832" d="M1058.5,454.2c0,0.1,0,0.2,0,0.4c-0.2,6.9-7.4,10.3-7.4,10.3l0,0l-1.4-12.7c2.2-0.9,5.4-1.9,7.2-1
					C1057.8,451.6,1058.5,452.5,1058.5,454.2z"/>
			</g>
			<g>
				
					<ellipse transform="matrix(-0.9992 3.908869e-002 -3.908869e-002 -0.9992 2108.9546 827.6545)" fill="#FFB27D" cx="1046.4" cy="434.4" rx="19.9" ry="24.6"/>
			</g>
			<g>
				<path fill="#FFB27D" d="M1063.8,437.5c-2.2,2.2-5.3,2.6-7,0.8c-1.7-1.8-1.3-5.1,0.8-7.3c2.2-2.2,5.3-2.6,7-0.8
					C1066.3,431.9,1065.9,435.2,1063.8,437.5z"/>
			</g>
			<g>
				<path fill="#E9633E" d="M1036.3,450.8c0,0,6.8-0.1,13.5-2.8c0,0,0.8,6.7-6.5,7.4C1039,455.8,1036.3,450.8,1036.3,450.8z"/>
			</g>
			<g>
				<path fill="#FFFFFF" d="M1036.3,450.8c0,0,1.7,1.3,5.5,1.1s8-3.9,8-3.9S1041.7,450.6,1036.3,450.8z"/>
			</g>
			<g>
				<g>
					<path fill="#080435" d="M1044.5,434.8c-0.1,0-0.3-0.1-0.3-0.3c-0.1-0.2,0-0.5,0.2-0.6c0.1-0.1,3.1-1.7,5.9,1.1
						c0.2,0.2,0.2,0.5,0,0.6c-0.2,0.2-0.4,0.1-0.6,0c-2.1-1.3-4.8-0.9-4.9-0.9C1044.7,434.8,1044.6,434.8,1044.5,434.8z"/>
				</g>
			</g>
			<g>
				
					<ellipse transform="matrix(0.9975 -7.079941e-002 7.079941e-002 0.9975 -28.5031 75.2183)" fill="#080435" cx="1046.8" cy="439.7" rx="1.4" ry="2"/>
			</g>
			<g>
				<g>
					<path fill="#080435" d="M1028.4,437.7c-0.1,0-0.3,0-0.4-0.1c-0.2-0.2-0.2-0.5,0-0.6c0.1-0.1,2.2-2.8,5.9-1.3
						c0.2,0.1,0.3,0.4,0.3,0.6c-0.1,0.2-0.3,0.3-0.6,0.3c-2.5-0.4-4.8,1-4.9,1C1028.6,437.7,1028.5,437.7,1028.4,437.7z"/>
				</g>
			</g>
			<g>
				
					<ellipse transform="matrix(0.8953 -0.4454 0.4454 0.8953 -88.5382 506.0922)" fill="#080435" cx="1032.5" cy="441.4" rx="1.4" ry="2"/>
			</g>
			<g>
				<path fill="#EF8062" d="M1037.1,414.7c0,0,0.8,8.5,11.5,9.5c10.7,1,18.2,5.3,17.1,13c-1.1,7.7-17.7,24.3-4.8,30
					c12.8,5.7,9.7-5.7,23.5-3.6c13.8,2.1,15.5-16.2,5.7-26.4c-9.8-10.2-7.1-38.4-42.4-35.8c-35.2,2.6-21.2,30.3-21.2,30.3
					S1037.5,424.1,1037.1,414.7z"/>
			</g>
			<g>
				<path fill="#FFFFFF" d="M1064.6,468.6c-2.7-1-4.4-2.5-5-4.6c-1.8-5.7,4.5-14.5,10.1-22.4c1.5-2.1,2.9-4,4.1-5.9
					c3.4-5.2,3.5-10.9,0.2-15.4c-3.6-4.9-10.1-6.8-17-4.9c-13.2,3.6-19.1-4.2-19.1-4.3l0.2-0.2c0.1,0.1,5.9,7.8,18.8,4.2
					c7-1.9,13.6,0,17.3,5c3.3,4.5,3.2,10.5-0.2,15.7c-1.2,1.9-2.6,3.8-4.1,5.9c-5.5,7.8-11.8,16.6-10.1,22.1c0.6,2,2.2,3.4,4.9,4.4
					L1064.6,468.6z"/>
			</g>
			<g>
				<g>
					<path fill="#764678" d="M1028.3,453.5c-3-1-5.8-4.2-7.4-8.6c-2.6-7.1-1.3-15.2,2.9-18c1.6-1.1,3.3-1.3,5.2-0.7
						c3,1,5.8,4.2,7.4,8.5l0,0c2.6,7.1,1.3,15.2-2.9,18.1c-0.9,0.6-2,1-3,1C1029.7,453.8,1029,453.7,1028.3,453.5z M1035.5,435
						c-1.5-4.1-4-7.1-6.8-8c-1.6-0.5-3.1-0.3-4.4,0.6c-3.9,2.6-5,10.2-2.6,17c1.5,4.1,4,7.1,6.8,8c1.6,0.5,3.1,0.3,4.4-0.6
						C1036.8,449.4,1037.9,441.8,1035.5,435L1035.5,435z"/>
				</g>
			</g>
			<g opacity="0.3">
				<path fill="#FFFFFF" d="M1059.2,429.1c1.9,7-0.4,14.6-5,17c-4.7,2.5-9.9-1.2-11.8-8.1c-1.9-7,0.4-14.6,5-17
					C1052,418.5,1057.3,422.2,1059.2,429.1z"/>
			</g>
			<g opacity="0.3">
				<path fill="#FFFFFF" d="M1036.5,435.3c1.9,7,0,14.7-4.1,17.2c-4.1,2.5-9-1.1-10.9-8c-1.9-7,0-14.7,4.1-17.2
					C1029.8,424.7,1034.7,428.3,1036.5,435.3z"/>
			</g>
			<g>
				<g>
					<path fill="#764678" d="M1047.5,446.5c-3.1-1.4-5.6-4.6-6.8-9c-2-7.4,0.5-15.6,5.6-18.3c2.1-1.1,4.3-1.1,6.5-0.2
						c3.1,1.4,5.6,4.6,6.7,8.9l0,0c2,7.4-0.5,15.6-5.6,18.3c-1,0.5-2.1,0.8-3.1,0.9C1049.7,447.2,1048.6,447,1047.5,446.5z
						 M1046.8,420.1c-4.8,2.5-7.1,10.2-5.2,17.3c1.1,4,3.4,7.1,6.3,8.4c1.9,0.8,3.9,0.7,5.7-0.2c4.8-2.5,7.1-10.2,5.2-17.3l0,0
						c-1.1-4-3.4-7.1-6.3-8.4c-1-0.4-2-0.6-2.9-0.6C1048.6,419.4,1047.7,419.6,1046.8,420.1z"/>
				</g>
			</g>
			<g>
				<g>
					<path fill="#764678" d="M1035.7,438c0.2,0,0.4-0.1,0.5-0.2l0,0c0.1-0.1,2.2-1.8,5.9-1.3c0.4,0,0.9-0.2,0.9-0.7
						c0.1-0.5-0.2-0.9-0.7-0.9c-4.5-0.8-7.1,1.6-7.3,1.7c-0.3,0.3-0.4,0.8-0.1,1.2C1035.2,437.9,1035.5,438,1035.7,438z"/>
				</g>
			</g>
		</g>
	</g>
	<g>
		<g>
			<g>
				<path fill="#366F90" d="M1154.2,1264.6L1154.2,1264.6c-18.3,6.3-38.3-3.4-44.6-21.7l-72.9-210.4c-6.3-18.3,3.4-38.3,21.7-44.6
					l0,0c18.3-6.3,38.3,3.4,44.6,21.7l72.9,210.4C1182.2,1238.3,1172.5,1258.3,1154.2,1264.6z"/>
			</g>
			<g>
				<g>
					<path fill="#EF8062" d="M1097.5,840.4c0,0,231.3-190.5,310.7-437.4l307.3,768.9c0,0-355-167-553.4-165c0,0-59.5-17-76.2-71
						C1067.8,877.6,1097.5,840.4,1097.5,840.4z"/>
				</g>
				<g>
					<path fill="#366F90" d="M1461.1,821.4c89.6,231.1,234.4,390.4,323.5,355.9c89-34.5,88.6-249.8-1-480.8
						c-89.6-231.1-234.4-390.4-323.5-355.9C1371,375.1,1371.5,590.3,1461.1,821.4z"/>
				</g>
				<g>
					<path fill="#331832" d="M1753,1151.1c-33.8,0-75.8-27.9-120.6-80.7c-53.8-63.4-105.5-155.4-145.7-258.9
						c-40.2-103.5-63.9-206.3-67-289.4c-3.1-83.7,15.4-137.5,51.9-151.7c36.5-14.1,86.5,13.2,140.6,77.1
						c53.8,63.4,105.5,155.4,145.7,258.9c40.2,103.5,63.9,206.3,67,289.4c3.1,83.7-15.4,137.5-51.9,151.7
						C1766.7,1149.9,1760,1151.1,1753,1151.1z M1491.6,370.1c-6.6,0-12.9,1.1-18.8,3.4c-17.6,6.8-30.9,23.5-39.4,49.6
						c-8.3,25.5-11.8,58.7-10.4,98.8c3,82.7,26.7,185.1,66.7,288.3c40,103.2,91.5,194.8,145.1,257.9c26,30.6,51,52.8,74.3,66
						c23.9,13.5,44.9,16.9,62.5,10.1c17.6-6.8,30.9-23.5,39.4-49.6c8.3-25.5,11.8-58.7,10.4-98.8c-3-82.7-26.7-185.1-66.7-288.3
						c-40-103.2-91.5-194.8-145.1-257.9c-26-30.6-51-52.8-74.3-66C1519.5,374.7,1504.8,370.1,1491.6,370.1z"/>
				</g>
				<g>
					<path fill="#EF8062" d="M1508.7,699.4l147.8-13.6c18.9-2.1,36.9,8.8,43.8,26.5l11.5,29.7c8.2,21.1,1,45-17.4,58.2l-124.7,89.1
						C1569.7,889.1,1479,814.4,1508.7,699.4z"/>
				</g>
				<g>
					<path fill="#331832" d="M1693.7,801.5c-0.3-0.1-33.2-14.5-47.4-55.5c-7.5-21.6-4.7-37.1-1-46.3c4-10.1,9.8-15,10-15.2l2.1,2.5
						c-0.1,0-5.5,4.7-9.2,14.1c-3.4,8.7-6,23.4,1.1,43.9c13.7,39.7,45.3,53.5,45.6,53.6L1693.7,801.5z"/>
				</g>
				<g>
					<path fill="#EF8062" d="M1097.5,840.4l-104.4,61.3c-21.5,12.6-30.7,39-21.7,62.3l16.3,42c9.4,24.1,35.4,37.4,60.5,30.8
						l113.9-30c0,0-37-9-60.4-73.1C1083.5,884.1,1097.5,840.4,1097.5,840.4z"/>
				</g>
				<g>
					<path fill="#331832" d="M1162,1008.4c-0.4,0-0.7-0.1-1-0.4c-40.3-33.4-55.9-77.3-61.9-108.2c-6.4-33.5-3.3-59.4-3.3-59.7
						c0.1-0.9,0.9-1.5,1.8-1.4c0.9,0.1,1.5,0.9,1.4,1.8c0,0.3-3.1,25.8,3.3,58.8c5.9,30.4,21.2,73.4,60.7,106.2
						c0.7,0.6,0.8,1.6,0.2,2.3C1162.9,1008.2,1162.5,1008.4,1162,1008.4z"/>
				</g>
				<g>
					<path fill="#331832" d="M1281.8,1022.4c-0.4,0-0.7-0.1-1-0.4c-33.6-29.1-60.1-60.6-78.9-93.8c-15-26.5-25-54.1-29.9-82
						c-8.2-47.6,1.8-80.1,1.9-80.4c0.3-0.8,1.2-1.3,2-1c0.8,0.3,1.3,1.2,1,2c-0.1,0.3-9.9,32.2-1.8,79.1
						c4.8,27.5,14.7,54.8,29.5,80.9c18.5,32.8,44.8,64,78.1,92.8c0.7,0.6,0.7,1.6,0.2,2.3
						C1282.7,1022.3,1282.2,1022.4,1281.8,1022.4z"/>
				</g>
			</g>
		</g>
	</g>
	<g>
		<g>
			<path fill="#FFB27D" d="M1272.2,1220.6c-2.9,5.2-32.2,50.6-26.1,95l31.9-11.5l14.6-59.8L1272.2,1220.6z"/>
		</g>
		<g>
			<path fill="#CCD39C" d="M1399.6,1202c0,0-19.6-35.1-67.3-25.4c-47.7,9.7-73.7,78-60.8,213.2c0,0,75.8-30.1,174.3-5.8
				C1445.8,1384,1429.6,1253,1399.6,1202z"/>
		</g>
		<g>
			<path fill="#CCD39C" d="M1435.9,1187.8l-33.5,33.5c0,0-86,23.2-109.8,22.9c-23.9-0.3-33.3-17.7-33.3-17.7s20.2-31.9,60.9-46.3
				c3.8-1.4,7.8-2.6,12-3.6c7-1.7,14.2-2.7,21.3-3.1C1395.8,1171,1435.9,1187.8,1435.9,1187.8z"/>
		</g>
		<g>
			<path fill="#331832" d="M1435.9,1187.8c5.4,5.8-2.9,12.2-12.2,21.4c-9.3,9.2-18.8,14.6-21.4,12c-2.5-2.6,2.9-12.2,12.2-21.4
				C1423.8,1190.6,1433.5,1185.1,1435.9,1187.8z"/>
		</g>
		<g>
			<path fill="#FFB27D" d="M1406.9,1221.4c0,0-0.5-6.7,7.9-15.2c5.1-5.1,11.5-8.5,15.8-10.4c2.6-1.1,5.5,0.1,6.5,2.8l2.7,6.9
				l-12.5,8.1L1406.9,1221.4z"/>
		</g>
		<g>
			<path fill="#366F90" d="M1347.6,1345.4c0,0,103.4-56.1,140.5,5.1c27.4,45.3-13.8,87.4-166.8,83.1c0,0-15.1-7.1-11.4-43.8
				C1311.3,1375.3,1347.6,1345.4,1347.6,1345.4z"/>
		</g>
		<g>
			<path fill="#366F90" d="M1347.6,1345.4c0,0-137.8-56.4-165-21.2c-31.3,40.5-1.3,109.4,143.9,84.8l17.7-19.2L1347.6,1345.4z"/>
		</g>
		<g>
			<path fill="#020202" d="M1321.1,1433.9c-17-12.1-11.6-43.8-11.6-44.1l0-0.2l0.2-0.1l104.6-38.1l0.2,0.5l-104.4,38
				c-0.2,1.2-1.3,8.6-0.6,17.1c0.7,8.5,3.3,20,12,26.2L1321.1,1433.9z"/>
		</g>
		<g>
			<path fill="#331832" d="M1309,1399.9c0,0-25.4,1-37.3,6.9c-11.9,5.8-5.6,20.1,18.7,19.7c24.2-0.4,22.4-4,22.4-4
				S1308.1,1410,1309,1399.9z"/>
		</g>
		<g>
			<g>
				<path fill="#FFB27D" d="M1341.5,1348.1c-8.4,0-15.3-2.1-20.9-6.4c-10.6-8-12.5-20.7-11-29.2l10.1-5.9c0.5-2.8,20,7.5,20,7.5
					c0.1,0,9.3,2.7,41.3-13.7c22.3-11.4,33.5-27.5,34.3-49.4c0.6-16.5-6.7-25.7-8.5-29.7c-0.2-0.5,10.8-11.6,10.5-12.7l8.2-4.2
					c-0.3-0.9,7.9-4.2,7.8-4.4l6.4,5.4c3.1,7.3,9.8,23.9,9,46.9c-0.9,23.9-10.8,56.8-52.6,78.2
					C1373.2,1342.3,1355.3,1348.1,1341.5,1348.1z"/>
			</g>
		</g>
		<g>
			<g>
				<path fill="#331832" d="M1334.7,1349.4h-89.3c-1.9,0-3.5-1.2-4.1-2.9l-18.6-55.4c-0.9-2.8,1.2-5.7,4.1-5.7h85.9
					c3.9,0,7.4,2.5,8.6,6.2l17.5,52.2C1339.7,1346.6,1337.6,1349.4,1334.7,1349.4z"/>
			</g>
			<g>
				<path fill="#331832" d="M1329.1,1349.4h-89.3c-1.9,0-3.5-1.2-4.1-2.9l-18.6-55.4c-0.9-2.8,1.2-5.7,4.1-5.7h85.9
					c3.9,0,7.4,2.5,8.6,6.2l17.5,52.2C1334.1,1346.6,1332,1349.4,1329.1,1349.4z"/>
			</g>
			<g>
				<path fill="#DAEBE8" d="M1266.5,1315.6c0-2.1,2.4-3,4.5-3c2.1,0,5.6,2.3,5.6,5.3c0,3.2-2.5,3.6-4.6,3.6
					C1269.9,1321.5,1266.5,1318.3,1266.5,1315.6z"/>
			</g>
			<g>
				<path fill="#331832" d="M1361.9,1341.6h-122.1v7.8h124.7c1.5,0,2.6-1.2,2.6-2.6l0,0C1367.1,1343.9,1364.8,1341.6,1361.9,1341.6z
					"/>
			</g>
			<g>
				<path fill="#366F90" d="M1322.7,1313.4c0-0.2-4.4-16.6-7.3-21.7c-2.8-5-6.2-6-6.3-6l0.2-0.6c0.2,0,3.7,1.1,6.6,6.3
					c2.9,5.2,7.1,21.1,7.3,21.8L1322.7,1313.4z"/>
			</g>
			<g>
				<path fill="#366F90" d="M1335.9,1341.9c-3.3,0-4.1-1.5-4.2-1.5l-7-20.8l0.5-0.2l7,20.8c0,0,0,0,0,0c0,0,0.8,1.2,3.6,1.2V1341.9z
					"/>
			</g>
		</g>
		<g>
			<path fill="#EC865C" d="M1421.7,1300.1c-0.5,0-1-0.1-1.4-0.4c-2.2-1.3-2.1-5.4,0.1-9.3c1.5-2.6,3.6-4.5,5.5-5
				c0.9-0.2,1.7-0.2,2.4,0.2c2.2,1.3,2.1,5.4-0.1,9.3l0,0c-1.5,2.6-3.6,4.5-5.5,5C1422.4,1300,1422,1300.1,1421.7,1300.1z
				 M1426.9,1286.4c-0.2,0-0.4,0-0.7,0.1c-1.6,0.4-3.5,2.2-4.8,4.5c-1.9,3.3-2.1,6.8-0.6,7.7c0.4,0.2,0.9,0.3,1.5,0.1
				c1.6-0.4,3.5-2.2,4.8-4.5l0,0c1.9-3.3,2.1-6.8,0.6-7.7C1427.5,1286.4,1427.3,1286.4,1426.9,1286.4z"/>
		</g>
		<g>
			<path fill="#FFB27D" d="M1354.3,1173.4c-5.9-0.2-10.3-0.8-13.7-4.7l-10.4-12.3l-3-3.6l-17.9-21l9.4,24.6l5.6,14.8l1.8,4.7
				c1.2,3.2-0.4,4.6-1.5,8.4c-0.5,1.5-3.5,10.8,4.5,10.8c10,0.1,22.6-11.5,25.4-21.6C1354.4,1173.4,1354.3,1173.4,1354.3,1173.4z"/>
		</g>
		<g>
			<path fill="#331832" d="M1333.1,1148.5c0,0,19.7-18.9,8.3-34.9c-11.4-16-14.2,25.6-14.2,25.6l3.2,9.6L1333.1,1148.5z"/>
		</g>
		<g>
			<path fill="#331832" d="M1330.1,1156c0,0.1,0.1,0.3,0.1,0.4c1.8,8.3-5.8,14.8-5.8,14.8l-0.1,0l-5.6-14.8c2.4-1.8,5.9-4,8.5-3.6
				C1328.5,1153,1329.5,1153.9,1330.1,1156z"/>
		</g>
		<g>
			<path fill="#FFB27D" d="M1288.4,1145.7c-4.4-14.8,1.8-29.8,13.9-33.5c12.1-3.7,25.6,5.3,30,20c4.4,14.8-1.8,29.8-13.9,33.5
				S1292.8,1160.5,1288.4,1145.7z"/>
		</g>
		<g>
			<path fill="#331832" d="M1328.2,1130.1c0,0-6.3,4.6-11.5,0.7c-5.3-3.9-9-7.5-20.7-1.6c-11.8,5.9-24.6,3.3-27-3.4
				c-2.4-6.7,3.2-11.8,10.6-11.4c7.4,0.3-1.6-3.7,3.6-10.7c5.1-7,18.2,0.2,24.6-3.3c6.5-3.5,29.5-6.5,33.6,13.2L1328.2,1130.1z"/>
		</g>
		<g>
			<path fill="#FFB27D" d="M1333.1,1134c-1.5,2.3-4.4,3.1-6.5,1.8s-2.5-4.4-1-6.7c1.5-2.3,4.4-3.1,6.5-1.8
				C1334.2,1128.7,1334.6,1131.7,1333.1,1134z"/>
		</g>
		<g>
			<path fill="#FFFFFF" d="M1281.9,1123.5c-0.4,0-0.9,0-1.3-0.1c-2.7-0.7-3.4-2.1-3.2-3.1c0.2-1.2,1.7-2.4,4.1-2.2
				c3.5,0.4,5.4-0.8,5.4-0.8l0.5,0.7c-0.1,0.1-2.2,1.4-6,1c-1.7-0.2-3,0.6-3.1,1.5c-0.2,0.9,0.8,1.7,2.6,2.1
				c4.5,1.2,12.3-5.9,12.4-6l0.6,0.6C1293.6,1117.5,1286.9,1123.5,1281.9,1123.5z"/>
		</g>
		<g>
			<path fill="#FFFFFF" d="M1302.3,1107c-4.8,0-9.1-2.1-9.4-2.5l0.6-0.6c0.4,0.4,7.4,3.8,13.4,1.4c2-0.8,3.8-1.7,5.5-2.6
				c3.5-1.8,6.5-3.4,9.9-2.8l-0.2,0.8c-3.1-0.6-6,0.9-9.4,2.7c-1.7,0.9-3.5,1.8-5.5,2.7C1305.6,1106.8,1303.9,1107,1302.3,1107z"/>
		</g>
		<g>
			<path fill="#FFFFFF" d="M1335.4,1112.6c-1.3,0-3.6-2.1-4.2-3.2c-0.5-0.9,0-1.3,0.2-1.5c1.7-1.1,4.2,2.3,4.7,3l0.1,0.1
				c0.3,1.1-0.2,1.4-0.5,1.5C1335.7,1112.6,1335.5,1112.6,1335.4,1112.6z M1332.2,1108.6c-0.1,0-0.2,0-0.3,0.1c0,0.1,0,0.5,0.9,1.4
				c1.2,1.2,2.4,1.8,2.7,1.7c0,0,0-0.1-0.1-0.4C1334.5,1110.1,1333.1,1108.6,1332.2,1108.6z"/>
		</g>
		<g>
			<g>
				<path fill="#080435" d="M1306,1139.7c-0.1,0-0.3-0.1-0.3-0.2c-0.1-0.2,0-0.5,0.2-0.6c0.1-0.1,3-2.1,6.1,0.6
					c0.2,0.2,0.2,0.5,0.1,0.7c-0.2,0.2-0.4,0.2-0.7,0.1c-2.3-1.2-5-0.5-5.1-0.5C1306.2,1139.7,1306.1,1139.7,1306,1139.7z"/>
			</g>
		</g>
		<g>
			<path fill="#080435" d="M1310.3,1144.3c0.2,1.1-0.3,2.1-1.1,2.2c-0.8,0.1-1.6-0.7-1.8-1.8c-0.2-1.1,0.3-2.1,1.1-2.2
				C1309.3,1142.4,1310.1,1143.2,1310.3,1144.3z"/>
		</g>
		<g>
			<g>
				<path fill="#080435" d="M1289.7,1145.6c-0.1,0-0.2,0-0.3-0.1c-0.2-0.2-0.2-0.5-0.1-0.7c0.1-0.1,1.4-2.9,4.5-1.5
					c0.2,0.1,0.3,0.4,0.3,0.6c0,0.2-0.2,0.3-0.4,0.3c-2-0.3-3.7,1.1-3.8,1.2C1289.8,1145.5,1289.8,1145.6,1289.7,1145.6z"/>
			</g>
		</g>
		<g>
			<path fill="#080435" d="M1295.5,1148.2c0.6,1,0.5,2.1-0.2,2.5c-0.7,0.4-1.7,0-2.3-1c-0.6-1-0.5-2.1,0.2-2.5
				S1295,1147.3,1295.5,1148.2z"/>
		</g>
		<g>
			<g>
				<path fill="#020202" d="M1308.9,1160c-1.6,0-2.8-0.3-2.8-0.3c-0.2,0-0.3-0.2-0.2-0.4c0-0.2,0.2-0.3,0.4-0.2
					c0.3,0.1,7.9,1.9,11.6-4.7c0.1-0.2,0.3-0.2,0.4-0.1c0.2,0.1,0.2,0.3,0.1,0.4C1315.9,1159.2,1311.7,1160,1308.9,1160z"/>
			</g>
			<g>
				<path fill="#020202" d="M1319.1,1155.9c-0.1,0-0.3-0.1-0.3-0.2c-0.1-0.5-0.6-1.1-1.8-1.9l-0.1-0.1c-0.1-0.1-0.2-0.3-0.1-0.5
					c0.1-0.1,0.3-0.2,0.5-0.1c1.2,0.7,1.9,1.4,2.2,2.3c0.1,0.2,0,0.4-0.2,0.4C1319.1,1155.9,1319.1,1155.9,1319.1,1155.9z"/>
			</g>
		</g>
		<g>
			
				<rect x="1279.5" y="1225" transform="matrix(0.9501 0.312 -0.312 0.9501 448.7602 -337.8637)" fill="#331832" width="1.4" height="16.9"/>
		</g>
		<g>
			<path fill="#FFFFFF" d="M1292.9,1164.1c-0.3,0-0.6,0-0.9-0.1c-3.5-0.5-7-3.4-9.6-7.8c-4.2-7.2-4.3-16.2-0.4-20.1
				c1.5-1.4,3.3-2.1,5.4-1.8c3.5,0.5,7,3.4,9.6,7.8l0,0c4.2,7.2,4.3,16.2,0.4,20.1C1296.1,1163.4,1294.6,1164.1,1292.9,1164.1z
				 M1286.4,1135.2c-1.4,0-2.7,0.5-3.8,1.6c-3.6,3.6-3.4,12.1,0.6,18.9c2.4,4.2,5.7,6.9,8.9,7.3c1.7,0.2,3.3-0.3,4.6-1.5
				c3.6-3.6,3.4-12.1-0.6-18.9c-2.4-4.2-5.7-6.9-8.9-7.3C1286.9,1135.2,1286.7,1135.2,1286.4,1135.2z"/>
		</g>
		<g opacity="0.3">
			<path fill="#FFFFFF" d="M1320.3,1131.5c3.4,7.2,2.4,15.9-2.1,19.4s-10.9,0.7-14.3-6.5c-3.4-7.2-2.4-15.9,2.1-19.4
				S1317,1124.4,1320.3,1131.5z"/>
		</g>
		<g opacity="0.3">
			<path fill="#FFFFFF" d="M1297.3,1142.7c3.4,7.2,2.9,15.9-1,19.5c-3.9,3.6-9.9,0.6-13.2-6.5c-3.4-7.2-2.9-15.9,1-19.5
				C1288,1132.6,1293.9,1135.5,1297.3,1142.7z"/>
		</g>
		<g>
			<path fill="#FFFFFF" d="M1313.2,1152.9c-0.6,0-1.3-0.1-2-0.2c-3.6-0.9-6.9-3.9-9-8.4c-3.6-7.6-2.5-17,2.4-20.9
				c2-1.6,4.4-2.1,6.9-1.5c3.6,0.9,6.9,3.9,9,8.4l0,0c3.6,7.6,2.5,17-2.4,20.9C1316.6,1152.3,1315,1152.9,1313.2,1152.9z
				 M1309.6,1122.7c-1.6,0-3,0.5-4.3,1.5c-4.6,3.6-5.6,12.5-2.2,19.7c2,4.1,5.1,7,8.4,7.8c2.2,0.5,4.3,0.1,6-1.3
				c4.6-3.6,5.6-12.5,2.2-19.7c-2-4.1-5.1-7-8.4-7.8C1310.7,1122.7,1310.1,1122.7,1309.6,1122.7z"/>
		</g>
		<g>
			<path fill="#FFFFFF" d="M1296.7,1145.7c-0.2,0-0.4-0.1-0.6-0.2c-0.4-0.3-0.5-0.9-0.2-1.3c0.1-0.1,2.4-3.1,7.5-3.3
				c0.5,0,0.9,0.4,0.9,0.9c0,0.5-0.4,0.9-0.9,0.9c-4.1,0.1-6,2.5-6.1,2.5C1297.2,1145.6,1297,1145.7,1296.7,1145.7z"/>
		</g>
	</g>
	<g>
		<g>
			<g>
				<g>
					<path fill="#FFB27D" d="M1946.5,868.9c-5.6-5.5,26.6-26.6,26.6-26.6c2.1-1.5,27.1,26,68,13c14.6-4.6,34.8-30.2,36.2-34
						c0.2-0.5,32.3,11.1,32.3,11.1c-2.6,6.9-1.3,31-17,45.5C2060.1,907.9,2009.4,913.7,1946.5,868.9z"/>
				</g>
			</g>
			<g>
				<path fill="#331832" d="M2141.8,1274.5c0,0-0.3,11.1-7.8,14.2c-7.5,3.1-29.2,5.9-21.1,13.1c4.7,4.1,26.6,1.4,32.8,1.4
					c6.2,0,12,2.7,16.6-1.4c5.1-4.6,0-27.3,0-27.3s-5.4,2.8-10.2,2.7C2145.3,1276.9,2141.8,1274.5,2141.8,1274.5z"/>
			</g>
			<g>
				<path fill="#EF8062" d="M2077.1,939.9c0,0-1.5,50,14.5,146c11.5,69.3,25.1,139.1,31.8,172.6c2.4,12,12.5,20.7,24.4,21.2l6.4,0.3
					c12.9,0.5,23.4-10.6,22.4-23.7l-16.2-226.5l-4-74.5L2077.1,939.9z"/>
			</g>
			<g>
				<path fill="#331832" d="M2212.9,1274.5c0,0-0.3,11.1-7.8,14.2s-29.2,5.9-21.1,13.1c4.7,4.1,26.6,1.4,32.8,1.4
					c6.2,0,12,2.7,16.6-1.4c5.1-4.6,0-27.3,0-27.3s-5.4,2.8-10.2,2.7C2216.3,1276.9,2212.9,1274.5,2212.9,1274.5z"/>
			</g>
			<g>
				<path fill="#EF8062" d="M2148.1,939.9c0,0-1.5,50,14.5,146c11.5,69.3,25.1,139.1,31.8,172.6c2.4,12,12.5,20.7,24.4,21.2l6.4,0.3
					c12.9,0.5,23.4-10.6,22.4-23.7l-16.2-226.5l-4-74.5L2148.1,939.9z"/>
			</g>
			<g>
				<path fill="#331832" d="M2235.3,994.7c-0.2,6-36.7,8.4-81.8,7s-81.2-7.7-81.1-13.7c0.2-6,36.5-9.6,81.6-8.2
					C2199.2,981.3,2235.5,988.7,2235.3,994.7z"/>
			</g>
			<g>
				<path fill="#6DA49A" d="M2224.3,823.8c0,0-8-31.6-66.9-32c-84.9-0.5-77.1,77.6-84.9,196.2c0,0,83.7-11.8,162.9,5.2
					C2235.4,993.2,2242.7,872.2,2224.3,823.8z"/>
			</g>
			<g>
				<path fill="#6DA49A" d="M2246,819.3l-38.5,21.3c0,0-84.2,7.6-106.6,4c-22.4-3.7-28.5-20.1-28.5-20.1s23.8-24.6,64.3-31.2
					c3.8-0.6,7.7-1.1,11.8-1.3c6.9-0.4,13.7-0.4,20.5,0.4C2220.4,798.1,2246,819.3,2246,819.3z"/>
			</g>
			<g>
				<path fill="#FFB27D" d="M2165.5,784.6l-4.4-14.3l-1.3-4.2l-7.6-24.6l-1,24.4l-0.6,14.7l-0.2,4.6c-0.1,3.2-2,3.8-4.4,6.6
					c-0.9,1.1-7,7.8-0.1,10.9c8.6,3.8,24.6-1.9,30.7-9.5C2176.5,793.2,2166.9,789.3,2165.5,784.6z"/>
			</g>
			<g>
				<path fill="#EF8062" d="M2079.6,992.9c0,0,48.9-14.4,150.2,5.4l0.8,14.6l-148.5,5.2L2079.6,992.9z"/>
			</g>
			<g>
				<path fill="#331832" d="M2246.8,820.2c3.3,4.6-1.5,13.7-10.7,20.4c-9.2,6.6-19.3,8.3-22.5,3.7c-3.3-4.6,1.5-13.7,10.7-20.4
					C2233.5,817.2,2243.5,815.6,2246.8,820.2z"/>
			</g>
			<g>
				<g>
					<path fill="#FFB27D" d="M2257.4,1005.1c-3.5-39-11.7-94.7-30.3-138.9c-4.3-10.2-6.1-14.1-9.5-19.7c-2.7-4.5,2.1-14.4,9.8-19.1
						c7.2-4.4,18.3-3.7,20.1-1.5c3,3.7,6.2,10.9,11.2,22.2c17.3,39.3,27.7,90.1,31.9,155.7L2257.4,1005.1z"/>
				</g>
			</g>
			<g>
				<g>
					<path fill="#5C305D" d="M2132.6,732.3c0,0-1.6,5.9,0,13.4c1.6,7.5,9.1-10.9,9.1-10.9L2132.6,732.3z"/>
				</g>
				<g>
					
						<ellipse transform="matrix(-0.9915 -0.1302 0.1302 -0.9915 4190.5552 1775.3143)" fill="#FFB27D" cx="2153.3" cy="750.7" rx="21.8" ry="26.3"/>
				</g>
				<g>
					<path fill="#331832" d="M2175.5,746l-10.6-1.1c-2.3-0.2-4.4-1.5-5.7-3.5c-2.2-3.4-4.8-5.1-14.6-4.8c-12.5,0.5-20.7-7-22.1-13.5
						c-1.4-6.7,5-11.2,11.3-8c6.3,3.2,3.6-4.6,9.6-5.4c11.3-1.5,13.4,7.1,22.6,6.9c12.1-0.4,33.8,8.8,23.5,30.1L2175.5,746z"/>
				</g>
				<g>
					<g>
						<path fill="#080435" d="M2152.1,749.6c-0.1-0.1-0.2-0.2-0.2-0.3c0-0.2,0.2-0.5,0.4-0.5c0.1,0,3.4-0.6,5.1,2.9
							c0.1,0.2,0,0.5-0.2,0.6c-0.2,0.1-0.4,0-0.6-0.2c-1.5-1.9-4.1-2.4-4.2-2.4C2152.3,749.7,2152.2,749.7,2152.1,749.6z"/>
					</g>
				</g>
				<g>
					
						<ellipse transform="matrix(0.9647 0.2632 -0.2632 0.9647 274.5706 -539.9449)" fill="#080435" cx="2152.7" cy="754.9" rx="1.4" ry="1.9"/>
				</g>
				<g>
					<g>
						<path fill="#080435" d="M2135.8,748.3c-0.1,0-0.2-0.1-0.2-0.2c-0.1-0.2,0-0.5,0.2-0.6c0.1-0.1,2.4-2,4.5,0.5
							c0.1,0.2,0.1,0.4,0,0.6c-0.1,0.2-0.3,0.2-0.5,0.1c-1.6-1.1-3.7-0.5-3.7-0.4C2135.9,748.3,2135.8,748.3,2135.8,748.3z"/>
					</g>
				</g>
				<g>
					
						<ellipse transform="matrix(0.9923 -0.1241 0.1241 0.9923 -76.9295 271.2632)" fill="#080435" cx="2138.4" cy="753" rx="1.4" ry="1.9"/>
				</g>
				<g>
					<path fill="#5C305D" d="M2189.5,746.7c0,0-7.3,15.7-17.6,16.9c0,0,8.4-12-9.3-19.3C2162.6,744.3,2178.8,741.8,2189.5,746.7z"/>
				</g>
				<g>
					
						<ellipse transform="matrix(0.5368 0.8437 -0.8437 0.5368 1640.6696 -1484.8129)" fill="#FFB27D" cx="2172.6" cy="751.8" rx="4.2" ry="4.7"/>
				</g>
				<g>
					<path fill="#5C305D" d="M2162.6,744.3c0,0,1.4,13.2-1.3,15.7c-2.7,2.5-20.4,3.6-28.7,0.4l0,0c-0.1,8.5,5.8,16,14.2,17.4
						c2.8,0.5,5.6,0.5,8.5,0l0,0c5.8-1,11.4-3.4,13.8-8.8c0.7-1.6-1.4-11.7-1.4-11.7s-0.8-5.9,2.6-9
						C2170.3,748.2,2166.4,744.7,2162.6,744.3z"/>
				</g>
				<g>
					<path fill="#FFFFFF" d="M2136.9,765.1c0,0,6.8,1.8,14.2,1.1c0,0-1.1,6.9-8.6,5.5C2138.2,771,2136.9,765.1,2136.9,765.1z"/>
				</g>
				<g>
					<path fill="#331832" d="M2135.1,714.2c-0.1,0-0.1,0-0.2,0l0-0.6c2.9,0.1,3.1-2.2,3.1-2.3l0.6,0.1
						C2138.7,711.3,2138.4,714.2,2135.1,714.2z"/>
				</g>
				<g>
					<path fill="#FFFFFF" d="M2141.1,733.2c0,0-3.4-1-6.9-2.9c-4.6-2.5-7.1-5.3-7.3-8.2c-0.2-2,0.2-3.4,1.1-4.2
						c1.4-1.2,3.9-0.7,6.1-0.1c0.3,0.1,0.6,0.1,0.9,0.2l-0.1,0.3c-0.3-0.1-0.6-0.1-0.9-0.2c-2.1-0.5-4.5-1.1-5.8,0.1
						c-0.8,0.7-1.1,2-1,3.9c0.6,6.8,13.8,10.8,14,10.8L2141.1,733.2z"/>
				</g>
				<g>
					<path fill="#FFFFFF" d="M2167.2,719.3c-4.8,0-8.4-1.3-10.8-2.4c-3.2-1.6-4.7-3.5-4.8-3.5l0.2-0.2c0.1,0.1,6.3,7.4,19.3,5.6
						l0,0.3C2169.8,719.3,2168.4,719.3,2167.2,719.3z"/>
				</g>
			</g>
			<g>
				<path fill="#EC865C" d="M2266.6,917.3c-1.3,0-2.6-0.6-3.7-1.8c-1.2-1.3-2.1-3.1-2.4-5.1c-0.7-4.2,1.2-8.1,4.2-8.6
					c1.5-0.2,3,0.4,4.3,1.7c1.2,1.3,2.1,3.1,2.4,5.1v0c0.3,2,0.1,4-0.6,5.6c-0.8,1.7-2,2.7-3.5,3
					C2267,917.3,2266.8,917.3,2266.6,917.3z M2265.4,903.4c-0.1,0-0.3,0-0.4,0c-2.2,0.4-3.5,3.5-3,6.9c0.3,1.7,1,3.2,2,4.3
					c0.9,1,2,1.4,3,1.3s1.9-0.9,2.5-2.2c0.6-1.3,0.8-3,0.5-4.7v0c-0.3-1.7-1-3.2-2-4.3C2267.2,903.8,2266.2,903.4,2265.4,903.4z"/>
			</g>
			<g>
				<path fill="#FFB27D" d="M2259.6,998.2c-2.8,5.4-6,17.5-8.8,22.9c-1.2,2.4-4.6,10.7-2.5,12.2c1.9,1.4,7.7-3.8,10.2-6.6
					c2.4,17.7,13.6,42.6,11.2,5.2c0,0,0,0,0.1,0c0.6,3.8,3.9,24.7,8.4,22.1c4-2.3,2.3-17.4,1.4-23.6c0.1,0,0.1,0,0.2,0
					c1.4,6.2,5.3,21.2,8.4,17.7c3.9-4.4,2.4-21,2.4-21s2.4,21.1,7.5,16.6c2.9-2.5,0.3-14.5-1.4-22v0c0,0,0,0,0,0
					c-0.4-1.6-0.7-2.9-0.9-4c-0.2-0.9-0.4-1.6-0.8-2.3c-3.6-12.3-8-19.6-8-19.6s-3.6-9.5-14.3-8.1
					C2265.8,988.9,2260.9,995.9,2259.6,998.2z"/>
			</g>
		</g>
		<g>
			<path fill="#331832" d="M2087.6,841.7l-0.9-0.3c2.5-9,10.8-20.2,10.9-20.3l0.8,0.6C2098.2,821.8,2090,832.9,2087.6,841.7z"/>
		</g>
		<g>
			<path fill="#020202" d="M2165,1105.5c-0.1-0.4-6.6-41.1-11.1-55.6c-4.4-14.3-23.5-26.3-23.7-26.4l0.8-1.3c0,0,5,3.1,10.4,8
				c7.3,6.6,12,13.1,14,19.3c4.5,14.6,11.1,55.4,11.2,55.8L2165,1105.5z"/>
		</g>
		<g>
			<path fill="#FFB27D" d="M1979.4,852.5c-2.4-5.2-9.6-14.3-12.1-19.5c-1.1-2.2-5.3-9.4-7.7-8.7c-2.1,0.6-1.5,7.9-0.8,11.3
				c-14.5-8.2-40.7-16-10.2,5.4c0,0,0,0,0,0c-3.1-1.7-24.1-13.5-24.7-8.6c-0.5,4.3,15.2,14,20.4,16.8c0,0,0,0.1-0.1,0.1
				c-5.5-2.4-21.1-10.5-20.3-6.3c1.1,5.4,16.6,16.1,16.6,16.1s-17.1-10.1-16.6-3.8c0.3,3.6,10.7,8.4,17.2,11.3v0c0,0,0,0,0,0
				c1.4,0.6,2.6,1.1,3.5,1.6c0.7,0.3,1.4,0.6,2.1,0.7c11.2,4.2,19.1,5.1,19.1,5.1s9.1,2.7,14.1-6.1
				C1982.8,862.3,1980.4,854.8,1979.4,852.5z"/>
		</g>
	</g>
	<g>
		<g>
			<path fill="#331832" d="M873,1397.1c0,0,0.3,12.1,8.5,15.6c8.2,3.4,32,6.5,23.1,14.3c-5.1,4.5-29.2,1.6-36,1.6
				c-6.8,0-13.2,3-18.2-1.6c-5.6-5,0-29.9,0-29.9s5.9,3.1,11.1,2.9C869.2,1399.8,873,1397.1,873,1397.1z"/>
		</g>
		<g>
			<path fill="#EF8062" d="M934,1064.2c0,0-0.6,56-5.1,154.7c-3.5,77.4-2.8,149.2-9.6,183.2c-2.4,12.2-92.2,6-91.2-7.4l21.2-239.2
				l4.1-75.7L934,1064.2z"/>
		</g>
		<g>
			<path fill="#366F90" d="M799.5,941.4c0,0,12-33.9,54.9-32.3c42.9,1.5,77.2,57.9,85.2,179c0,0-71.7-15-154,20.9
				C785.6,1109,780.7,990.8,799.5,941.4z"/>
		</g>
		<g>
			<path fill="#366F90" d="M769.4,939.4l30.4,19.4c0,0,78.1,7.8,98.8,4.1c20.7-3.8,10.1-14.7,10.1-14.7s-5.8-31.3-43.4-38
				c-3.5-0.6-7.1-0.7-10.9-1c-6.4-0.5-12.7-0.3-19,0.4C798.4,913.5,769.4,939.4,769.4,939.4z"/>
		</g>
		<g>
			<path fill="#331832" d="M769,940c-1.1,3.1,6.9,8.8,17.7,12.8s20.5,4.8,21.6,1.7c1.1-3.1-6.9-8.8-17.7-12.8
				C779.7,937.7,770,937,769,940z"/>
		</g>
		<g>
			<path fill="#331832" d="M778.6,1397.1c0,0,0.3,12.1,8.5,15.6c8.2,3.4,32,6.5,23.1,14.3c-5.1,4.5-29.2,1.6-36,1.6
				c-6.8,0-13.2,3-18.2-1.6c-5.6-5,0-29.9,0-29.9s5.9,3.1,11.1,2.9C774.8,1399.8,778.6,1397.1,778.6,1397.1z"/>
		</g>
		<g>
			<path fill="#331832" d="M785.6,1109c0.7,6.2,35.7,5.4,78.6,0c42.8-5.4,76.2-14.7,75.4-20.9c-0.7-6.2-35.3-6.9-78.1-1.5
				C818.6,1092,784.9,1102.8,785.6,1109z"/>
		</g>
		<g>
			<path fill="#EF8062" d="M884.8,1100.5L805.1,1402c-3.8,12.3-79.5,10.6-77.1-2.4l61.9-285.2c0.7-3.3,3.1-5.9,6.3-6.8
				C813.4,1102.7,886.5,1088.4,884.8,1100.5z"/>
		</g>
		<g>
			<path fill="#020202" d="M839.3,1275.7l-1.5-0.4l24.3-103.8c4.6-13.9,13.9-25.4,26.3-32.5l0.8,1.3c-12.1,6.9-21.2,18.1-25.6,31.6
				L839.3,1275.7z"/>
		</g>
		<g>
			<path fill="#EF8062" d="M820.1,1102.2c0,0,85.5-16.3,113.2-8.6l-13.3,19.7l-49.4,2.8L820.1,1102.2z"/>
		</g>
		<g>
			<path fill="#331832" d="M868.5,911.7c0,0-9.7-3.9-11.3-9.3c-1.5-5.4-5.1-3.8-7.2-5.1c-2.1-1.4,3.8-16.1,3.8-16.1l20.2-7.4
				l-2.1,25.8L868.5,911.7z"/>
		</g>
		<g>
			<path fill="#FFB27D" d="M826.3,910.9c4-0.9,8.1-3.4,9.8-7.4l5.3-12.4l1.6-3.6l9.2-21.3l-1.6,22.1l-1,13.2l-0.3,3.7
				c-0.2,3.1,1.5,3.2,4.6,3.8c0,0,3.9,11.9-4.9,11.9C837.2,921,826.3,910.9,826.3,910.9z"/>
		</g>
		<g>
			<path fill="#562759" d="M841.4,890.8c0,0.1,0,0.2,0,0.4c0.5,7.1,8.1,10.4,8.1,10.4l0,0l1-13.2c-2.3-0.9-5.6-1.7-7.6-0.8
				C842,888,841.4,889,841.4,890.8z"/>
		</g>
		<g>
			<ellipse fill="#FFB27D" cx="853.2" cy="869.8" rx="20.7" ry="25.6"/>
		</g>
		<g>
			<path fill="#FFFFFF" d="M864.3,886.3c0,0-7.1,0.2-14.2-2.3c0,0-0.6,7,7.1,7.4C861.7,891.7,864.3,886.3,864.3,886.3z"/>
		</g>
		<g>
			<g>
				<path fill="#080435" d="M855.2,870c0.1,0,0.3-0.1,0.3-0.3c0.1-0.2,0-0.5-0.3-0.6c-0.1-0.1-3.3-1.7-6.1,1.4
					c-0.2,0.2-0.2,0.5,0,0.7c0.2,0.2,0.5,0.1,0.7,0c2.2-1.5,5-1.2,5.1-1.1C855,870,855.1,870,855.2,870z"/>
			</g>
		</g>
		<g>
			
				<ellipse transform="matrix(-0.9995 -3.176146e-002 3.176146e-002 -0.9995 1675.6538 1776.6007)" fill="#080435" cx="851.9" cy="875" rx="1.5" ry="2"/>
		</g>
		<g>
			
				<ellipse transform="matrix(-0.9954 -9.555132e-002 9.555132e-002 -0.9954 1643.0345 1830.624)" fill="#080435" cx="865.3" cy="876" rx="1.5" ry="2"/>
		</g>
		<g>
			<path fill="#331832" d="M843.1,853.4c15.9,3.8,27.1,18,27.6,34.3c0,0.9-14.6,10.6-13.7,13.9c2.1,7.7,12.3,14.7,15.9,14.7
				c5.5,0,14.6-18.5,11.7-42.7c-3-24.1-12.3-41.8-34.5-42.6c-22.1-0.7-19.2,14-19.2,14S834.8,851.4,843.1,853.4z"/>
		</g>
		<g>
			<path fill="#331832" d="M846.2,853.4c0,0-0.4,0.2-1,0.7c-2.3,1.8-8.1,7-9.2,14.8c-1.3,9.8,8.1,15.9,5.5,23.4
				c-2.6,7.6-9.4-0.9-14.9,0.4c-5.5,1.3-9.6-1.3-10-12.4c-0.4-11.1,2.2-36.9,15.3-36.9L846.2,853.4z"/>
		</g>
		<g>
			<path fill="#FFB27D" d="M832.8,873.6c2.3,2.2,5.6,2.5,7.3,0.5c1.7-2,1.2-5.4-1.2-7.6c-2.3-2.2-5.6-2.5-7.3-0.5
				C830,868,830.5,871.4,832.8,873.6z"/>
		</g>
		<g>
			<path fill="#331832" d="M871.9,899.7C871.9,899.7,871.9,899.7,871.9,899.7c-0.1,0-0.2-0.1-0.2-0.2c0.2-11.3-2-18.6-2-18.7
				c0-0.1,0-0.2,0.1-0.2c0.1,0,0.2,0,0.2,0.1c0,0.1,2.2,7.4,2,18.8C872,899.7,871.9,899.7,871.9,899.7z"/>
		</g>
		<g>
			<g>
				<path fill="#FFB27D" d="M843.4,1045.8l0.4-22.2c0-3-2.3-5.6-5.3-5.8c-15.4-1.1-26.2-5.9-32.1-14.2c-8.2-11.6-7.3-29.6-5-42.1
					c1.2-6.4-0.9-10.7-8.7-14.8c0,0-6.6-3.7-14.8-5c-3.3-0.6-6.5,0.8-7.4,4c-1.3,5-3,12.9-3.9,22.1c-1.9,21.9,2.3,40.9,12.2,55.1
					c12.2,17.3,31.8,26.9,58.4,28.6C840.6,1051.6,843.4,1049.1,843.4,1045.8z"/>
			</g>
		</g>
		<g opacity="0.5">
			<path fill="#EC865C" d="M786.9,1017.1c-0.6,0-1.2-0.1-1.9-0.3c-1.7-0.5-3.4-1.7-4.7-3.3l0,0c-2.7-3.4-3-7.8-0.6-9.7
				c1.2-1,2.9-1.2,4.7-0.7c1.7,0.5,3.4,1.7,4.7,3.3c2.7,3.4,3,7.8,0.6,9.7C788.9,1016.8,787.9,1017.1,786.9,1017.1z M782.6,1004.3
				c-0.7,0-1.4,0.2-1.9,0.6c-1.8,1.4-1.4,4.8,0.8,7.6l0,0c1.1,1.4,2.5,2.4,3.9,2.8c1.3,0.4,2.5,0.3,3.3-0.4c1.8-1.4,1.4-4.8-0.8-7.6
				c-1.1-1.4-2.5-2.4-3.9-2.8C783.5,1004.4,783.1,1004.3,782.6,1004.3z"/>
		</g>
		<g>
			<path fill="#764678" d="M916.9,1073.8h-57.2c-11,0-19.1-10.3-16.5-20.9l22.5-93.7c1.8-7.6,8.7-13,16.5-13h57.2
				c11,0,19.1,10.3,16.5,20.9l-22.5,93.7C931.6,1068.4,924.7,1073.8,916.9,1073.8z"/>
		</g>
		<g>
			<g>
				<g>
					<path fill="#FFB27D" d="M832.8,1016.4c0,0,5.4-16.4,14.7-20.4c9.3-4,24.1-2.1,18.9,1.6s-13.2,6.6-13.2,6.6s17.3-5.4,16.8-0.8
						c-0.5,4.6-15.6,9.1-15.6,9.1s21.1-4.8,19.2-0.6c-1.9,4.2-17.9,7.7-17.9,7.7s19.8-3.6,17.5,1.2c-2.3,4.8-16.4,2.9-16.9,7.5
						c-0.5,4.6-4,22.7-16.9,22.8L832.8,1016.4z"/>
				</g>
			</g>
			<g>
				<path fill="#E9845C" d="M847.1,1008l-0.7-0.3c1.4-3,6.6-3.8,6.8-3.8l0.1,0.7C853.2,1004.6,848.3,1005.4,847.1,1008z"/>
			</g>
			<g>
				<path fill="#E9845C" d="M847,1017.1l-0.6-0.4c2.8-3.8,7.8-4.5,8-4.5l0.1,0.7C854.4,1012.9,849.6,1013.6,847,1017.1z"/>
			</g>
			<g>
				<path fill="#E9845C" d="M848.8,1023.9l-0.7-0.3c1.2-3.3,7.3-4.3,7.6-4.3l0.1,0.7C855.7,1020.1,849.9,1021,848.8,1023.9z"/>
			</g>
		</g>
		<g>
			<g>
				<path fill="#FFB27D" d="M960.2,984.4c0,0,3.7-8.7-4.2-12c-10.1-4.2-26.7,0.2-20.4,2.9c5.6,2.5,14.5,4,14.5,4s-22.5-3.7-21.7,1.3
					c0.8,4.9,20.3,7.8,20.3,7.8s-22.3-1.5-20,2.9c2.3,4.4,19.9,7.2,19.9,7.2s-21.7-2.6-18.9,2.4c2.8,5.1,14.3,4.2,19.2,4.9
					c4.7,0.7,6.6-2.1,7-6.7c0,0,3-4.3,2.5-7.4c-0.2-1.2,1-2.1,1.2-2.9C960,987.4,960.2,984.4,960.2,984.4z"/>
			</g>
		</g>
		<g>
			<path fill="#331832" d="M896.7,942.9c0,0-3.5,7.6,0,9.6c3.5,2,31.1,0.6,32.5,0c1.4-0.6,1.7-8.3,0-9.6
				C927.5,941.6,897.5,940.9,896.7,942.9z"/>
		</g>
	</g>
	<g>
		<g>
			<path fill="#331832" d="M1765.9,1503.8c0,0,0.3,12,8.5,15.3c8.2,3.4,31.8,6.4,22.9,14.1c-5.1,4.4-28.9,1.6-35.7,1.6
				c-6.7,0-13.1,2.9-18.1-1.6c-5.5-4.9,0-29.4,0-29.4s5.8,3,11,2.9C1762.1,1506.5,1765.9,1503.8,1765.9,1503.8z"/>
		</g>
		<g>
			<g>
				<path fill="#FFB27D" d="M1868.4,1060.6c0,0,16.7,1.4,23.2-5c6.5-6.5,9.9-19.6,5-16.4c-4.9,3.1-10,8.9-10,8.9s10.4-12.8,6.3-13.9
					c-4.1-1.1-13,10.1-13,10.1s11.2-16.2,7-16c-4.2,0.2-12.6,12.5-12.6,12.5s9.8-15.5,4.9-15.1c-4.9,0.3-8,12.8-12.1,11.7
					s-17.3-1.6-19.8,6.3L1868.4,1060.6z"/>
			</g>
		</g>
		<g>
			<path fill="#6DA49A" d="M1816.2,1201.9c0,0,7.8,24.9-8.2,120.9c-11.6,69.3-21.4,138.5-28.1,171.9c-2.4,12-12.6,20.7-24.6,21.2
				l-6.5,0.3c-13,0.5-23.6-10.6-22.6-23.8l16.3-226.5l4-74.6L1816.2,1201.9z"/>
		</g>
		<g>
			<path fill="#331832" d="M1684,1211.9c2,8.7,34.5,17.8,73.3,8.6c38.8-9.2,69.1-19,67.1-27.7c-2-8.7-35.6-13-74.4-3.8
				C1711.1,1198.2,1682,1203.2,1684,1211.9z"/>
		</g>
		<g>
			<path fill="#331832" d="M1672.3,1503.8c0,0,0.3,12,8.5,15.3c8.2,3.4,31.8,6.4,22.9,14.1c-5.1,4.4-28.9,1.6-35.7,1.6
				c-6.7,0-13.1,2.9-18.1-1.6c-5.5-4.9,0-29.4,0-29.4s5.8,3,11,2.9C1668.5,1506.5,1672.3,1503.8,1672.3,1503.8z"/>
		</g>
		<g>
			<path fill="#6DA49A" d="M1816.2,1201.9l-72.7,132.8L1687,1501c-3.8,12.1-14.8,20.4-27.3,20.6l-5.5,0.1
				c-12.9,0.2-22.7-11.6-20.4-24.5l55.2-279.8c0.7-3.2,13.1-7.5,16.3-8.3C1735.9,1201.7,1817.9,1190,1816.2,1201.9z"/>
		</g>
		<g>
			<path fill="#020202" d="M1736.7,1357.2l-1.5-0.4l20-75c0.7-2.2,1.4-4.6,2.2-7c3.7-12.5,8.4-28.1,19.9-33l0.6,1.4
				c-10.8,4.6-15.4,19.8-19,32c-0.7,2.5-1.4,4.8-2.2,7L1736.7,1357.2z"/>
		</g>
		<g>
			<path fill="#331832" d="M1768.4,957.2c0,0,0.6-19.2-16.6-19.5c-17.1-0.3-12.2,12.2-15,15.7c-2.8,3.5,5.8,12.4,14.1,13
				C1759.2,967.1,1768.4,957.2,1768.4,957.2z"/>
		</g>
		<g>
			<path fill="#DAEBE8" d="M1814.7,1090.5c9.5-4.3,21.4,14.8,21.4,14.8c0.2,0.1-17.2-79.8-72.4-72.2c-5.9,0.8-32.2,6-37.6,8.2
				c-41.1,16.5-36.8,26.1-37.5,67.9c-0.7,40.1-4.7,99.4-4.6,101c74.8-33.5,140.3-17.5,140.3-17.5
				C1824.9,1133.5,1815.9,1093.5,1814.7,1090.5z"/>
		</g>
		<g>
			<path fill="#FFB27D" d="M1732.4,1038c6.6,7.6,13.9,10,23.5,10c14.5,0,7.8-14.8,7.8-14.8c-3.6-0.1-5.5-1.9-5.8-5.4l-0.4-4.3
				l-0.2-2.2l-0.6-6.9l-0.5-6.2l-2.1-25.3l-6.7,25.8l-1.1,4.4l-3.9,15.1C1741.1,1033,1737.3,1036.7,1732.4,1038
				C1732.4,1038,1732.4,1038,1732.4,1038z"/>
		</g>
		<g>
			<path fill="#331832" d="M1746.3,1013c0,0,4.3,7.5,11,8.2l-0.6-6.9C1752.5,1013.6,1746.3,1013,1746.3,1013z"/>
		</g>
		<g>
			<g>
				<path fill="#331832" d="M1721.7,988.6c0,0,2.3,3.6,2.7,12.5c0.7,12.9,16,13.3,18.3,8.7c0.3-0.6-7.1-20.4-7.1-20.4l-5.2-1.1
					L1721.7,988.6z"/>
			</g>
		</g>
		<g>
			<path fill="#FFB27D" d="M1775.5,979.1c-5.2-15.4-19.6-24.4-32.2-20.1c-12.5,4.2-18.5,20.1-13.3,35.5
				c5.2,15.4,19.6,24.4,32.2,20.1C1774.8,1010.3,1780.7,994.4,1775.5,979.1z"/>
		</g>
		<g>
			<path fill="#331832" d="M1754.5,962.4c-0.3,1.1,8.1,14.2-17.4,26.6c-25.5,12.4-20.4-25.1-1-32.5c28.1-10.7,38.7,6.9,38.3,14.7
				C1774,978.9,1754.5,962.4,1754.5,962.4z"/>
		</g>
		<g>
			<path fill="#331832" d="M1738.5,983.4c0,0-7,15.1,0.7,25.5c0,0-8.7-4.7-9.7-7.2c-1-2.5-2.5-12.3-2.5-12.3L1738.5,983.4z"/>
		</g>
		<g>
			<path fill="#FFB27D" d="M1734.5,997.6c3.4,1.6,7.1,0.6,8.2-2.2s-0.7-6.3-4.1-7.8c-3.4-1.6-7.1-0.6-8.2,2.2
				C1729.3,992.5,1731.1,996,1734.5,997.6z"/>
		</g>
		<g>
			<g>
				<path fill="#080435" d="M1755.1,986.3c0.1-0.1,0.2-0.2,0.2-0.4c0-0.3-0.2-0.6-0.5-0.6c-0.2,0-4.3-0.6-6.2,3.7
					c-0.1,0.3,0,0.6,0.3,0.7c0.3,0.1,0.5,0,0.7-0.3c1.8-2.4,5-3.1,5.1-3.1C1754.9,986.4,1755,986.3,1755.1,986.3z"/>
			</g>
		</g>
		<g>
			<path fill="#080435" d="M1752.9,993.3c0.4,1.2,1.4,2,2.3,1.7c0.9-0.3,1.3-1.5,1-2.7c-0.4-1.2-1.4-2-2.3-1.7
				C1753,990.8,1752.5,992.1,1752.9,993.3z"/>
		</g>
		<g>
			<g>
				<path fill="#080435" d="M1774.4,982.7c0.2,0,0.3-0.1,0.4-0.3c0.1-0.3,0-0.6-0.3-0.7c-0.2-0.1-3.7-2.2-7.1,1.1
					c-0.2,0.2-0.2,0.5,0,0.8s0.5,0.2,0.8,0c2.6-1.5,5.8-1,5.9-0.9C1774.2,982.7,1774.3,982.7,1774.4,982.7z"/>
			</g>
		</g>
		<g>
			<path fill="#080435" d="M1769.7,988.4c-0.1,1.3,0.5,2.4,1.5,2.5c0.9,0.1,1.8-0.9,1.9-2.2c0.1-1.3-0.5-2.4-1.5-2.5
				C1770.7,986.1,1769.9,987.1,1769.7,988.4z"/>
		</g>
		<g opacity="0.3">
			<path fill="#FFFFFF" d="M1741.9,989.4c0.2,7.3,4.6,14.1,9.9,15.1c5.3,1,9.4-4,9.2-11.3c-0.2-7.3-4.6-14.1-9.9-15.1
				C1745.9,977,1741.7,982.1,1741.9,989.4z"/>
		</g>
		<g opacity="0.3">
			<path fill="#FFFFFF" d="M1766,985.8c1,7.1,5.6,13.5,10.3,14.2c4.7,0.8,7.8-4.4,6.8-11.5c-1-7.1-5.6-13.5-10.3-14.2
				C1768,973.6,1765,978.8,1766,985.8z"/>
		</g>
		<g>
			<g>
				<path fill="#68A1BF" d="M1742.3,994.6c0.1,0.4,0.3,0.7,0.4,1c1.3,3.3,3.5,6.1,6.1,7.7c1,0.6,2.1,1.1,3.2,1.3
					c1.1,0.2,2.1,0.2,3.1,0c0.3-0.1,0.5-0.1,0.8-0.2c0.9-0.3,1.7-0.8,2.5-1.4c1.9-1.6,3.2-4,3.7-6.9c0.2-1.2,0.3-2.5,0.3-3.8
					c0-1.4-0.2-2.7-0.5-4c-0.1-0.6-0.3-1.1-0.4-1.6c-1.5-4.8-4.7-8.7-8.4-10.1c-0.5-0.2-0.9-0.3-1.4-0.4c-2.3-0.4-4.5,0.1-6.4,1.7
					c-2.3,1.9-3.7,5.2-4,9c0,0.6,0,1.1,0,1.7c0,0.3,0,0.7,0,1c0.1,1,0.2,1.9,0.4,2.9C1741.8,993.1,1742,993.8,1742.3,994.6z
					 M1759.7,999.9c-0.5,0.9-1.2,1.7-1.9,2.3c-0.7,0.6-1.4,1-2.1,1.2c-1.1,0.4-2.3,0.5-3.5,0.2c-1.2-0.2-2.3-0.7-3.3-1.4
					c-2.5-1.7-4.6-4.7-5.8-8.2l0,0c-0.2-0.5-0.3-1.1-0.5-1.6c-0.1-0.5-0.2-1.1-0.3-1.6c-0.1-0.8-0.2-1.6-0.2-2.5
					c0-0.8,0-1.5,0.1-2.2c0-0.4,0.1-0.8,0.2-1.2c0,0,0,0,0-0.1c0,0,0-0.1,0-0.1c0.1-0.8,0.3-1.5,0.6-2.2c0.6-1.7,1.6-3.1,2.8-4.1
					c0.9-0.7,1.8-1.2,2.9-1.4c0.9-0.2,1.8-0.2,2.7,0c0.4,0.1,0.7,0.2,1.1,0.3c3.6,1.2,6.7,5,8.1,9.7c0.2,0.5,0.3,1.1,0.4,1.7
					c0.3,1.2,0.4,2.4,0.4,3.7c0,1.2-0.1,2.5-0.3,3.6C1760.9,997.4,1760.4,998.7,1759.7,999.9
					C1759.7,999.9,1759.7,999.9,1759.7,999.9z"/>
			</g>
		</g>
		<g>
			<g>
				<path fill="#68A1BF" d="M1766.9,989.9c0.1,0.4,0.3,0.7,0.4,1.1c0.1,0.4,0.3,0.7,0.5,1.1c0.1,0.2,0.2,0.5,0.3,0.7
					c0,0,0,0.1,0,0.1c0.1,0.2,0.2,0.4,0.3,0.6c0,0,0,0,0,0c-0.8-1.7-1.5-3.6-1.8-5.6c-0.1,0-0.2,0-0.3-0.1c0.1,0.4,0.2,0.7,0.3,1.1
					C1766.7,989.2,1766.8,989.5,1766.9,989.9z M1766.9,989.9c0.1,0.4,0.3,0.7,0.4,1.1c0.1,0.4,0.3,0.7,0.5,1.1
					c0.1,0.2,0.2,0.5,0.3,0.7c0,0,0,0.1,0,0.1c0.1,0.2,0.2,0.4,0.3,0.6c0,0,0,0,0,0c-0.8-1.7-1.5-3.6-1.8-5.6c-0.1,0-0.2,0-0.3-0.1
					c0.1,0.4,0.2,0.7,0.3,1.1C1766.7,989.2,1766.8,989.5,1766.9,989.9z M1766.9,989.9c0.1,0.4,0.3,0.7,0.4,1.1
					c0.1,0.4,0.3,0.7,0.5,1.1c0.1,0.2,0.2,0.5,0.3,0.7c0,0,0,0.1,0,0.1c0.1,0.2,0.2,0.4,0.3,0.6c0,0,0,0,0,0
					c-0.8-1.7-1.5-3.6-1.8-5.6c-0.1,0-0.2,0-0.3-0.1c0.1,0.4,0.2,0.7,0.3,1.1C1766.7,989.2,1766.8,989.5,1766.9,989.9z
					 M1766.9,989.9c0.1,0.4,0.3,0.7,0.4,1.1c0.1,0.4,0.3,0.7,0.5,1.1c0.1,0.2,0.2,0.5,0.3,0.7c0,0,0,0.1,0,0.1
					c0.1,0.2,0.2,0.4,0.3,0.6c0,0,0,0,0,0c-0.8-1.7-1.5-3.6-1.8-5.6c-0.1,0-0.2,0-0.3-0.1c0.1,0.4,0.2,0.7,0.3,1.1
					C1766.7,989.2,1766.8,989.5,1766.9,989.9z M1766.9,989.9c0.1,0.4,0.3,0.7,0.4,1.1c0.1,0.4,0.3,0.7,0.5,1.1
					c0.1,0.2,0.2,0.5,0.3,0.7c0,0,0,0.1,0,0.1c0.1,0.2,0.2,0.4,0.3,0.6c0,0,0,0,0,0c-0.8-1.7-1.5-3.6-1.8-5.6c-0.1,0-0.2,0-0.3-0.1
					c0.1,0.4,0.2,0.7,0.3,1.1C1766.7,989.2,1766.8,989.5,1766.9,989.9z M1766.9,989.9c0.1,0.4,0.3,0.7,0.4,1.1
					c0.1,0.4,0.3,0.7,0.5,1.1c0.1,0.2,0.2,0.5,0.3,0.7c0,0,0,0.1,0,0.1c0.1,0.2,0.2,0.4,0.3,0.6c0,0,0,0,0,0
					c-0.8-1.7-1.5-3.6-1.8-5.6c-0.1,0-0.2,0-0.3-0.1c0.1,0.4,0.2,0.7,0.3,1.1C1766.7,989.2,1766.8,989.5,1766.9,989.9z
					 M1766.9,989.9c0.1,0.4,0.3,0.7,0.4,1.1c0.1,0.4,0.3,0.7,0.5,1.1c0.1,0.2,0.2,0.5,0.3,0.7c0,0,0,0.1,0,0.1
					c0.1,0.2,0.2,0.4,0.3,0.6c0,0,0,0,0,0c-0.8-1.7-1.5-3.6-1.8-5.6c-0.1,0-0.2,0-0.3-0.1c0.1,0.4,0.2,0.7,0.3,1.1
					C1766.7,989.2,1766.8,989.5,1766.9,989.9z M1766.9,989.9c0.1,0.4,0.3,0.7,0.4,1.1c0.1,0.4,0.3,0.7,0.5,1.1
					c0.1,0.2,0.2,0.5,0.3,0.7c0,0,0,0.1,0,0.1c0.1,0.2,0.2,0.4,0.3,0.6c0,0,0,0,0,0c-0.8-1.7-1.5-3.6-1.8-5.6c-0.1,0-0.2,0-0.3-0.1
					c0.1,0.4,0.2,0.7,0.3,1.1C1766.7,989.2,1766.8,989.5,1766.9,989.9z M1766.6,991.1c0.8,2.5,2.1,4.7,3.6,6.4l0,0l0,0
					c1.5,1.7,3.2,2.9,5.1,3.2c0.1,0,0.2,0,0.3,0.1c0,0,0,0,0,0c0.9,0.1,1.8,0.1,2.7-0.2c0.7-0.2,1.4-0.6,2-1.2
					c2.5-2.1,3.8-6.2,3.6-10.9c-0.4-7.7-4.8-14.7-9.8-15.7c-0.1,0-0.2,0-0.3-0.1l0,0c-0.4-0.1-0.8-0.1-1.3-0.1
					c-0.6,0-1.1,0.2-1.7,0.4c-0.7,0.2-1.3,0.6-1.9,1.1c-2.5,2.1-3.8,6.2-3.6,10.9c0,0.3,0,0.6,0.1,0.9c0.1,0.6,0.1,1.1,0.2,1.7
					C1765.9,988.8,1766.2,990,1766.6,991.1z M1768.5,993.4c-0.8-1.7-1.5-3.6-1.8-5.6c-0.1-0.6-0.2-1.2-0.2-1.8c0-0.3-0.1-0.7-0.1-1
					c-0.1-2.2,0.1-4.3,0.7-6c0.5-1.7,1.4-3.1,2.5-4c0,0,0.1-0.1,0.1-0.1c0.5-0.5,1.1-0.8,1.7-1c0.5-0.2,1.1-0.3,1.7-0.2
					c0.3,0,0.6,0,0.9,0.1c4.7,0.9,8.8,7.6,9.1,14.9c0,0,0,0.1,0,0.1c0,0,0,0,0,0c0,0,0,0,0,0c0,0,0,0,0,0c0.2,4.4-1.1,8.1-3.3,10
					c-1.1,1-2.5,1.4-3.9,1.2c-0.2,0-0.3,0-0.5-0.1c-0.1,0-0.3-0.1-0.4-0.1c0,0-0.1,0-0.1,0c0,0,0,0,0,0c0,0,0,0,0,0
					c-1.1-0.3-2.2-1-3.2-1.9c-1.2-1.1-2.2-2.5-3.1-4.2C1768.6,993.6,1768.5,993.5,1768.5,993.4z M1766.9,989.9
					c0.1,0.4,0.3,0.7,0.4,1.1c0.1,0.4,0.3,0.7,0.5,1.1c0.1,0.2,0.2,0.5,0.3,0.7c0,0,0,0.1,0,0.1c0.1,0.2,0.2,0.4,0.3,0.6
					c0,0,0,0,0,0c-0.8-1.7-1.5-3.6-1.8-5.6c-0.1,0-0.2,0-0.3-0.1c0.1,0.4,0.2,0.7,0.3,1.1C1766.7,989.2,1766.8,989.5,1766.9,989.9z
					 M1766.9,989.9c0.1,0.4,0.3,0.7,0.4,1.1c0.1,0.4,0.3,0.7,0.5,1.1c0.1,0.2,0.2,0.5,0.3,0.7c0,0,0,0.1,0,0.1
					c0.1,0.2,0.2,0.4,0.3,0.6c0,0,0,0,0,0c-0.8-1.7-1.5-3.6-1.8-5.6c-0.1,0-0.2,0-0.3-0.1c0.1,0.4,0.2,0.7,0.3,1.1
					C1766.7,989.2,1766.8,989.5,1766.9,989.9z M1766.9,989.9c0.1,0.4,0.3,0.7,0.4,1.1c0.1,0.4,0.3,0.7,0.5,1.1
					c0.1,0.2,0.2,0.5,0.3,0.7c0,0,0,0.1,0,0.1c0.1,0.2,0.2,0.4,0.3,0.6c0,0,0,0,0,0c-0.8-1.7-1.5-3.6-1.8-5.6c-0.1,0-0.2,0-0.3-0.1
					c0.1,0.4,0.2,0.7,0.3,1.1C1766.7,989.2,1766.8,989.5,1766.9,989.9z M1766.9,989.9c0.1,0.4,0.3,0.7,0.4,1.1
					c0.1,0.4,0.3,0.7,0.5,1.1c0.1,0.2,0.2,0.5,0.3,0.7c0,0,0,0.1,0,0.1c0.1,0.2,0.2,0.4,0.3,0.6c0,0,0,0,0,0
					c-0.8-1.7-1.5-3.6-1.8-5.6c-0.1,0-0.2,0-0.3-0.1c0.1,0.4,0.2,0.7,0.3,1.1C1766.7,989.2,1766.8,989.5,1766.9,989.9z
					 M1766.9,989.9c0.1,0.4,0.3,0.7,0.4,1.1c0.1,0.4,0.3,0.7,0.5,1.1c0.1,0.2,0.2,0.5,0.3,0.7c0,0,0,0.1,0,0.1
					c0.1,0.2,0.2,0.4,0.3,0.6c0,0,0,0,0,0c-0.8-1.7-1.5-3.6-1.8-5.6c-0.1,0-0.2,0-0.3-0.1c0.1,0.4,0.2,0.7,0.3,1.1
					C1766.7,989.2,1766.8,989.5,1766.9,989.9z M1766.9,989.9c0.1,0.4,0.3,0.7,0.4,1.1c0.1,0.4,0.3,0.7,0.5,1.1
					c0.1,0.2,0.2,0.5,0.3,0.7c0,0,0,0.1,0,0.1c0.1,0.2,0.2,0.4,0.3,0.6c0,0,0,0,0,0c-0.8-1.7-1.5-3.6-1.8-5.6c-0.1,0-0.2,0-0.3-0.1
					c0.1,0.4,0.2,0.7,0.3,1.1C1766.7,989.2,1766.8,989.5,1766.9,989.9z M1766.9,989.9c0.1,0.4,0.3,0.7,0.4,1.1
					c0.1,0.4,0.3,0.7,0.5,1.1c0.1,0.2,0.2,0.5,0.3,0.7c0,0,0,0.1,0,0.1c0.1,0.2,0.2,0.4,0.3,0.6c0,0,0,0,0,0
					c-0.8-1.7-1.5-3.6-1.8-5.6c-0.1,0-0.2,0-0.3-0.1c0.1,0.4,0.2,0.7,0.3,1.1C1766.7,989.2,1766.8,989.5,1766.9,989.9z"/>
			</g>
		</g>
		<g>
			<g>
				<path fill="#331832" d="M1767.3,987.8c0.2-0.1,0.4-0.3,0.5-0.5c0.2-0.4-0.1-0.9-0.5-1.1c-0.1,0-3.5-1.2-7.5,1.3
					c-0.4,0.2-0.5,0.8-0.3,1.2c0.2,0.4,0.8,0.5,1.2,0.3c3.3-2,6-1.1,6.1-1.1C1766.9,987.8,1767.1,987.8,1767.3,987.8z"/>
			</g>
		</g>
		<g>
			<path fill="#331832" d="M1731.5,963.6c0,0-8.3-17.3-23.7-9.8c-15.4,7.5-9,15.4-6.2,20.7c2.1,4,10.9,8.4,18.5,5.2
				C1727.8,976.5,1731.5,963.6,1731.5,963.6z"/>
		</g>
		<g>
			<g>
				<path fill="#331832" d="M1734.1,1023.2c-0.1,0-0.2,0-0.3,0c-0.3-0.1-0.4-0.4-0.3-0.7c0.1-0.2,2.6-5.7,8.5-9.5
					c0.2-0.2,0.6-0.1,0.7,0.2s0.1,0.6-0.2,0.7c-5.7,3.5-8.1,8.9-8.1,9C1734.4,1023.1,1734.3,1023.2,1734.1,1023.2z"/>
			</g>
		</g>
		<g>
			<path fill="#FFFFFF" d="M1732.4,1038l-9.8,1.9c0,0-1.7,5.1,3.1,6.7c4.8,1.6,5.8,1.6,7.3,5.3c1.5,3.7,7.5,3.9,9.6,2.6
				c2.1-1.3,5.8,3.5,9.2,3.5s5.4-6,4.1-10C1755.9,1048,1743.1,1045.8,1732.4,1038z"/>
		</g>
		<g>
			<path fill="#FFFFFF" d="M1763.7,1033.1c0,0,6,14.5-7.8,14.8c0,0,7.2,7.2,12.3,4.3c5.1-2.9,0.2-5.5,2.4-7.4
				c2.2-1.9,4.5-3.3,2.4-5.6c-2.2-2.2-0.8-6.7-0.8-6.7S1768.7,1029.4,1763.7,1033.1z"/>
		</g>
		<g>
			<ellipse fill="#6DA49A" cx="1770.6" cy="1069.2" rx="2.2" ry="2.2"/>
		</g>
		<g>
			<ellipse fill="#6DA49A" cx="1779.7" cy="1138.3" rx="2.2" ry="2.2"/>
		</g>
		<g>
			<ellipse fill="#6DA49A" cx="1779.7" cy="1107" rx="2.2" ry="2.2"/>
		</g>
		<g>
			<g>
				<path fill="#CD614C" d="M1668.8,1262.7l-0.4-21.2c-0.1-2.9-2.3-5.4-5.2-5.9l-16.9-2.8c-2.7-0.4-5.3,0.8-6.6,3.2l-10.8,21.9
					l-4.7-2.3l10.8-22.1c2.3-4.3,7.2-6.7,12-5.9l16.9,2.8c5.3,0.9,9.4,5.4,9.6,10.8l0.4,21.2L1668.8,1262.7z"/>
			</g>
			<g>
				<path fill="#EF8062" d="M1682,1329.2l-79.4-5.6c-5.6-0.4-9.8-5.2-9.5-10.8l3.6-56.3c0.4-5.9,5.7-10.2,11.6-9.4l95.1,13.4
					c6.5,0.9,10.5,7.7,8.1,13.8l-19.4,48.5C1690.6,1326.9,1686.4,1329.5,1682,1329.2z"/>
			</g>
			<g>
				<polygon fill="#CD614C" points="1651.6,1293 1651.4,1293 1595.8,1268.3 1596.3,1267.2 1651.8,1291.8 1708.3,1281.5 
					1708.6,1282.7 				"/>
			</g>
			<g>
				<path fill="#CD614C" d="M1651.8,1297.6L1651.8,1297.6c-1.8-0.3-3-2-2.7-3.8l0.5-3.1c0.3-1.8,2-3,3.8-2.7l0,0
					c1.8,0.3,3,2,2.7,3.8l-0.5,3.1C1655.3,1296.7,1653.6,1297.9,1651.8,1297.6z"/>
			</g>
		</g>
		<g>
			<path fill="#FFB27D" d="M1678.3,1229.5c-1.2-2.4-2.6-6.4-4-10.2c-1.1-3.1-2.2-6-3.3-8c-1-1.9-22.2-2.1-22.2-2.1
				s-3.5,5.7-6.3,15.3c-0.2,0.5-0.4,1.1-0.6,1.8c-1,4.7-3.3,11.1-0.5,13.5c3.1,2.7,5-1.9,5.8-4.5c-0.5,2.3-1.2,6.8,1.1,9.3
				c2.4,2.7,5.2-4.6,6.4-8.3c0,0,0,0,0,0c-0.9,3.3-2,9.8,1,11.5c3.6,2.1,6.4-7.8,7.1-10.1c0.1,0,0.2,0,0.3,0c2.1,14.1,7.7,7,9-3.9
				c2.1,2.3,6.7,6.3,8.2,5.3C1682.1,1237.9,1679.3,1231.3,1678.3,1229.5z"/>
		</g>
		<g>
			<path fill="#DAEBE8" d="M1723.5,1041.6c0,0-56.3,16.2-70.5,90.1c-6.7,34.6-10.2,59.6-8.1,73.4c0.6,3.9,3.7,7.1,7.6,7.8l13.5,2.4
				c4.7,0.8,9.3-2.2,10.3-6.8c5.5-24.2,23.1-94,45.9-115.1L1723.5,1041.6z"/>
		</g>
		<g>
			<g>
				<path fill="#DAEBE8" d="M1845.2,1175.2c-4.7-0.6-9.3-2.2-13.6-4.8c-13.8-8.4-23-26.2-30-57.6c-3.2-14.5-12.5-31.9-12.6-32.1
					l31.1-16.5c0.5,0.9,11.7,21.8,16,41.1c2.4,10.9,3.7-58,9.6-64.5c3.6-4,28.6,21.3,28.6,21.3c2.4,8.8,4.3,66.4,3.9,76.7
					c-0.3,7.3-1.1,13.1-2.7,17.9c-4.1,12.6-12.6,16.5-17.3,17.7C1853.9,1175.4,1849.5,1175.7,1845.2,1175.2z"/>
			</g>
		</g>
		<g>
			<path fill="#331832" d="M1832.2,1140.3c0-0.2-2.4-19.4,4.8-34.5l0.6,0.3c-7.1,14.9-4.8,33.9-4.7,34.1L1832.2,1140.3z"/>
		</g>
		<g>
			<path fill="#331832" d="M1686,1172.3l-0.6-0.2c7.4-27.8,21.8-57.8,21.9-58.1l0.6,0.3C1707.8,1114.5,1693.4,1144.5,1686,1172.3z"
				/>
		</g>
		<g>
			<path fill="#331832" d="M1824.2,1164.2l-0.6,0c0.9-38.5-16.9-92.2-17.1-92.8l0.6-0.2C1807.2,1071.7,1825.1,1125.6,1824.2,1164.2z
				"/>
		</g>
		<g>
			<path fill="#020202" d="M1761,1006.3c-2,0-3.5-0.3-3.5-0.3c-0.1,0-0.2-0.2-0.2-0.3c0-0.1,0.2-0.2,0.3-0.2c0.1,0,9.5,2.1,12.5-4.5
				c0.1-0.1,0.2-0.2,0.4-0.1c0.1,0.1,0.2,0.2,0.1,0.4C1768.6,1005.5,1764.2,1006.3,1761,1006.3z"/>
		</g>
	</g>
	<g>
		<path fill="#EF8062" d="M1751.8,524c-1.4,0-2.8-0.2-4.1-0.8c-6-2.3-9.1-9-6.8-15l95-252c2.3-6,9-9.1,15-6.8c6,2.3,9.1,9,6.8,15
			l-95,252C1760.9,521.1,1756.5,524,1751.8,524z"/>
	</g>
	<g>
		<path fill="#EF8062" d="M1845.1,605.2c-3.7,0-7.4-1.8-9.6-5.1c-3.6-5.3-2.3-12.6,3-16.2L2189.5,343c5.3-3.6,12.6-2.3,16.2,3
			c3.6,5.3,2.3,12.6-3,16.2l-350.9,240.9C1849.7,604.5,1847.4,605.2,1845.1,605.2z"/>
	</g>
	<g>
		<path fill="#EF8062" d="M2035,731.4C2035,731.4,2035,731.4,2035,731.4l-165.2-1.2c-6.4,0-11.6-5.3-11.6-11.7
			c0-6.4,5.3-11.6,11.7-11.6l165.1,1.2c6.4,0,11.6,5.3,11.6,11.7C2046.6,726.3,2041.4,731.4,2035,731.4z"/>
	</g>
</g>
</svg>
