<?xml version="1.0" encoding="utf-8"?>
<!-- Generator: Adobe Illustrator 18.1.1, SVG Export Plug-In . SVG Version: 6.00 Build 0)  -->
<svg version="1.1" id="Layer_1" xmlns="http://www.w3.org/2000/svg" xmlns:xlink="http://www.w3.org/1999/xlink" x="0px" y="0px"
	 viewBox="0 0 3694 893.2" enable-background="new 0 0 3694 893.2" xml:space="preserve">
<g>
	<g>
		<g>
			<g>
				<circle fill="#F69F29" cx="454.3" cy="446.6" r="61.8"/>
				<g>
					<g>
						<g>
							<g>
								<g>
									<g>
										<path fill="#B8D7DD" d="M266.6,217.7L266.6,217.7c0,48.7,60.3,71.6,92.6,35l55.4-62.8c21-23.9,58.3-23.9,79.4,0l55.4,62.8
											c32.3,36.6,92.6,13.8,92.6-35l0,0c0-12.9-4.7-25.4-13.2-35L493.9,29.9c-21-23.9-58.3-23.9-79.4,0L279.8,182.8
											C271.3,192.4,266.6,204.9,266.6,217.7z"/>
									</g>
								</g>
								<path fill="#B8D7DD" d="M428.5,237.7c37-27.5,78.3,13.9,50.8,50.8c-0.2,0.3-0.4,0.5-0.8,0.8c-37,27.5-78.3-13.9-50.8-50.8
									C427.9,238.2,428.2,238,428.5,237.7z"/>
							</g>
							<g>
								<g>
									<g>
										<path fill="#B8D7DD" d="M642,675.5L642,675.5c0-48.7-60.3-71.6-92.6-35l-55.4,62.8c-21,23.9-58.3,23.9-79.4,0l-55.4-62.8
											c-32.3-36.6-92.6-13.8-92.6,35l0,0c0,12.9,4.7,25.4,13.2,35l134.9,152.9c21,23.9,58.3,23.9,79.4,0l134.8-152.8
											C637.3,700.9,642,688.4,642,675.5z"/>
									</g>
								</g>
								<path fill="#B8D7DD" d="M480.1,655.5c-37,27.5-78.3-13.9-50.8-50.8c0.2-0.3,0.4-0.5,0.8-0.8c37-27.5,78.3,13.9,50.8,50.8
									C480.6,655,480.4,655.3,480.1,655.5z"/>
							</g>
						</g>
						<g>
							<g>
								<g>
									<g>
										<path fill="#B8D7DD" d="M225.4,634.3L225.4,634.3c48.7,0,71.6-60.3,35-92.6l-62.8-55.4c-23.9-21-23.9-58.3,0-79.4
											l62.8-55.4c36.6-32.3,13.8-92.6-35-92.6l0,0c-12.9,0-25.4,4.7-35,13.2L37.5,407c-23.9,21-23.9,58.3,0,79.4l152.9,134.7
											C200,629.6,212.5,634.3,225.4,634.3z"/>
									</g>
								</g>
								<path fill="#B8D7DD" d="M245.4,472.4c-27.5-37,13.9-78.3,50.8-50.8c0.3,0.2,0.5,0.4,0.8,0.8c27.5,37-13.9,78.3-50.8,50.8
									C245.9,473,245.6,472.7,245.4,472.4z"/>
							</g>
							<g opacity="0.9">
								<g>
									<g>
										<path fill="#B8D7DD" d="M683.2,258.9L683.2,258.9c-48.7,0-71.6,60.3-35,92.6L711,407c23.9,21,23.9,58.3,0,79.4l-62.8,55.4
											c-36.6,32.3-13.8,92.6,35,92.6l0,0c12.9,0,25.4-4.7,35-13.2L871,486.4c23.9-21,23.9-58.3,0-79.4L718.2,272.1
											C708.5,263.6,696,258.9,683.2,258.9z"/>
									</g>
								</g>
								<path fill="#B8D7DD" d="M663.2,420.8c27.5,37-13.9,78.3-50.8,50.8c-0.3-0.2-0.5-0.4-0.8-0.8c-27.5-37,13.9-78.3,50.8-50.8
									C662.7,420.3,662.9,420.5,663.2,420.8z"/>
							</g>
						</g>
					</g>
				</g>
			</g>
		</g>
		<g>
			<path fill="#F69F2A" d="M1327.1,611.3h-70.4V421.8c0-20.5,0.9-43.1,2.6-67.8h-1.8c-3.7,19.4-7,33.5-10,42l-74.2,215.3H1115
				l-75.5-213.1c-2.1-5.8-5.4-20.5-10-44.2h-2c1.9,31.2,2.9,58.6,2.9,82.2v175.1h-64.3V294.5h104.5l64.8,187.7
				c5.1,15,8.9,30.1,11.2,45.2h1.3c4-17.5,8.2-32.7,12.6-45.7l64.8-187.2h101.8L1327.1,611.3L1327.1,611.3z"/>
			<path fill="#F69F2A" d="M1595.5,518H1448c2.3,32.8,23,49.3,62.1,49.3c24.9,0,46.8-5.8,65.6-17.6v50.4
				c-20.9,11.2-48.1,16.8-81.5,16.8c-36.5,0-64.8-10.2-85-30.4c-20.1-20.2-30.2-48.5-30.2-84.7c0-37.5,10.9-67.3,32.6-89.2
				c21.8-21.9,48.6-32.9,80.4-32.9c33,0,58.5,9.8,76.5,29.4c18.1,19.6,27.1,46.1,27.1,79.8L1595.5,518L1595.5,518z M1530.8,475.2
				c0-32.4-13.1-48.6-39.3-48.6c-11.2,0-20.9,4.7-29,13.9c-8.2,9.3-13.1,20.9-14.9,34.7L1530.8,475.2L1530.8,475.2z"/>
			<path fill="#F69F2A" d="M1996.1,611.3h-69.6v-129c0-32.8-12.1-49.3-36.2-49.3c-11.5,0-20.9,4.9-28.1,14.8s-10.8,22.1-10.8,36.9
				v126.5h-69.8V481c0-31.9-11.9-47.9-35.5-47.9c-12,0-21.5,4.7-28.6,14.1c-7.1,9.4-10.7,22.2-10.7,38.4v125.6H1637V385.1h69.8v35.3
				h0.9c7.2-12.1,17.4-21.9,30.4-29.5c13-7.6,27.3-11.3,42.7-11.3c31.9,0,53.8,14,65.6,42.2c17.3-28.1,42.5-42.2,76-42.2
				c49.2,0,73.7,30.3,73.7,91V611.3z"/>
			<path fill="#F69F2A" d="M2122,585h-0.9v26.3h-69.8V276.5h69.8v142.6h0.9c17.3-26.4,41.7-39.6,73.6-39.6c29.1,0,51.6,10,67.4,30
				c15.7,20.1,23.7,47.4,23.7,82.2c0,37.7-9.2,68-27.6,90.7c-18.4,22.8-43,34.3-73.7,34.3C2157.4,616.8,2136.3,606.2,2122,585z
				 M2120,489.6v23.2c0,14.6,4.2,26.6,12.6,36.2c8.4,9.5,19.2,14.4,32.3,14.4c15.9,0,28.2-6.1,37-18.4c8.7-12.3,13.1-29.7,13.1-52.3
				c0-18.7-4-33.3-12.1-43.8c-8-10.5-19.5-15.8-34.4-15.8c-14,0-25.5,5.2-34.8,15.6C2124.7,459.2,2120,472.8,2120,489.6z"/>
			<path fill="#F69F2A" d="M2535,518h-147.5c2.3,32.8,23,49.3,62.1,49.3c24.9,0,46.8-5.8,65.6-17.6v50.4
				c-20.9,11.2-48.1,16.8-81.5,16.8c-36.5,0-64.8-10.2-85-30.4c-20.1-20.2-30.2-48.5-30.2-84.7c0-37.5,10.9-67.3,32.6-89.2
				c21.8-21.9,48.6-32.9,80.4-32.9c33,0,58.5,9.8,76.5,29.4c18.1,19.6,27.1,46.1,27.1,79.8L2535,518L2535,518z M2470.3,475.2
				c0-32.4-13.1-48.6-39.3-48.6c-11.2,0-20.9,4.7-29,13.9c-8.2,9.3-13.1,20.9-14.9,34.7L2470.3,475.2L2470.3,475.2z"/>
			<path fill="#F69F2A" d="M2724.1,448.1c-8.4-4.6-18.2-6.8-29.4-6.8c-15.2,0-27,5.6-35.5,16.6c-8.5,11.2-12.8,26.3-12.8,45.4v108
				h-69.8V385.1h69.8v42h0.9c11.1-30.6,30.9-46,59.6-46c7.4,0,13.1,0.9,17.3,2.6L2724.1,448.1L2724.1,448.1z"/>
			<path fill="#B8D7DD" d="M2990.5,600.1c-23.1,11.2-53.3,16.8-90.6,16.8c-48.6,0-86.8-14.3-114.7-42.8
				c-27.8-28.6-41.7-66.6-41.7-114.2c0-50.6,15.6-91.7,46.9-123.2c31.3-31.5,71.9-47.3,121.8-47.3c30.9,0,57,3.9,78.2,11.7v68.7
				c-21.2-12.7-45.3-19-72.4-19c-29.8,0-53.8,9.4-72,28.1c-18.3,18.7-27.4,44.1-27.4,76c0,30.7,8.6,55,25.8,73.2
				c17.3,18.2,40.4,27.3,69.6,27.3c27.8,0,53.3-6.7,76.4-20.3L2990.5,600.1L2990.5,600.1z"/>
			<path fill="#B8D7DD" d="M3146.6,616.8c-37.7,0-67.4-10.5-88.9-31.7c-21.6-21.1-32.4-49.8-32.4-86.1c0-37.4,11.2-66.6,33.5-87.8
				c22.4-21.1,52.6-31.7,90.7-31.7c37.5,0,67,10.5,88.3,31.7c21.3,21.1,32,49.1,32,83.8c0,37.5-11,67.2-33,89
				C3215,605.9,3184.8,616.8,3146.6,616.8z M3148.3,433c-16.5,0-29.3,5.7-38.4,17c-9.2,11.3-13.7,27.4-13.7,48.1
				c0,43.4,17.5,65.1,52.5,65.1c33.5,0,50.1-22.3,50.1-66.9C3198.9,454.2,3182,433,3148.3,433z"/>
			<path fill="#B8D7DD" d="M3674.4,611.3h-69.6v-129c0-32.8-12.1-49.3-36.2-49.3c-11.5,0-20.9,4.9-28.1,14.8s-10.8,22.1-10.8,36.9
				v126.5h-69.8V481c0-31.9-11.9-47.9-35.5-47.9c-12,0-21.5,4.7-28.6,14.1c-7.1,9.4-10.7,22.2-10.7,38.4v125.6h-69.8V385.1h69.8
				v35.3h0.9c7.2-12.1,17.4-21.9,30.4-29.5c13-7.6,27.3-11.3,42.7-11.3c31.9,0,53.8,14,65.6,42.2c17.3-28.1,42.5-42.2,76-42.2
				c49.2,0,73.7,30.3,73.7,91V611.3z"/>
		</g>
	</g>
</g>
</svg>
