<?xml version="1.0" encoding="utf-8"?>
<!-- Generator: Adobe Illustrator 18.1.1, SVG Export Plug-In . SVG Version: 6.00 Build 0)  -->
<svg version="1.1" id="Layer_1" xmlns="http://www.w3.org/2000/svg" xmlns:xlink="http://www.w3.org/1999/xlink" x="0px" y="0px"
	 viewBox="0 0 1768 536" enable-background="new 0 0 1768 536" xml:space="preserve">
<g>
	<g>
		<g>
			<g>
				<circle fill="#1D0F2E" cx="269.6" cy="268" r="35.7"/>
			</g>
			<g>
				<g>
					<g>
						<g>
							<g>
								<g>
									<path fill="#37315C" d="M161.3,135.9L161.3,135.9c0,28.1,34.8,41.3,53.4,20.2l32-36.2c12.2-13.8,33.6-13.8,45.8,0l32,36.2
										c18.6,21.1,53.4,7.9,53.4-20.2l0,0c0-7.4-2.7-14.6-7.6-20.2l-77.8-88.2c-12.2-13.8-33.6-13.8-45.8,0L169,115.7
										C164,121.3,161.3,128.5,161.3,135.9z"/>
								</g>
							</g>
							<path fill="#37315C" d="M255,147.3c21.2-15.5,44.7,8.1,29.2,29.2c-0.2,0.3-0.5,0.6-0.9,0.9c-21.2,15.5-44.7-8.1-29.2-29.2
								C254.4,147.9,254.7,147.5,255,147.3z"/>
						</g>
						<g>
							<g>
								<g>
									<path fill="#37315C" d="M378,400.1L378,400.1c0-28.1-34.8-41.3-53.4-20.2l-32,36.2c-12.2,13.8-33.6,13.8-45.8,0l-32-36.2
										c-18.6-21.1-53.4-7.9-53.4,20.2l0,0c0,7.4,2.7,14.6,7.6,20.2l77.8,88.2c12.2,13.8,33.6,13.8,45.8,0l77.8-88.2
										C375.2,414.7,378,407.5,378,400.1z"/>
								</g>
							</g>
							<path fill="#37315C" d="M284.3,388.7c-21.2,15.5-44.7-8.1-29.2-29.2c0.2-0.3,0.5-0.6,0.9-0.9c21.2-15.5,44.7,8.1,29.2,29.2
								C284.9,388.1,284.6,388.5,284.3,388.7z"/>
						</g>
					</g>
					<g>
						<g>
							<g>
								<g>
									<path fill="#37315C" d="M137.6,376.3L137.6,376.3c28.1,0,41.3-34.8,20.2-53.4l-36.2-32c-13.8-12.2-13.8-33.6,0-45.8
										l36.2-32c21.1-18.6,7.9-53.4-20.2-53.4l0,0c-7.4,0-14.6,2.7-20.2,7.6l-88.2,77.8c-13.8,12.2-13.8,33.6,0,45.8l88.2,77.8
										C123,373.6,130.1,376.3,137.6,376.3z"/>
								</g>
							</g>
							<path fill="#37315C" d="M148.9,282.6c-15.5-21.2,8.1-44.7,29.2-29.2c0.3,0.2,0.6,0.5,0.9,0.9c15.5,21.2-8.1,44.7-29.2,29.2
								C149.5,283.3,149.2,283,148.9,282.6z"/>
						</g>
						<g opacity="0.9">
							<g>
								<g>
									<path fill="#37315C" d="M401.7,159.7L401.7,159.7c-28.1,0-41.3,34.8-20.2,53.4l36.2,32c13.8,12.2,13.8,33.6,0,45.8
										l-36.2,32c-21.1,18.6-7.9,53.4,20.2,53.4l0,0c7.4,0,14.6-2.7,20.2-7.6l88.2-77.8c13.8-12.2,13.8-33.6,0-45.8l-88.2-77.8
										C416.3,162.4,409.1,159.7,401.7,159.7z"/>
								</g>
							</g>
							<path fill="#37315C" d="M390.3,253.4c15.5,21.2-8.1,44.7-29.2,29.2c-0.3-0.2-0.6-0.5-0.9-0.9c-15.5-21.2,8.1-44.7,29.2-29.2
								C389.8,252.7,390.1,253,390.3,253.4z"/>
						</g>
					</g>
				</g>
			</g>
		</g>
	</g>
	<g>
		<g>
			<g>
				<g>
					<path fill="#180B29" d="M751.3,338h-29.9v-80.6c0-8.7,0.4-18.3,1.1-28.8h-0.8c-1.6,8.3-3,14.2-4.2,17.8L686,338h-24.8
						l-32.1-90.6c-0.9-2.4-2.3-8.7-4.2-18.8H624c0.8,13.3,1.2,24.9,1.2,34.9V338h-27.3V203.4h44.4l27.5,79.8
						c2.2,6.4,3.8,12.8,4.8,19.2h0.6c1.7-7.4,3.5-13.9,5.4-19.4l27.5-79.6h43.3V338z"/>
				</g>
			</g>
			<g>
				<g>
					<path fill="#180B29" d="M865.4,298.4h-62.7c1,14,9.8,20.9,26.4,20.9c10.6,0,19.9-2.5,27.9-7.5v21.4c-8.9,4.8-20.4,7.1-34.6,7.1
						c-15.5,0-27.6-4.3-36.1-12.9c-8.6-8.6-12.9-20.6-12.9-36c0-16,4.6-28.6,13.9-37.9c9.3-9.3,20.7-14,34.2-14
						c14,0,24.9,4.2,32.5,12.5c7.7,8.3,11.5,19.6,11.5,33.9V298.4z M837.9,280.2c0-13.8-5.6-20.7-16.7-20.7c-4.8,0-8.9,2-12.3,5.9
						c-3.5,3.9-5.6,8.9-6.3,14.7H837.9z"/>
				</g>
			</g>
			<g>
				<g>
					<path fill="#180B29" d="M1035.7,338h-29.6v-54.8c0-14-5.1-20.9-15.4-20.9c-4.9,0-8.9,2.1-11.9,6.3c-3.1,4.2-4.6,9.4-4.6,15.7
						V338h-29.7v-55.4c0-13.6-5-20.4-15.1-20.4c-5.1,0-9.1,2-12.2,6c-3,4-4.6,9.5-4.6,16.3V338H883v-96.1h29.7v15h0.4
						c3.1-5.1,7.4-9.3,12.9-12.5c5.5-3.2,11.6-4.8,18.2-4.8c13.6,0,22.9,6,27.9,17.9c7.3-12,18.1-17.9,32.3-17.9
						c20.9,0,31.4,12.9,31.4,38.7V338z"/>
				</g>
			</g>
			<g>
				<g>
					<path fill="#180B29" d="M1089.2,326.8h-0.4V338h-29.7V195.7h29.7v60.7h0.4c7.3-11.2,17.7-16.8,31.3-16.8
						c12.4,0,21.9,4.3,28.6,12.8c6.7,8.5,10,20.2,10,34.9c0,16-3.9,28.9-11.7,38.6c-7.8,9.7-18.3,14.6-31.4,14.6
						C1104.2,340.3,1095.3,335.8,1089.2,326.8z M1088.4,286.3v9.9c0,6.2,1.8,11.3,5.4,15.4c3.6,4.1,8.1,6.1,13.7,6.1
						c6.8,0,12-2.6,15.7-7.8c3.7-5.2,5.6-12.6,5.6-22.2c0-7.9-1.7-14.2-5.1-18.6c-3.4-4.5-8.3-6.7-14.6-6.7
						c-5.9,0-10.9,2.2-14.8,6.7C1090.3,273.3,1088.4,279.1,1088.4,286.3z"/>
				</g>
			</g>
			<g>
				<g>
					<path fill="#180B29" d="M1264.8,298.4h-62.7c1,14,9.8,20.9,26.4,20.9c10.6,0,19.9-2.5,27.9-7.5v21.4
						c-8.9,4.8-20.4,7.1-34.6,7.1c-15.5,0-27.6-4.3-36.1-12.9c-8.6-8.6-12.9-20.6-12.9-36c0-16,4.6-28.6,13.9-37.9
						c9.3-9.3,20.7-14,34.2-14c14,0,24.9,4.2,32.5,12.5c7.7,8.3,11.5,19.6,11.5,33.9V298.4z M1237.3,280.2
						c0-13.8-5.6-20.7-16.7-20.7c-4.8,0-8.9,2-12.3,5.9c-3.5,3.9-5.6,8.9-6.3,14.7H1237.3z"/>
				</g>
			</g>
			<g>
				<g>
					<path fill="#180B29" d="M1345.1,268.6c-3.6-1.9-7.7-2.9-12.5-2.9c-6.4,0-11.5,2.4-15.1,7.1c-3.6,4.7-5.4,11.2-5.4,19.3V338
						h-29.7v-96.1h29.7v17.8h0.4c4.7-13,13.1-19.5,25.3-19.5c3.1,0,5.6,0.4,7.3,1.1V268.6z"/>
				</g>
			</g>
			<path fill="#37315C" d="M1458.4,333.2c-9.8,4.8-22.7,7.1-38.5,7.1c-20.7,0-36.9-6.1-48.7-18.2c-11.8-12.1-17.7-28.3-17.7-48.5
				c0-21.5,6.7-39,20-52.4c13.3-13.4,30.6-20.1,51.8-20.1c13.1,0,24.2,1.7,33.2,5v29.2c-9-5.4-19.3-8.1-30.8-8.1
				c-12.6,0-22.8,4-30.6,11.9c-7.8,7.9-11.6,18.7-11.6,32.3c0,13,3.7,23.4,11,31.1c7.3,7.7,17.2,11.6,29.6,11.6
				c11.8,0,22.7-2.9,32.5-8.6V333.2z"/>
			<path fill="#37315C" d="M1524.7,340.3c-16,0-28.6-4.5-37.8-13.5c-9.2-9-13.8-21.2-13.8-36.6c0-15.9,4.8-28.3,14.3-37.3
				c9.5-9,22.4-13.5,38.6-13.5c16,0,28.5,4.5,37.6,13.5c9.1,9,13.6,20.9,13.6,35.6c0,16-4.7,28.6-14,37.8
				C1553.8,335.7,1541,340.3,1524.7,340.3z M1525.5,262.2c-7,0-12.5,2.4-16.3,7.2c-3.9,4.8-5.8,11.6-5.8,20.5
				c0,18.5,7.4,27.7,22.3,27.7c14.2,0,21.3-9.5,21.3-28.4C1547,271.2,1539.8,262.2,1525.5,262.2z"/>
			<path fill="#37315C" d="M1749.1,338h-29.6v-54.8c0-14-5.1-20.9-15.4-20.9c-4.9,0-8.9,2.1-11.9,6.3c-3.1,4.2-4.6,9.4-4.6,15.7V338
				H1658v-55.4c0-13.6-5-20.4-15.1-20.4c-5.1,0-9.1,2-12.2,6c-3,4-4.6,9.5-4.6,16.3V338h-29.7v-96.1h29.7v15h0.4
				c3.1-5.1,7.4-9.3,12.9-12.5c5.5-3.2,11.6-4.8,18.2-4.8c13.6,0,22.9,6,27.9,17.9c7.3-12,18.1-17.9,32.3-17.9
				c20.9,0,31.4,12.9,31.4,38.7V338z"/>
		</g>
	</g>
</g>
</svg>
