<?xml version="1.0" encoding="utf-8"?>
<!-- Generator: Adobe Illustrator 18.1.1, SVG Export Plug-In . SVG Version: 6.00 Build 0)  -->
<svg version="1.1" xmlns="http://www.w3.org/2000/svg" xmlns:xlink="http://www.w3.org/1999/xlink" x="0px" y="0px"
	 viewBox="0 0 620 400" enable-background="new 0 0 620 400" xml:space="preserve">
<g id="_x30_">
</g>
<g id="bg">
</g>
<g id="men">
</g>
<g id="_x31_">
</g>
<g id="_x32_">
</g>
<g id="_x33_">
</g>
<g id="_x34_">
</g>
<g id="chat">
	<g>
		<path fill="#F3F0EB" d="M405.8,134.1c-2.8,0.1-5.5,0.2-8.3,0.3c-15.2-18.8-35-35.7-58.1-49.7C256.4,35.9,159.6,34.5,97.3,96.9
			c-30,31.4-39.6,74.5-27.2,114.8c11.8,40.4,45.6,77.9,90.3,102c57.6,30.9,117.2,36.4,167.7,22.7c21.3,9.6,45.5,15.7,71.8,16.9
			c76.4,4.5,154.5-39.6,159.9-106.2C564,180.4,488.6,131.6,405.8,134.1z"/>
		
			<ellipse transform="matrix(0.9281 0.3724 -0.3724 0.9281 61.1766 -150.3533)" fill="#F3F0EB" cx="419.8" cy="83.2" rx="51.4" ry="31.5"/>
		
			<ellipse transform="matrix(0.9468 0.3217 -0.3217 0.9468 105.1001 -14.3878)" fill="#F3F0EB" cx="96.1" cy="310.8" rx="35.9" ry="14.4"/>
		
			<ellipse transform="matrix(0.9468 0.3217 -0.3217 0.9468 123.9167 -145.5984)" fill="#F3F0EB" cx="502.5" cy="302.2" rx="46.5" ry="27.4"/>
		<g>
			<defs>
				<rect id="SVGID_1_" x="158.4" y="103.4" width="286.6" height="258.9"/>
			</defs>
			<clipPath id="SVGID_2_">
				<use xlink:href="#SVGID_1_"  overflow="visible"/>
			</clipPath>
			<path clip-path="url(#SVGID_2_)" fill="#C1272D" d="M380.6,256.7c0.2,0.3-5.3,12.1-5.5,14.3c-3.8,48.8-4.6,111.8-15.3,122.5
				l-105.6-0.2c-12.4-2.9-18.6-73.2-22.5-121.8l0-0.6c-0.2-2.1-0.1-4.3,0.1-6.3c1.4-12.5,9.8-23.5,22-27.8
				c5.5-1.9,11.2-3.5,16.9-4.8c2.5-0.6,5-1,7.6-1.5c0.3-0.1,0.7-0.1,1-0.2c6.1-1,12.2-1.6,18.3-1.8c7.6-0.3,15.2,0,22.8,0.8
				c5.7,0.6,11.4,1.6,17,2.9c5.3,1.2,10.5,2.7,15.6,4.5C363.5,240.6,375.2,245.5,380.6,256.7z"/>
			<path clip-path="url(#SVGID_2_)" fill="#FFFFFF" d="M337.4,232.5c-3.6,9.1-15.4,15.8-29.3,15.8c-14.8,0-27.1-7.6-29.9-17.6
				c0.3-0.1,0.7-0.1,1-0.2c6.1-1,12.2-1.6,18.3-1.8c7.6-0.3,15.2,0,22.8,0.8C326.2,230.2,331.8,231.2,337.4,232.5z"/>
			<g clip-path="url(#SVGID_2_)">
				<path fill="#322924" d="M359.8,319.8c-0.1,0-0.1,0-0.2,0c-7.5-3.5-18.9-15-26.4-22.6c-3-3.1-5.9-5.9-6.4-6.1
					c-0.2-0.1-0.3-0.2-0.3-0.4c0-0.2,0.2-0.3,0.4-0.3c0.6,0.1,2.5,2,6.8,6.3c7.1,7.1,18.9,19,26.2,22.4c0.2,0.1,0.3,0.3,0.2,0.5
					C360,319.7,359.9,319.8,359.8,319.8z"/>
			</g>
			<g clip-path="url(#SVGID_2_)">
				<path fill="#322924" d="M358.3,370.7c-0.1,0-0.2-0.1-0.3-0.2c-5.9-9.5-26.6-15.7-34.5-18c-1.9-0.6-2.9-0.9-3.2-1
					c-0.2-0.1-0.2-0.3-0.1-0.5c0.1-0.2,0.3-0.2,0.5-0.1c0.3,0.1,1.5,0.5,3.1,1c7.9,2.4,28.8,8.7,34.9,18.4c0.1,0.2,0.1,0.4-0.1,0.5
					C358.4,370.7,358.3,370.7,358.3,370.7z"/>
			</g>
			<g clip-path="url(#SVGID_2_)">
				<path fill="#322924" d="M277.2,346.1c-0.1,0-0.1,0-0.2-0.1c-0.2-0.1-0.2-0.3-0.1-0.5c6.7-9.8,31-23.5,32-24
					c0.2-0.1,0.4,0,0.5,0.1c0.1,0.2,0,0.4-0.1,0.5c-1,0.6-25.2,14.2-31.8,23.8C277.4,346,277.3,346.1,277.2,346.1z"/>
			</g>
			<g clip-path="url(#SVGID_2_)">
				<path fill="#322924" d="M268.7,313.2c-0.1,0-0.3-0.1-0.3-0.2c-0.1-0.2,0-0.4,0.2-0.5c0.2-0.1,21.2-8.2,36.5-9.6
					c0.2,0,0.4,0.1,0.4,0.3c0,0.2-0.1,0.4-0.3,0.4c-15.2,1.3-36.1,9.4-36.3,9.5C268.8,313.2,268.7,313.2,268.7,313.2z"/>
			</g>
			<polygon clip-path="url(#SVGID_2_)" fill="#322924" points="258.7,284.7 258,343.3 241.2,311.7 			"/>
			<path clip-path="url(#SVGID_2_)" fill="#C1272D" d="M260.2,282.3c-0.6,12.2-16.5,49-16.5,49l-15.8,28.5l-33.7-7.9
				c-0.4-6.1,0.3-11.8,1.9-16.8l1.8-4.5c11.9-30.5,38.9-79.9,38.9-79.9S260.6,272.7,260.2,282.3z"/>
			<path clip-path="url(#SVGID_2_)" fill="#783C24" d="M286.1,188.6c-0.4-0.1-3.2-3.5-5-11.3c-1.9-7.1-2.7-18.7-2.9-18.7
				c4,1.3,7.6,3.4,10.4,6.1c1.6,6,3.3,12.1,4.9,18.1C290.8,184.5,288.3,186.4,286.1,188.6z"/>
			<path clip-path="url(#SVGID_2_)" fill="#FDA78A" d="M291.4,188.2v47.6c1.5,2.4,8.3,4.2,16.4,4.2c8.3,0,15.1-1.8,16.5-4.3v-47.5
				H291.4z"/>
			<path clip-path="url(#SVGID_2_)" fill="#322924" d="M291.4,210.6v14c12.1,0,26.9-6.8,26.9-6.8l-21.4-5.4L291.4,210.6z"/>
			<path clip-path="url(#SVGID_2_)" fill="#FDA78A" d="M304.2,219.7h6.5c8.5,0,15.8-6.8,16.3-15.6l2.5-45.6h-44.2l2.5,45.6
				C288.3,212.9,295.6,219.7,304.2,219.7z"/>
			<path clip-path="url(#SVGID_2_)" fill="#783C24" d="M324.4,188.2h6.1l0.2-27c0-3.4-3-6.2-6.5-6.2h-4.9
				C323.8,156.6,324.4,188.2,324.4,188.2z"/>
			<g clip-path="url(#SVGID_2_)">
				<path fill="#322924" d="M328,190.5c-0.2,0-0.4-0.2-0.4-0.4c0,0,0-0.2,0.1-0.4c1.1-6.3,1.6-12.3,1.5-17.4c0-0.2,0.2-0.4,0.3-0.4
					c0.2,0,0.4,0.2,0.4,0.4c0.1,5.1-0.4,11.2-1.5,17.5c0,0.2-0.1,0.3-0.1,0.3C328.3,190.4,328.2,190.5,328,190.5z"/>
			</g>
			<g clip-path="url(#SVGID_2_)">
				<path fill="#322924" d="M325.8,190.9C325.8,190.9,325.8,190.9,325.8,190.9c-0.2,0-0.4-0.2-0.4-0.4c0,0,0-0.1,0-0.3
					c0.6-4.9,0.8-9.6,0.8-12.7c0-0.2,0.2-0.4,0.4-0.4c0.2,0,0.4,0.2,0.4,0.4c0,3.1-0.1,7.8-0.8,12.8c0,0.1,0,0.2,0,0.3
					C326.2,190.8,326,190.9,325.8,190.9z"/>
			</g>
			<path clip-path="url(#SVGID_2_)" fill="#FDA78A" d="M323.1,192c-0.2,4.4,1.2,8.4,3.7,9c3.2,0.7,6-2.9,6.2-7.3
				c0.2-4.4-0.7-7.5-3.2-8.1C326.6,184.6,323.3,187.6,323.1,192z"/>
			
				<ellipse transform="matrix(0.9482 -0.3176 0.3176 0.9482 -46.5653 101.1187)" clip-path="url(#SVGID_2_)" fill="#FDA78A" cx="286.9" cy="193.4" rx="4.6" ry="7.9"/>
			<path clip-path="url(#SVGID_2_)" fill="#C1272D" d="M290.6,319.5L298,348c0,0,2.6,15.6-26.3,14.8c0,0-74.1-0.1-74,0c0,0,0,0,0,0
				c-4.1-3.8-6.1-9.2-6.1-14.1c0-14.9,11.5-22.9,22.4-25.4c1.1-0.3,47.1-12.2,47.1-12.2C275.6,308.7,288,310.3,290.6,319.5z"/>
			<g clip-path="url(#SVGID_2_)">
				<path fill="#322924" d="M196,334.5c0,0-0.1,0-0.1,0c-0.2-0.1-0.3-0.3-0.2-0.5c2-5.6,14.7-11.2,37.9-16.7
					c4.8-1.1,9.1-2.2,12.9-3.1c21.6-5.3,28.8-7.1,38.6-2.3c8.5,4.2,7.9,15.7,7.9,15.9c0,0.2-0.2,0.3-0.4,0.3c-0.2,0-0.3-0.2-0.3-0.4
					c0-0.1,0.5-11.2-7.5-15.2c-9.5-4.7-16.7-2.9-38.1,2.3c-3.8,0.9-8.1,2-12.9,3.1c-22.6,5.4-35.6,11-37.4,16.3
					C196.3,334.4,196.2,334.5,196,334.5z"/>
			</g>
			<path clip-path="url(#SVGID_2_)" fill="#72293E" d="M300,312.1l9.2,33l-14.5,3.6l-1.6,0.4c-2.7,0.1-5.6-3.1-7.8-7.9
				c-1-2.3-1.9-4.9-2.5-7.8c-1.6-7.8-0.6-14.8,2.1-17.5l3.8-1L300,312.1z"/>
			<path clip-path="url(#SVGID_2_)" fill="#322924" d="M301.9,312.6c3.4,1.6,7.3,6.6,9.9,13.1c2,5,2.8,9.8,2.4,13.4
				c-0.3,2.9-1.3,5-3.1,5.7c-2.7,1.1-6.5-1.5-9.7-6.2c-1.4-2.1-2.7-4.5-3.8-7.2c-3-7.6-3.3-14.9-0.9-17.9l0,0
				c0.4-0.5,0.9-0.9,1.5-1.1C299.3,311.9,300.6,312,301.9,312.6z"/>
			<g clip-path="url(#SVGID_2_)">
				<path fill="#322924" d="M251.9,307.6c-0.1,0-0.2-0.1-0.3-0.1c-1-1.4,0.3-5,2.6-10.8c1.8-4.6,3.8-9.8,4.1-13.6
					c0.1-1.6-0.6-4.1-1.5-5.3l-2.8-3.5c-0.1-0.2-0.1-0.4,0.1-0.5c0.2-0.1,0.4-0.1,0.5,0.1l2.8,3.5c1,1.3,1.8,4,1.7,5.8
					c-0.3,3.9-2.4,9.2-4.2,13.8c-1.7,4.4-3.5,9-2.7,10.2c0.1,0.2,0.1,0.4-0.1,0.5C252,307.6,251.9,307.6,251.9,307.6z"/>
			</g>
			<g clip-path="url(#SVGID_2_)">
				<path fill="#322924" d="M244.4,315.4c-0.1,0-0.3-0.1-0.3-0.2c-3.6-7.5-8.6-13.8-8.7-13.8c-0.1-0.2-0.1-0.4,0.1-0.5
					c0.2-0.1,0.4-0.1,0.5,0.1c0.1,0.1,5.1,6.3,8.7,14c0.1,0.2,0,0.4-0.2,0.5C244.5,315.4,244.5,315.4,244.4,315.4z"/>
			</g>
			<ellipse clip-path="url(#SVGID_2_)" fill="#322924" cx="315.7" cy="188.6" rx="1.6" ry="1.9"/>
			<g clip-path="url(#SVGID_2_)">
				<path fill="#322924" d="M319.7,187.8c-0.1,0-0.3-0.1-0.3-0.2c-0.1-0.1-1.6-3-4.6-2.6c-1,0.1-1.8,0.5-2.4,1
					c-0.1,0.1-0.4,0.1-0.5,0c-0.1-0.1-0.1-0.4,0-0.5c0.7-0.6,1.7-1,2.8-1.2c3.5-0.5,5.3,2.9,5.3,3c0.1,0.2,0,0.4-0.2,0.5
					C319.9,187.8,319.8,187.8,319.7,187.8z"/>
			</g>
			<g clip-path="url(#SVGID_2_)">
				<path fill="#A55330" d="M318.3,190.6H313c-0.2,0-0.4-0.2-0.4-0.4c0-0.2,0.2-0.4,0.4-0.4h5.3c0.2,0,0.4,0.2,0.4,0.4
					C318.7,190.4,318.5,190.6,318.3,190.6z"/>
			</g>
			<ellipse clip-path="url(#SVGID_2_)" fill="#322924" cx="297.5" cy="188.6" rx="1.6" ry="1.9"/>
			<g clip-path="url(#SVGID_2_)">
				<path fill="#322924" d="M301.9,187.8c-0.1,0-0.3-0.1-0.3-0.2c-0.1-0.1-1.6-3-4.6-2.6c-1,0.1-1.7,0.4-2.3,0.9
					c-0.1,0.1-0.4,0.1-0.5,0c-0.1-0.2-0.1-0.4,0-0.5c0.7-0.6,1.6-1,2.7-1.1c3.5-0.5,5.3,2.9,5.3,3c0.1,0.2,0,0.4-0.2,0.5
					C302,187.8,302,187.8,301.9,187.8z"/>
			</g>
			<g clip-path="url(#SVGID_2_)">
				<path fill="#A55330" d="M300.5,190.6h-5.3c-0.2,0-0.4-0.2-0.4-0.4c0-0.2,0.2-0.4,0.4-0.4h5.3c0.2,0,0.4,0.2,0.4,0.4
					C300.8,190.4,300.7,190.6,300.5,190.6z"/>
			</g>
			<path clip-path="url(#SVGID_2_)" fill="#322924" d="M323.3,182.3c-0.8-0.5-1.8-0.9-2.7-1.2c-0.9-0.3-1.9-0.5-2.8-0.6
				c-1-0.1-2.1-0.3-3.2-0.5c-0.6-0.1-1.1-0.2-1.8-0.4c-0.3-0.1-0.7-0.3-1.2-0.6c-0.1-0.1-0.2-0.2-0.4-0.3c-0.1-0.1-0.2-0.3-0.4-0.4
				c-0.2-0.3-0.4-0.7-0.4-1c-0.2-0.9,0.3-1.8,1.1-2c0.9-0.2,1.8,0.3,2,1.1c0-0.2-0.2-0.4-0.2-0.4c0,0,0.2,0,0.4,0
				c0.4,0.1,0.9,0.1,1.4,0.2c1.1,0.2,2.2,0.4,3.3,0.7c1.2,0.3,2.4,0.9,3.4,1.6c1,0.8,1.9,1.6,2.5,2.8c0.2,0.3,0,0.8-0.3,0.9
				c-0.2,0.1-0.5,0.1-0.7,0L323.3,182.3z"/>
			<path clip-path="url(#SVGID_2_)" fill="#322924" d="M287.5,181.6c0.6-1.2,1.5-2.1,2.5-2.8c1-0.7,2.2-1.2,3.4-1.6
				c1.1-0.3,2.2-0.5,3.3-0.6c0.5-0.1,1.1-0.1,1.4-0.2c0.2,0,0.3-0.1,0.4,0c0,0-0.2,0.3-0.2,0.4c0.2-0.9,1.1-1.4,2-1.1
				c0.9,0.2,1.4,1.1,1.1,2c-0.1,0.3-0.2,0.7-0.5,1c-0.1,0.1-0.2,0.3-0.4,0.4c-0.1,0.1-0.2,0.2-0.4,0.3c-0.5,0.3-0.8,0.4-1.2,0.6
				c-0.7,0.2-1.2,0.3-1.8,0.4c-1.1,0.2-2.2,0.3-3.2,0.4c-0.9,0.1-1.9,0.3-2.8,0.6c-0.9,0.3-1.9,0.7-2.7,1.2l-0.1,0.1
				c-0.3,0.2-0.8,0.1-1-0.3C287.3,182,287.4,181.8,287.5,181.6z"/>
			<g clip-path="url(#SVGID_2_)">
				<path fill="#A55330" d="M308.3,197.2c-2,0-3.9-0.3-4-0.3c-0.2,0-0.3-0.2-0.3-0.4l0.7-12.3c0-0.2,0.2-0.3,0.4-0.3
					c0.2,0,0.3,0.2,0.3,0.4l-0.7,11.9c1,0.1,4.3,0.5,6.3,0c0.2-0.1,0.4,0.1,0.4,0.2c0.1,0.2-0.1,0.4-0.2,0.4
					C310.4,197.1,309.3,197.2,308.3,197.2z"/>
			</g>
			<path clip-path="url(#SVGID_2_)" fill="#FFFFFF" d="M314.8,201c0,0-5.5,0.7-10.4,0.4c-4.9-0.3-4.9-0.5-4.9-0.5s1.8,8.6,8.3,8.3
				C314.2,208.9,314.8,201,314.8,201z"/>
			<g clip-path="url(#SVGID_2_)">
				<path fill="#A55330" d="M306,202c-6.4,0-8-1-8-1.1c-0.2-0.1-0.2-0.3-0.1-0.5c0.1-0.2,0.3-0.2,0.5-0.1c0,0,1.6,1,8.1,0.9
					c6.6,0,9.4-1,9.4-1c0.2-0.1,0.4,0,0.5,0.2c0.1,0.2,0,0.4-0.2,0.5c-0.1,0-2.9,1-9.6,1C306.3,202,306.1,202,306,202z"/>
			</g>
			<g clip-path="url(#SVGID_2_)">
				<path fill="#322924" d="M202.9,320.4c0,0-0.1,0-0.1,0c-0.2-0.1-0.3-0.3-0.2-0.4c4.2-13.6,19.5-26.5,21.4-27.1
					c0.2-0.1,0.4,0,0.5,0.2c0.1,0.2,0,0.4-0.2,0.5c-1.7,0.6-16.8,13.6-20.9,26.7C203.2,320.3,203.1,320.4,202.9,320.4z"/>
			</g>
			<polygon clip-path="url(#SVGID_2_)" fill="#322924" points="355.5,284.7 356.2,343.3 372.9,311.7 			"/>
			<path clip-path="url(#SVGID_2_)" fill="#C1272D" d="M354,282.3c0.6,12.2,16.5,49,16.5,49l12,27l37.4-6.5
				c0.4-6.1-0.3-11.8-1.9-16.8l-1.8-4.5c-25.3-60.7-40.6-81.8-38.6-78.1C377.6,252.5,353.5,272.7,354,282.3z"/>
			<path clip-path="url(#SVGID_2_)" fill="#C1272D" d="M323.5,319.5l-7.4,28.5c0,0-2.6,15.6,26.3,14.8c0,0,74.1-0.1,74,0
				c0,0,0,0,0,0c4.1-3.8,6.1-9.2,6.1-14.1c0-14.9-11.5-22.9-22.4-25.4c-1.1-0.3-47.1-12.2-47.1-12.2
				C338.5,308.7,326.1,310.3,323.5,319.5z"/>
			<g clip-path="url(#SVGID_2_)">
				<path fill="#322924" d="M418.1,334.5c-0.1,0-0.3-0.1-0.3-0.2c-1.8-5.3-14.8-10.9-37.4-16.3c-4.8-1.1-9.1-2.2-12.9-3.1
					c-21.4-5.3-28.6-7-38.1-2.3c-8.1,4-7.5,15.1-7.5,15.2c0,0.2-0.1,0.4-0.3,0.4c-0.2,0-0.4-0.1-0.4-0.3c0-0.1-0.6-11.6,7.9-15.9
					c9.7-4.8,17-3,38.6,2.3c3.8,0.9,8.1,2,12.9,3.1c23.2,5.5,36,11.2,37.9,16.7c0.1,0.2,0,0.4-0.2,0.5
					C418.2,334.5,418.2,334.5,418.1,334.5z"/>
			</g>
			<g clip-path="url(#SVGID_2_)">
				<path fill="#322924" d="M369.7,315.4c-0.1,0-0.1,0-0.2,0c-0.2-0.1-0.3-0.3-0.2-0.5c3.7-7.6,8.7-13.9,8.7-14
					c0.1-0.2,0.3-0.2,0.5-0.1c0.2,0.1,0.2,0.3,0.1,0.5c0,0.1-5,6.3-8.7,13.8C370,315.3,369.9,315.4,369.7,315.4z"/>
			</g>
			<g clip-path="url(#SVGID_2_)">
				<path fill="#322924" d="M411.2,320.4c-0.2,0-0.3-0.1-0.3-0.3c-4.1-13.1-19.2-26.1-20.9-26.7c-0.2-0.1-0.3-0.3-0.2-0.5
					c0.1-0.2,0.3-0.3,0.5-0.2c1.9,0.6,17.1,13.6,21.4,27.1c0.1,0.2,0,0.4-0.2,0.4C411.3,320.4,411.3,320.4,411.2,320.4z"/>
			</g>
			<g clip-path="url(#SVGID_2_)">
				<path fill="#322924" d="M360.2,307.5c-0.1,0-0.1,0-0.2-0.1c-0.2-0.1-0.2-0.3-0.1-0.5c0.8-1.1-0.9-5.7-2.6-10.2
					c-1.8-4.6-3.8-9.9-4.1-13.8c-0.1-1.8,0.7-4.5,1.7-5.7l2.8-3.4c0.1-0.2,0.4-0.2,0.5-0.1c0.2,0.1,0.2,0.4,0.1,0.5l-2.8,3.4
					c-0.9,1.1-1.7,3.6-1.6,5.2c0.3,3.8,2.3,9.1,4,13.6c2.2,5.8,3.5,9.5,2.5,10.9C360.4,307.5,360.3,307.5,360.2,307.5z"/>
			</g>
			<path clip-path="url(#SVGID_2_)" fill="#783C24" d="M328.4,151.4c-5.6-5.6-13.6-6.4-25-5.6c-7,0.5-12.9,2.9-17.9-3.9
				c-0.6-0.8-1.1-1.7-1.4-3.1c0-0.2-0.2-0.3-0.4-0.2c-3.1,1.7-5.8,5.4-6.8,9.6c-1.4,0.2-2.6,0.8-3.5,1.8c-2.8,3.1-1.3,9.1,3.5,13.3
				c4.4,4,6.6,3.6,30.3-0.9c12.7-2.5,14.7,1.1,15.8,3.4c1.2,2.6,5.9-0.5,7.7-2.7C330.5,163.1,332,155.1,328.4,151.4z"/>
			<g clip-path="url(#SVGID_2_)">
				<path fill="#322924" d="M288,153c-0.1,0-0.2-0.1-0.3-0.2c-0.2-0.3-4-6.9-12.6-3.8c-0.2,0.1-0.4,0-0.5-0.2
					c-0.1-0.2,0-0.4,0.2-0.5c9.2-3.4,13.4,4,13.4,4.1c0.1,0.2,0,0.4-0.1,0.5C288.1,153,288.1,153,288,153z"/>
			</g>
			<g clip-path="url(#SVGID_2_)">
				<path fill="#322924" d="M284.8,166.4c-6.9,0-9.8-4.1-10.6-5.5c-0.1-0.2-0.1-0.4,0.1-0.5c0.2-0.1,0.4-0.1,0.5,0.1
					c0,0,0,0.1,0.1,0.1c0.9,1.5,4.3,6.3,13.1,4.8c0.2,0,0.4,0.1,0.4,0.3c0,0.2-0.1,0.4-0.3,0.4C286.9,166.3,285.8,166.4,284.8,166.4
					z"/>
			</g>
			<g clip-path="url(#SVGID_2_)">
				<path fill="#322924" d="M298.1,149.6c-7.2,0-10.9-5.2-10.9-5.3c-0.1-0.2-0.1-0.4,0.1-0.5c0.2-0.1,0.4-0.1,0.5,0.1
					c0,0.1,4,5.7,11.8,4.9c0.2,0,0.4,0.1,0.4,0.3c0,0.2-0.1,0.4-0.3,0.4C299.1,149.5,298.6,149.6,298.1,149.6z"/>
			</g>
			<path clip-path="url(#SVGID_2_)" fill="#322924" d="M323.7,174c0.6-6.6,2.5-12.1-0.2-13.2c-2.2-0.9-5.8,0.5-9.5,0.7
				C314.1,161.5,322.8,162.5,323.7,174z"/>
			<path clip-path="url(#SVGID_2_)" fill="#FFFCF7" d="M364.8,281.8H248.6c-1.7,0-2.9,1.4-2.8,3l4.7,69.6c0.1,1.4,1.4,2.6,3,2.6H360
				c1.5,0,2.9-1.1,3-2.6l4.7-69.6C367.8,283.2,366.5,281.8,364.8,281.8z"/>
			<path clip-path="url(#SVGID_2_)" fill="#FFFCF7" d="M361.4,357H254.9c-1.5,0-2.8,1.2-2.8,2.8v0c0,1.5,1.2,2.8,2.8,2.8h106.5
				c1.5,0,2.8-1.2,2.8-2.8v0C364.2,358.3,363,357,361.4,357z"/>
			<g clip-path="url(#SVGID_2_)">
				<path fill="#322924" d="M361.4,357.4H254.9c-0.2,0-0.4-0.2-0.4-0.4c0-0.2,0.2-0.4,0.4-0.4h106.5c0.2,0,0.4,0.2,0.4,0.4
					C361.8,357.2,361.6,357.4,361.4,357.4z"/>
			</g>
			<ellipse clip-path="url(#SVGID_2_)" fill="#322924" cx="307.1" cy="321" rx="6.6" ry="5.6"/>
			<path clip-path="url(#SVGID_2_)" fill="#D1A55A" d="M332.1,448.5h-51.3c-0.8,0-1.5,0-2.3-0.1c-17.5-1.2-30.9-16-29.3-33.1
				l0.8-8.3l1-10.1l0.5-5v0l0-0.2h109.8l0,0.2l0.2,2l1.2,12.2l0.9,9.1C365.4,433.2,350.8,448.5,332.1,448.5z"/>
			<path clip-path="url(#SVGID_2_)" fill="#D1A55A" d="M298.5,448.5l-0.2,0.4L287,470c-0.7-0.2-4.1-12.1-7.1-23.9c0,0,0,0,0,0
				c-3.2-12.9-5.8-25.5-3.4-22.1C289,441.9,298.5,448.5,298.5,448.5z"/>
			<path clip-path="url(#SVGID_2_)" fill="#D1A55A" d="M320.6,471.9l-0.7-1.5l-9.3-20.8l-0.5-1.1c0,0,13.9-6.3,26.1-24.5
				C340.9,416.8,320.6,471.9,320.6,471.9z"/>
			<ellipse clip-path="url(#SVGID_2_)" fill="#D1A55A" cx="306.5" cy="391.9" rx="55" ry="6.1"/>
			<polygon clip-path="url(#SVGID_2_)" fill="#D1A55A" points="237.8,415.9 250.9,406.2 260.2,416.4 			"/>
			<polygon clip-path="url(#SVGID_2_)" fill="#D1A55A" points="375.8,423.3 362.7,405.2 354.5,416.4 			"/>
			<g clip-path="url(#SVGID_2_)">
				<path fill="#694532" d="M307.3,426.3c-6,0-10.9-4.9-10.9-10.9v-20.7c0-0.2,0.2-0.4,0.4-0.4c0.2,0,0.4,0.2,0.4,0.4v20.7
					c0,5.5,4.4,9.9,9.8,10.1V387c0-0.2,0.2-0.4,0.4-0.4c0.2,0,0.4,0.2,0.4,0.4v39C307.7,426.2,307.5,426.3,307.3,426.3z"/>
			</g>
			<g clip-path="url(#SVGID_2_)">
				<path fill="#694532" d="M306.5,446.1C306.5,446.1,306.4,446.1,306.5,446.1c-0.2,0-0.4-0.2-0.4-0.4c0-0.1,1-9.3,1-22.2
					c0-0.2,0.2-0.4,0.4-0.4c0.2,0,0.4,0.2,0.4,0.4c0,12.9-1,22.2-1,22.3C306.8,445.9,306.6,446.1,306.5,446.1z"/>
			</g>
			<path clip-path="url(#SVGID_2_)" fill="#D1A55A" d="M295.6,614.6l-49.4,7.4l-19.1-172.3c-3.1-20.7,4.5-35.1,22.6-38.5l0,0
				c21.5-2.3,37.2,12.8,37.6,43.5L295.6,614.6z"/>
			<path clip-path="url(#SVGID_2_)" fill="#D1A55A" d="M311,614.6l49.4,7.4l19.1-172.3c3.1-20.7-4.5-35.1-22.6-38.5l0,0
				c-21.5-2.3-37.2,12.8-37.6,43.5L311,614.6z"/>
			<g clip-path="url(#SVGID_2_)">
				<path fill="#694532" d="M288.5,477c-0.2,0-0.3-0.1-0.4-0.3l-1.4-28.1c-0.7-14-5.7-24.7-14.4-30.9c-13.2-9.5-27.2-4.9-27.4-4.9
					c-0.2,0.1-0.4,0-0.5-0.2c-0.1-0.2,0-0.4,0.2-0.5c0.1,0,14.5-4.7,28,5c8.9,6.4,14,17.3,14.7,31.5l1.4,28.1
					C288.9,476.8,288.7,477,288.5,477C288.5,477,288.5,477,288.5,477z"/>
			</g>
			<g clip-path="url(#SVGID_2_)">
				<path fill="#694532" d="M318,481.3C318,481.3,318,481.3,318,481.3c-0.2,0-0.4-0.2-0.4-0.4l1.7-32.4c0,0,0-0.1,0-0.2
					c0.1-0.7,2-19,9.9-27.8c5.3-6,12.9-9.4,21.5-9.8c7.8-0.3,15.6,2,19.8,6c0.1,0.1,0.2,0.4,0,0.5c-0.1,0.1-0.4,0.1-0.5,0
					c-4-3.8-11.8-6.1-19.3-5.8c-8.3,0.4-15.8,3.8-21,9.6c-7.7,8.7-9.7,26.7-9.7,27.5l-1.7,32.5C318.3,481.2,318.2,481.3,318,481.3z"
					/>
			</g>
			<g clip-path="url(#SVGID_2_)">
				<path fill="#694532" d="M251.2,439.4c-1.3,0-2.7-0.4-4.2-1.2c-5.9-3.2-5.1-13.9-4.7-14.9c0.1-0.2,0.3-0.3,0.5-0.2
					c0.2,0.1,0.3,0.3,0.2,0.5c-0.4,0.8-1,11,4.4,13.9c2.1,1.2,4.1,1.4,5.7,0.7c2.9-1.2,4.1-4.8,4.1-4.9c0.1-0.2,0.3-0.3,0.5-0.3
					c0.2,0.1,0.3,0.3,0.3,0.5c-0.1,0.2-1.3,4-4.5,5.4C252.7,439.2,251.9,439.4,251.2,439.4z"/>
			</g>
			<g clip-path="url(#SVGID_2_)">
				<path fill="#694532" d="M362,437.6c-5.7,0-8.3-6.2-8.4-6.3c-0.1-0.2,0-0.4,0.2-0.5c0.2-0.1,0.4,0,0.5,0.2c0.1,0.3,3,7.1,9.4,5.7
					c1.9-0.4,3.4-1.7,4.5-3.9c1.9-3.8,1.9-9.2,1.2-10.7c-0.1-0.2,0-0.4,0.2-0.5c0.2-0.1,0.4,0,0.5,0.2c0.7,1.7,0.8,7.2-1.2,11.3
					c-1.2,2.4-2.9,3.8-5,4.3C363.2,437.6,362.6,437.6,362,437.6z"/>
			</g>
			<g clip-path="url(#SVGID_2_)">
				<path fill="#694532" d="M250.7,400.7c-0.2,0-0.3-0.1-0.4-0.3c0-0.2,0.1-0.4,0.3-0.4c0.1,0,15.1-2.4,21.1-13
					c0.1-0.2,0.3-0.2,0.5-0.1c0.2,0.1,0.2,0.3,0.1,0.5C266.2,398.3,250.9,400.6,250.7,400.7C250.8,400.7,250.8,400.7,250.7,400.7z"
					/>
			</g>
			<g clip-path="url(#SVGID_2_)">
				<path fill="#694532" d="M362.1,399.9c0,0-0.1,0-0.1,0c-14.9-4.5-21.4-12.5-21.5-12.6c-0.1-0.2-0.1-0.4,0.1-0.5
					c0.2-0.1,0.4-0.1,0.5,0.1c0.1,0.1,6.5,7.9,21.1,12.3c0.2,0.1,0.3,0.3,0.2,0.4C362.4,399.8,362.3,399.9,362.1,399.9z"/>
			</g>
			<g clip-path="url(#SVGID_2_)">
				<path fill="#694532" d="M247.2,409.3c-0.1,0-0.2,0-0.3-0.1c-0.1-0.2-0.1-0.4,0.1-0.5c0.8-0.6,1.7-1.2,2.6-1.7
					c6.1-3.5,14.5-5.3,20.5-6.3c3.2-0.5,5.4-0.7,5.4-0.7c0.2,0,0.4,0.1,0.4,0.3c0,0.2-0.1,0.4-0.3,0.4c0,0-2.2,0.2-5.4,0.7
					c-5.9,1-14.2,2.8-20.3,6.2c-0.9,0.5-1.8,1.1-2.6,1.7C247.4,409.3,247.3,409.3,247.2,409.3z"/>
			</g>
			<g clip-path="url(#SVGID_2_)">
				<path fill="#694532" d="M364.2,407.6c-0.1,0-0.2,0-0.3-0.1c-0.5-0.5-0.9-0.9-1.4-1.3c-3.6-3-9.3-4.9-17-5.8
					c-6.6-0.8-12.3-0.4-12.4-0.4c-0.2,0-0.4-0.1-0.4-0.3c0-0.2,0.1-0.4,0.3-0.4c0.1,0,5.8-0.4,12.5,0.4c7.7,0.9,13.6,2.9,17.3,6
					c0.5,0.4,1,0.9,1.5,1.4c0.1,0.1,0.1,0.4,0,0.5C364.4,407.6,364.3,407.6,364.2,407.6z"/>
			</g>
			<g clip-path="url(#SVGID_2_)">
				<path fill="#322924" d="M228.2,267.2c-0.1,0-0.1,0-0.2,0c-0.2-0.1-0.2-0.3-0.2-0.5c3.4-6.6,17.9-15.5,19.5-15
					c0.2,0.1,0.3,0.3,0.2,0.4c-0.1,0.2-0.2,0.3-0.4,0.2c0,0,0,0,0,0c-1.4,0-15.2,8-18.6,14.6C228.4,267.2,228.3,267.2,228.2,267.2z"
					/>
			</g>
			<g clip-path="url(#SVGID_2_)">
				<path fill="#322924" d="M389.1,272.2c-0.1,0-0.2-0.1-0.3-0.1c-8.6-11.6-21.9-16.5-22-16.5c-0.2-0.1-0.3-0.3-0.2-0.5
					c0.1-0.2,0.3-0.3,0.5-0.2c0.1,0,13.6,5,22.4,16.8c0.1,0.2,0.1,0.4-0.1,0.5C389.2,272.2,389.2,272.2,389.1,272.2z"/>
			</g>
			<g clip-path="url(#SVGID_2_)">
				<path fill="#694532" d="M294,565.5c-0.2,0-0.4-0.2-0.4-0.4c-0.2-20.9-15.6-50.6-16.7-52.2c-0.1-0.2-0.1-0.4,0.1-0.5
					c0.2-0.1,0.4-0.1,0.5,0.1c1.1,1.6,16.6,31.6,16.8,52.6C294.3,565.3,294.2,565.5,294,565.5C294,565.5,294,565.5,294,565.5z"/>
			</g>
			<g clip-path="url(#SVGID_2_)">
				<path fill="#694532" d="M312.2,582.5C312.2,582.5,312.2,582.5,312.2,582.5c-0.2,0-0.4-0.2-0.4-0.4c0.4-15.9,10.9-35.3,16-44.6
					c1.3-2.3,2.3-4.2,2.7-5.2c0.1-0.2,0.3-0.3,0.5-0.2c0.2,0.1,0.3,0.3,0.2,0.5c-0.4,1.1-1.4,2.8-2.7,5.3
					c-5,9.3-15.5,28.6-15.9,44.3C312.5,582.3,312.4,582.5,312.2,582.5z"/>
			</g>
			<g clip-path="url(#SVGID_2_)">
				<path fill="#694532" d="M235.7,499.6c-0.2,0-0.3-0.1-0.3-0.2c-4.4-13.3-5.5-22-5.5-22.1c0-0.2,0.1-0.4,0.3-0.4
					c0.2,0,0.4,0.1,0.4,0.3c0,0.1,1.1,8.7,5.5,21.9c0.1,0.2,0,0.4-0.2,0.5C235.8,499.6,235.8,499.6,235.7,499.6z"/>
			</g>
			<g clip-path="url(#SVGID_2_)">
				<path fill="#694532" d="M365.2,525.2c-0.1,0-0.1,0-0.2,0c-0.2-0.1-0.2-0.3-0.1-0.5c6.1-10.6,11-43.4,11-43.8
					c0-0.2,0.2-0.3,0.4-0.3c0.2,0,0.3,0.2,0.3,0.4c-0.2,1.4-4.9,33.3-11.1,44C365.4,525.1,365.3,525.2,365.2,525.2z"/>
			</g>
			<g clip-path="url(#SVGID_2_)">
				<path fill="#322924" d="M224.1,363.8c-0.1,0-0.3-0.1-0.3-0.2c-0.1-0.2,0-0.4,0.1-0.5l0,0c2-1.1,12.6-7,19.3-16.2
					c0.1-0.2,0.3-0.2,0.5-0.1c0.2,0.1,0.2,0.3,0.1,0.5c-6.7,9-16.7,14.8-19.6,16.4C224.2,363.7,224.1,363.8,224.1,363.8z"/>
			</g>
			<g clip-path="url(#SVGID_2_)">
				<path fill="#322924" d="M396.1,363.8c0,0-0.1,0-0.1,0c-9.9-2.9-15.9-16.1-16.1-16.7c-0.1-0.2,0-0.4,0.2-0.5
					c0.2-0.1,0.4,0,0.5,0.2c0.1,0.1,6.1,13.4,15.7,16.3c0.2,0.1,0.3,0.3,0.2,0.4C396.4,363.7,396.2,363.8,396.1,363.8z"/>
			</g>
			<path clip-path="url(#SVGID_2_)" fill="#322924" d="M270.2,401c-5.4,0.9-13.9,2.7-20.1,6.1l1-10.1
				C254.1,398.8,259.8,400.7,270.2,401z"/>
			<path clip-path="url(#SVGID_2_)" fill="#322924" d="M362.7,405.9c-4.4-3.6-11.2-5.2-17.1-5.9c4-0.6,10.5-2.2,16-5.9L362.7,405.9z
				"/>
			<g clip-path="url(#SVGID_2_)">
				<path fill="#A1CFD6" d="M360,339.5l2.2,16.1l0.8,5.5l0.2,1.7h21.7l0.5-3.5l0-0.1l2.7-19.7c0-0.7-6.3-1.3-14.1-1.3
					C366.3,338.2,360,338.8,360,339.5z"/>
				<g>
					<path fill="#A1CFD6" d="M354.8,348c0-3.8,3.1-6.9,6.9-6.9s6.9,3.1,6.9,6.9c0,3.8-3.1,6.9-6.9,6.9S354.8,351.8,354.8,348z
						 M357.7,348c0,2.2,1.8,4,4,4c2.2,0,4-1.8,4-4c0-2.2-1.8-4-4-4C359.5,343.9,357.7,345.7,357.7,348z"/>
				</g>
				<path fill="#322924" d="M362.2,355.6l0.8,5.5l22.5-1.8l0.4,0c0,0-0.2,0-0.4,0C382.9,359.1,369.4,358.3,362.2,355.6z"/>
				<path fill="#A1CFD6" d="M351.3,359.2h45.6v0c-3.3,2.5-7.2,3.8-11.3,3.8h-23.1C358.5,363,354.5,361.7,351.3,359.2L351.3,359.2z"
					/>
			</g>
		</g>
		<rect x="96.2" y="362.3" fill="#00A99D" width="425.4" height="8.2"/>
		<path fill="#FAD49E" d="M538.3,63.2L526.4,143c-0.4,2.9-3.5,5.2-6.8,5.2H393.2c-3.3,0-5.7-2.3-5.2-5.2l11.9-79.8
			c0.4-2.9,3.5-5.2,6.8-5.2h126.4C536.4,58,538.7,60.3,538.3,63.2z"/>
		<g>
			<path fill="#AB5B2D" d="M439.9,148.2h-17c-2.2-2.1-4.4-4.5-6.6-7c-11.8-13.5-18.9-26.6-15.9-29.4c2.1-1.8,8.4,1.7,16,8.4
				c3.5,3.1,7.3,6.9,11,11.2C432.6,137.4,436.9,143.3,439.9,148.2z"/>
			<path fill="#AB5B2D" d="M516.4,124.8c-2.6,6.7-5.3,13-7.9,18.3c-0.9,1.8-1.8,3.5-2.6,5.1h-12.1c0.4-2.2,1-4.5,1.7-7.1
				c1.7-6.4,4.1-13.8,7-21.6c3.2-8.5,6.7-16.1,9.9-22.3c5.2-10,10-16.1,12.3-15.2C528.6,83.5,524.8,102.6,516.4,124.8z"/>
			<path fill="#AB5B2D" d="M512.4,97.2c-0.2,6.6-0.9,13.9-2.1,21.6c-1.4,8.8-3.3,17.1-5.4,24.3c-0.5,1.8-1.1,3.5-1.7,5.1h-22.9
				c-0.1-2.2-0.1-4.6-0.1-7.1c0.1-7.1,0.8-15.1,2.1-23.6c4.4-28.4,14.2-51.2,22-50.9C509.9,67,512.9,79.4,512.4,97.2z"/>
			<path fill="#AB5B2D" d="M453.7,148.2h-22.6c-3.2-4.5-6.3-9.8-9.3-15.6c-2.1-4.2-3.9-8.4-5.4-12.4c-5.7-15.1-6.7-27.4-1.8-29.9
				c6.2-3.1,19.4,10.8,29.5,31.1C449,131.3,452.3,140.7,453.7,148.2z"/>
			<g>
				<path fill="#BF7D56" d="M436.1,142.4c-0.1,0-0.2-0.1-0.3-0.2c-8.4-12.7-20.4-22.4-20.5-22.5c-0.1-0.1-0.2-0.3-0.1-0.5
					c0.1-0.1,0.3-0.2,0.5-0.1c0.1,0.1,12.2,9.9,20.7,22.7c0.1,0.2,0.1,0.4-0.1,0.5C436.2,142.4,436.1,142.4,436.1,142.4z"/>
			</g>
			<g>
				<path fill="#BF7D56" d="M443.3,145.9c-0.1,0-0.2,0-0.3-0.1c-16.5-19.8-28-54.9-28.1-55.2c-0.1-0.2,0-0.4,0.2-0.4
					c0.2-0.1,0.4,0,0.4,0.2c0.1,0.4,11.6,35.3,28,55c0.1,0.1,0.1,0.4,0,0.5C443.5,145.9,443.4,145.9,443.3,145.9z"/>
			</g>
			<g>
				<path fill="#BF7D56" d="M499,128.2C498.9,128.2,498.9,128.2,499,128.2c-0.3-0.1-0.4-0.3-0.3-0.4c4.3-15.1,12.5-29.7,17.1-37.1
					l0.2-0.4c0.1-0.2,0.3-0.2,0.5-0.1c0.2,0.1,0.2,0.3,0.1,0.5l-0.3,0.4c-4.5,7.3-12.8,21.9-17,36.9
					C499.3,128.1,499.1,128.2,499,128.2z"/>
			</g>
			<g>
				<path fill="#BF7D56" d="M494.3,148.6C494.3,148.6,494.2,148.6,494.3,148.6c-0.2,0-0.4-0.2-0.3-0.4l0.1-1
					c0.1-0.9,0.2-1.9,0.3-2.9c2.9-28.4,9.6-77.2,9.6-77.7c0-0.2,0.2-0.3,0.4-0.3c0.2,0,0.3,0.2,0.3,0.4c-0.1,0.5-6.7,49.2-9.6,77.6
					c-0.1,1-0.2,1.9-0.3,2.9l-0.1,1C494.6,148.5,494.4,148.6,494.3,148.6z"/>
			</g>
		</g>
		<path fill="#E9723D" d="M500.6,62.8c0,3.7-2.1,6.9-5.2,8.6c-1.5,0.9-3.3,1.3-5.2,1.3c-2.1,0-4.1-0.6-5.8-1.7
			c-2.8-1.8-4.6-4.8-4.6-8.2c0-5.5,4.6-9.9,10.4-9.9C496,52.9,500.6,57.3,500.6,62.8z"/>
		<path fill="#36232E" d="M495.4,71.4c-1.5,0.9-3.3,1.3-5.2,1.3c-2.1,0-4.1-0.6-5.8-1.7l2.3-6.3C486.8,64.8,488.1,70,495.4,71.4z"/>
		<path fill="#E9723D" d="M462.2,79.9c-5.1,0.4-9.1,4.8-10.1,10.5c-0.4,1.9-1.9,3.4-3.9,3.5c-0.1,0-0.1,0-0.2,0
			c-8.6,0.7-15.1,6.4-14.6,12.7c0.5,6.3,7.9,10.8,16.5,10.1c6.8-0.6,12.3-4.2,14-8.8c0.2,0,0.4,0,0.5,0c6.3-0.5,10.9-7.2,10.3-15
			C474.2,85.2,468.5,79.4,462.2,79.9z"/>
		<g>
			<path fill="#36232E" d="M440,115.4c-0.1,0-0.2-0.1-0.3-0.2c-2-3.2-2.4-6.4-1.2-9.1c1.3-3,4.6-5,9.1-5.7c4.5-0.7,5.9-4,6.4-5.3
				c0.2-0.4,0.3-0.6,0.5-0.7c0.2-0.1,0.4,0,0.4,0.2c0,0.1,0,0.3-0.1,0.4c0,0.1-0.1,0.2-0.2,0.4c-0.6,1.4-2.1,4.9-7,5.7
				c-4.3,0.7-7.4,2.6-8.6,5.3c-1.1,2.4-0.7,5.4,1.2,8.4c0.1,0.2,0.1,0.4-0.1,0.5C440.1,115.4,440,115.4,440,115.4z"/>
		</g>
		<g>
			<path fill="#FFC9B5" d="M454.5,118.1c-0.1,0.2-8.1,12.7-15.8,27.2c-0.4-0.4-0.8-0.8-1.2-1.3c-4.3-5.2-4.1-10.8-1.7-14.3
				c0.9-1.3,2.3-3.1,4-4.8v-0.3c7-6.2,10-14.1,11.3-18.4c0.3,0.1,0.6,0.3,0.9,0.5C455.8,109.2,456.9,114.3,454.5,118.1z"/>
		</g>
		<path fill="#735E27" d="M492.2,105c-2.2,8.6-4.3,16.9-6.3,25.3c-0.1,0.4-0.2,0.8-0.3,1.2c-0.5,1.8-0.9,3.7-1.4,5.5
			c-0.8,3.1-1.6,6.2-2.3,9.3c-0.2,0.7-0.4,1.4-0.5,2.1h-41.5v-1.9c-0.1-0.1-0.2-0.2-0.3-0.3c-0.3-0.2-0.5-0.5-0.8-0.8
			c-0.4-0.4-0.8-0.8-1.2-1.3c-4.3-5.2-4.1-10.8-1.7-14.3c0.9-1.3,2.3-3.1,4-4.8c0,0,10-14.4,11.3-18.7c0.3-1.1,0.5-2,0.6-2.6
			c8.8-1.8,18.1-2.6,26-2.1c2.8,0.2,5.5,0.5,7.9,1.1C488.1,103.2,490.4,103.9,492.2,105z"/>
		<path fill="#FFC9B5" d="M492.2,105c-2.3,9-4.5,17.7-6.6,26.5c-0.2,0.8-0.4,1.5-0.6,2.3c-0.3,1.1-0.5,2.1-0.8,3.2
			c-2.4-2.1-4.3-5.7-5.3-10.1c-0.4-1.9-0.7-4-0.8-6.1c-0.2-8.5,2.9-15.8,7.4-18.1C488.1,103.2,490.4,103.9,492.2,105z"/>
		<g>
			<path fill="#FFC9B5" d="M507.2,148.2h-17c-5-13.5-9.1-24.2-9.6-28.5c-0.6-4.5-0.6-12.8,3.4-15c4-2.2,8.9-0.8,11.1,3.2
				C498.1,113.5,504,135.8,507.2,148.2z"/>
		</g>
		<path fill="#FFC9B5" d="M473.6,90.3v15.3c0,2.7-3.2,5-7.1,5s-7.1-2.2-7.1-5V90.3H473.6z"/>
		<path fill="#36232E" d="M468.9,91.2c-0.4,0.2-1.3,3.3-9.6,6.2v-6.9L468.9,91.2z"/>
		<path fill="#FFC9B5" d="M451.7,103.7c-0.1,0.6-0.3,1.5-0.6,2.6c-1.4,4.6-3.4,9-6.3,12.9c-1.1,1.5-2.4,2.9-3.7,4.3
			c-1.8,2-3.7,4-5.2,6.2c-2.5,3.6-2.6,9.2,1.7,14.3c0.4,0.4,0.8,0.9,1.2,1.3c-0.5,1-1,2-1.5,2.9h-18.4c9.1-19,21.3-38.1,21.9-39
			c1.3-2.1,3.8-3.8,6.2-4.4C448.4,104.4,450,104,451.7,103.7z"/>
		<path fill="#E9723D" d="M488.1,92.3l-34.5-4.1l1.1-35.8l17.6,2.1c8.9,1,17.7,9.3,16.7,18.2L488.1,92.3z"/>
		
			<ellipse transform="matrix(0.9887 0.1501 -0.1501 0.9887 14.2216 -67.4877)" fill="#E9723D" cx="454.1" cy="60.5" rx="12.9" ry="8.2"/>
		<path fill="#36232E" d="M458.6,63.3l0.3-1.1c-0.4-0.2-4.1-1.2-7-1.5c-3.8-0.4-4.6,2.6-2.2,5.2c4.4,4.7,11.2,4.5,12.6,4.4
			c0.1,0,0.2-0.1,0.1-0.2C461.9,68.8,459.2,63.9,458.6,63.3z"/>
		<path fill="#FFC9B5" d="M475.7,92.7c0,0-10.5,2-15.5,1.3c-5.2-0.7-9.4-5.6-8.7-10.9c0.9-7.5,2.5-15,4.3-22.4
			c7.9,1.3,16,2.7,24.2,4C479.3,75.3,478.1,82.3,475.7,92.7z"/>
		<g>
			<path fill="#36232E" d="M489,73C489,73,489,73,489,73c-0.2,0-0.4-0.2-0.3-0.4c0.4-8-6-13.1-6.1-13.2c-0.1-0.1-0.2-0.3-0.1-0.5
				c0.1-0.2,0.3-0.2,0.5-0.1c0.1,0.1,6.7,5.4,6.3,13.8C489.3,72.8,489.2,73,489,73z"/>
		</g>
		<path fill="#E9723D" d="M500.9,106c-2.6-3.2-5.6-5.7-8.6-7.3c-2.7-1.4-4.1-4.2-4.1-7.2c0,0,0,0,0-0.1c0-6.7-3.8-12.1-8.4-12.1
			s-6.5,1.3-8.4,7.7c-3.2,11.4,2.6,17.2,6.7,18c8.2,3.4,7.2,5.9,10.1,13.4c3.6,9.5,11.5,12.3,16,8.6
			C508.7,123.3,507.3,113.9,500.9,106z"/>
		<g>
			<path fill="#36232E" d="M500.1,128.7c-5.7,0-12.1-5.4-14.4-16.6c-1.2-5.6-3.5-7.8-5.5-9.7c-1.7-1.6-3.2-3-3.6-6
				c0-0.2,0.1-0.4,0.3-0.4c0.2,0,0.4,0.1,0.4,0.3c0.4,2.7,1.8,4,3.4,5.6c2,1.9,4.5,4.3,5.7,10.1c2.5,12,9.7,17.1,15.4,15.9
				c0.2,0,0.4,0.1,0.4,0.3c0,0.2-0.1,0.4-0.3,0.4C501.3,128.7,500.7,128.7,500.1,128.7z"/>
		</g>
		<path fill="#E9723D" d="M455.2,59.5c0,0,0.6,7.5,17,19.4c0,0-1,5.5-0.9,13.4c0.1,7.9,14.9-5.1,14.9-5.1l-3.8-17.9l-1.6-8l-9.1-0.8
			l-7.3-2.8L455.2,59.5z"/>
		<g>
			<path fill="#36232E" d="M477,83.2c-0.1,0-0.2,0-0.3-0.1c-8.5-10.8-9.4-20.6-9.2-21.2c0.1-0.2,0.3-0.3,0.4-0.2
				c0.2,0.1,0.3,0.2,0.2,0.4c-0.1,0.8,0.9,10.2,9.1,20.6c0.1,0.1,0.1,0.4-0.1,0.5C477.1,83.2,477,83.2,477,83.2z"/>
		</g>
		
			<ellipse transform="matrix(0.5981 0.8014 -0.8014 0.5981 256.6375 -346.3209)" fill="#FFC9B5" cx="473.6" cy="82.7" rx="4.1" ry="5"/>
		<g>
			<path fill="#36232E" d="M460.2,68.6c-0.1,0-0.2,0-0.2-0.1c-4.3-4.5-6.2-8.2-6-11.6c0.1-1.8,0.7-3,1.8-3.8
				c1.9-1.3,4.4-0.6,4.5-0.6c0.2,0.1,0.3,0.2,0.2,0.4c-0.1,0.2-0.2,0.3-0.4,0.2c0,0-2.3-0.6-3.9,0.5c-0.9,0.6-1.4,1.8-1.5,3.3
				c-0.2,3.2,1.6,6.7,5.8,11.1c0.1,0.1,0.1,0.4,0,0.5C460.4,68.6,460.3,68.6,460.2,68.6z"/>
		</g>
		<g>
			<path fill="#36232E" d="M505.1,126.3c-0.1,0-0.2,0-0.2-0.1c-0.1-0.1-0.1-0.4,0-0.5c0.3-0.3,0.7-1.5,0.4-3
				c-0.4-1.5-1.6-3.5-5.4-4.6c-5.3-1.6-6.6-6.4-7.3-8.9c-0.2-0.6-0.3-1.2-0.5-1.4c-0.2-0.1-0.2-0.3-0.1-0.5c0.1-0.2,0.3-0.2,0.5-0.1
				c0.3,0.2,0.5,0.7,0.8,1.8c0.7,2.4,1.9,7,6.9,8.4c4.1,1.2,5.4,3.4,5.8,5.1c0.4,1.6,0,3.1-0.5,3.7
				C505.3,126.3,505.2,126.3,505.1,126.3z"/>
		</g>
		<g>
			<path fill="#36232E" d="M482.6,96.1c-0.1,0-0.1,0-0.2-0.1c-1.5-1-3.5-3.9-0.7-11.7c2.4-6.7-4.1-14.4-4.2-14.4
				c-0.1-0.1-0.1-0.4,0-0.5c0.1-0.1,0.4-0.1,0.5,0c0.3,0.3,6.9,8,4.3,15.1c-2.7,7.6-0.6,10.2,0.4,10.9c0.2,0.1,0.2,0.3,0.1,0.5
				C482.8,96.1,482.7,96.1,482.6,96.1z"/>
		</g>
		<g>
			<path fill="#36232E" d="M490.1,148.6c-0.1,0-0.3-0.1-0.3-0.2c0-0.1-4.4-13.4-6.5-17.8c-1.6-3.4-3.9-3.5-4.8-3.6
				c-0.3,0-0.6,0-0.7-0.3c0-0.2,0.1-0.4,0.3-0.4c0.1,0,0.2,0,0.3,0.1c0.1,0,0.1,0,0.2,0c1,0.1,3.6,0.3,5.4,4
				c2.1,4.4,6.5,17.7,6.5,17.9c0.1,0.2,0,0.4-0.2,0.4C490.2,148.6,490.2,148.6,490.1,148.6z"/>
		</g>
		<path fill="#36232E" d="M485,133.7c-0.3,1.1-0.5,2.1-0.8,3.2c-2.4-2.1-4.3-5.7-5.3-10.1c0.5,0,1.1,0.1,1.8,0.4
			C482.4,127.8,484.3,132,485,133.7z"/>
		<g>
			<path fill="#36232E" d="M444.4,147.4c-4.8,0-6.6-2.3-6.7-2.5c-0.1-0.2-0.1-0.4,0.1-0.5c0.2-0.1,0.4-0.1,0.5,0.1c0,0,3.1,4,12,1.2
				c0.2-0.1,0.4,0,0.4,0.2c0.1,0.2,0,0.4-0.2,0.4C448.1,147.1,446.1,147.4,444.4,147.4z"/>
		</g>
		<g>
			<path fill="#36232E" d="M451.7,123.6c-0.2,0-0.3-0.1-0.3-0.3c0-0.2,0.1-0.4,0.2-0.4c0.1,0,7.6-2.1,11.4-3.7
				c0.2-0.1,0.4,0,0.5,0.2c0.1,0.2,0,0.4-0.2,0.5C459.4,121.5,451.8,123.5,451.7,123.6C451.7,123.6,451.7,123.6,451.7,123.6z"/>
		</g>
		<g>
			<path fill="#36232E" d="M452.3,119.9c-0.1,0-0.1,0-0.2-0.1c-0.2-0.1-0.2-0.3-0.1-0.5c0.1-0.3,0.6-0.5,3.5-1.7
				c2.2-0.9,5-2.1,6.1-2.8c0.2-0.1,0.4-0.1,0.5,0.1c0.1,0.2,0.1,0.4-0.1,0.5c-1.2,0.8-4,2-6.2,2.9c-1.4,0.6-3,1.3-3.2,1.5
				C452.5,119.8,452.4,119.9,452.3,119.9z"/>
		</g>
		<g>
			<path fill="#36232E" d="M440.9,124.6c-0.2,0-0.3-0.1-0.3-0.3c-0.2-0.9-1-1.8-2.2-1.8c-0.2,0-0.3-0.2-0.3-0.3
				c0-0.2,0.2-0.3,0.3-0.3c1.5,0,2.6,1.2,2.8,2.3C441.2,124.4,441.1,124.6,440.9,124.6C440.9,124.6,440.9,124.6,440.9,124.6z"/>
		</g>
		
			<ellipse transform="matrix(0.9934 0.115 -0.115 0.9934 11.7298 -52.8267)" fill="#36232E" cx="463.7" cy="75.3" rx="1.1" ry="1.5"/>
		
			<ellipse transform="matrix(0.9934 0.115 -0.115 0.9934 11.4702 -51.854)" fill="#36232E" cx="455.2" cy="73.5" rx="1.1" ry="1.5"/>
		<g>
			<path fill="#C15638" d="M457.8,81.1c-0.7,0-1.3-0.1-1.5-0.6c-0.5-1,2.2-7.1,2.3-7.2c0.1-0.2,0.3-0.2,0.5-0.2
				c0.2,0.1,0.2,0.3,0.2,0.5c-0.5,1.2-2.4,6-2.3,6.6c0.1,0.2,1.3,0.3,2.4,0c0.2,0,0.4,0.1,0.4,0.3c0,0.2-0.1,0.4-0.3,0.4
				C459.1,81,458.4,81.1,457.8,81.1z"/>
		</g>
		<g>
			<path fill="#C15638" d="M461.2,85.8c-1.4,0-2.6-0.8-2.7-0.8c-0.2-0.1-0.2-0.3-0.1-0.5c0.1-0.2,0.3-0.2,0.5-0.1
				c0,0,1.8,1.2,3.5,0.5c1.6-0.7,2.2-3.5,2.2-3.5c0-0.2,0.2-0.3,0.4-0.3c0.2,0,0.3,0.2,0.3,0.4c0,0.1-0.6,3.2-2.6,4
				C462.2,85.7,461.7,85.8,461.2,85.8z"/>
		</g>
		<path fill="#A64A30" d="M452.9,69.6c-0.2-0.7,0.1-1.3,0.6-1.8c0.5-0.4,1.2-0.6,1.7-0.6c0.5,0,1.1,0.1,1.6,0.3
			c0.5,0.2,0.9,0.5,1.3,0.9c0.1,0.2,0.1,0.4,0,0.5c0,0-0.1,0.1-0.2,0.1l-0.1,0c-0.5,0.1-0.9,0.1-1.3,0.2c-0.4,0-0.8,0.1-1.1,0.1
			l-0.8,0.1c-0.3,0-0.6,0.1-1,0.3l-0.2,0.1C453.2,69.9,453,69.8,452.9,69.6C452.9,69.6,452.9,69.6,452.9,69.6z"/>
		<path fill="#A64A30" d="M462.6,69.3c0.6-0.6,1.4-0.7,2.1-0.7c0.8,0,1.5,0.3,2.1,0.6c0.6,0.4,1.2,0.8,1.6,1.4
			c0.4,0.6,0.7,1.2,0.7,2c0,0.2-0.1,0.4-0.3,0.4c-0.1,0-0.2,0-0.2-0.1l-0.1-0.1c-0.4-0.4-0.9-0.7-1.3-1c-0.4-0.3-0.9-0.5-1.4-0.8
			c-1-0.4-1.8-0.8-2.9-1.1l-0.1,0c-0.2-0.1-0.3-0.3-0.2-0.4C462.5,69.4,462.5,69.3,462.6,69.3z"/>
		<g>
			<defs>
				<path id="SVGID_3_" d="M588.5,199.4l-15.4,88.1c-0.6,3.5-4.4,6.4-8.4,6.4H422.8c-4,0-6.8-2.9-6.2-6.4l15.4-88.1
					c0.6-3.5,4.4-6.4,8.4-6.4h141.9C586.3,193,589.1,195.9,588.5,199.4z"/>
			</defs>
			<clipPath id="SVGID_4_">
				<use xlink:href="#SVGID_3_"  overflow="visible"/>
			</clipPath>
			<g clip-path="url(#SVGID_4_)">
				<path fill="#98D3E0" d="M588.5,199.4l-15.4,88.1c-0.6,3.5-4.4,6.4-8.4,6.4H422.8c-4,0-6.8-2.9-6.2-6.4l15.4-88.1
					c0.6-3.5,4.4-6.4,8.4-6.4h141.9C586.3,193,589.1,195.9,588.5,199.4z"/>
			</g>
			<g clip-path="url(#SVGID_4_)">
				<g>
					<polygon fill="#E0FAFF" points="527.9,279.8 541.7,200.9 597.2,200.9 583.4,279.8 					"/>
					<path fill="#FFFFFF" d="M596.3,201.6L582.7,279h-53.9l13.5-77.4H596.3L596.3,201.6z M598.1,200.1h-1.9h-53.9H541l-0.2,1.3
						l-13.5,77.4l-0.3,1.9h1.9h53.9h1.3l0.2-1.3l13.5-77.4L598.1,200.1L598.1,200.1z"/>
				</g>
				<path fill="#AADCE6" d="M566.5,251.2c-0.8-8.6-3.4-14.1-7.4-14.1c-2.5,0-5.3,2.2-7.9,6c-0.1-11.8-2.9-19.8-7.7-19.8
					c-1.7,0-3.5,1-5.4,2.9l-9.2,52.7H539h6.1h12.6h6.7h18.2l6.4-36.8C580.7,242.5,572.5,246,566.5,251.2z"/>
				<g>
					
						<rect x="565.4" y="200.9" transform="matrix(0.9851 0.1722 -0.1722 0.9851 49.8307 -93.9135)" fill="#FFFFFF" width="1.6" height="78.7"/>
				</g>
			</g>
		</g>
		<path fill="#4E7B82" d="M471.3,294h75.1l15-49.1c2.5-8.6-4.3-17.1-13.8-17.3l-42.4-1.4c-8.4-0.1-15.8,5.1-18,12.7L471.3,294z"/>
		<path fill="#4E7B82" d="M511.2,229.8h27.1c3.3,0,6.3-2,7.4-4.9l3.8-10.1c1.8-4.8-2-9.8-7.4-9.8H515c-3.3,0-6.3,2-7.4,4.9
			l-3.8,10.1C502,224.7,505.8,229.8,511.2,229.8z"/>
		<path fill="#36232E" d="M465.6,280.3c-0.1,0.4-0.5,0.8-1.1,1.1c-1.9,0.9-6.2,1.1-11,0.5c-4.1-0.5-7.7-1.5-9.7-2.6
			c-1.1-0.6-1.8-1.3-1.7-1.9c0.1-0.7,0.9-1.2,2.4-1.5c2.2-0.5,5.8-0.6,9.8-0.1c5,0.6,9.1,2,10.7,3.3
			C465.4,279.5,465.6,279.9,465.6,280.3z"/>
		<path fill="#FFAA8B" d="M440.9,294.1H462l2.5-12.7l0.4-2.3c-0.7-0.6-2-1.3-3.6-1.8c-1.9-0.7-4.4-1.2-7.1-1.5
			c-0.2,0-0.4-0.1-0.6-0.1c0,0-0.1,0-0.1,0c-3.7-0.4-7-0.3-9.1,0.2l-0.7,3.4l-0.6,3.2L440.9,294.1z"/>
		<path fill="#36232E" d="M443.2,282.5l1.4,10.6c3.1-9.5,13.3-15.1,16.7-15.8c-1.9-0.7-4.4-1.2-7.1-1.5c-4-0.5-7.5-0.4-9.8,0.1
			l-0.7,3.4L443.2,282.5z"/>
		<path fill="#713D2F" d="M477.3,222.3l27.3-3.5l0-22.1c0-8.1-7-14.3-15-13.4l-22.5,2.5C457.4,189.1,477.3,222.3,477.3,222.3z"/>
		<path fill="#D9860F" d="M442.1,277.4c1.3-2.7,10.4-1.9,14.7-1.3c0.6,7.7,0.8,10.1,1.3,17.8h78.4c0.6-7.7-1.3-6.8-0.7-14.5
			c4.3-0.7,12.6-1.4,17-2.1c-0.7-4.3-4.3-16.1-6.4-21.7c-3.5-9.6-9.4-12.6-15.4-13.5c-3.3-0.5-7.1-1-10.5-1.4
			c-1.8-0.2-3.5-0.4-4.9-0.5c-13.4-1.1-26.8-1-40.2,0.3c-1.4,0.1-3.1,0.3-4.8,0.6c-2.7,0.3-5.6,0.8-8.2,1.2c-5.2,0.8-9.6,4-12,8.7
			C447.6,256.7,442.8,272.7,442.1,277.4z"/>
		<path fill="#FFAA8B" d="M470.6,241.1c0.6,3.2,4,6.1,9.1,8c4.3,1.6,9.8,2.6,15.8,2.6c4.8,0,9.3-0.6,13.1-1.7
			c6.9-1.9,11.5-5.3,11.9-9.3c-1.8-0.2-3.5-0.4-4.9-0.5c-13.4-1.1-26.8-1-40.2,0.3C474,240.7,472.3,240.9,470.6,241.1z"/>
		<path fill="#36232E" d="M498.2,249c0.5,1.3,1.2,2.4,2.2,3.4c3.9,3.6,10.5,2.8,14.7-1.7c4.2-4.5,4.4-11.2,0.5-14.8
			c-0.4-0.4-0.8-0.7-1.2-0.9c-4-2.5-9.7-1.5-13.4,2.6C497.8,240.9,496.9,245.4,498.2,249z"/>
		<g>
			<path fill="#DBF8FF" d="M475.5,240.1l5.8-0.4c-0.2-2.2,1-4.4,3.2-6.2c2.5-2.1,6-3.3,9.8-3.6c3.8-0.3,7.4,0.5,10.2,2.2
				c2.4,1.5,3.9,3.5,4,5.7l5.8-0.4c-0.3-4.1-2.7-7.7-6.8-10.2c-3.8-2.3-8.6-3.4-13.6-3c-5,0.4-9.6,2.1-13.1,4.9
				C477,232.1,475.2,236,475.5,240.1z"/>
		</g>
		<path fill="#36232E" d="M479.6,253c5.4,3.1,11.9,1.9,14.5-2.7c0.3-0.5,0.5-1,0.7-1.5c1.5-4.4-0.8-9.7-5.6-12.4
			c-4.8-2.8-10.5-2.1-13.6,1.5c-0.4,0.4-0.7,0.8-0.9,1.3C472.1,243.7,474.3,250,479.6,253z"/>
		<g>
			<path fill="#36232E" d="M469.4,244.8c-0.1,0-0.2,0-0.3-0.1c-0.6-0.3-5.7-1.3-10.1-1c-0.3,0-0.5-0.2-0.5-0.4
				c0-0.3,0.2-0.5,0.4-0.5c4.1-0.2,10.2,0.6,10.7,1.2c0.2,0.2,0.2,0.5,0,0.6C469.7,244.7,469.5,244.8,469.4,244.8z"/>
		</g>
		<polygon fill="#36232E" points="526.5,294.1 538.3,294.1 535.2,284.8 531.5,280.3 529.3,280.3 		"/>
		<path fill="#FFAA8B" d="M481.8,224.4l0.6,3.8l1,6.5l0.9,6.4l0.8,5.5c3.6,0.3,8,0.1,12.8-0.7c3.8-0.7,7.3-1.6,10.1-2.7l-0.9-6.2
			l-2.3-15.6L481.8,224.4z"/>
		<path fill="#36232E" d="M482.4,228.5l1,6.8c7.3-1.9,12.8-5,12.8-5L482.4,228.5z"/>
		
			<ellipse transform="matrix(0.8913 -0.4534 0.4534 0.8913 -46.3269 238.7211)" fill="#FFAA8B" cx="474.7" cy="216" rx="4.1" ry="5.4"/>
		<path fill="#FFAA8B" d="M484.8,232.2l21.1-2.7l-5-39.3l-20.9,2.6c-5.2,0.7-8.9,5.4-8.3,10.6l2.6,20.6
			C475,229.2,479.7,232.9,484.8,232.2z"/>
		<path fill="#713D2F" d="M463,197.2c6.4,3.9,15.9,1,22.9-0.8c0,0,0,0,0,0c3.7-1,6.8-1.7,8.4-0.9c2.6,1.3,4.1,6.5,5,10.8
			c0,0,0,0.1,0,0.1c0.7,3.3,0.9,6.1,0.9,6.1c0.3-3.6,4.2-3.4,4.2-3.4l-1.5-16.4l-3.2-5.5l-7.8-1.5c0,0-13.3,0.1-23-0.2
			C461.1,185.3,455.9,192.8,463,197.2z"/>
		<path fill="#36232E" d="M486,196.4c3.7-1,6.8-1.7,8.4-0.9c2.6,1.3,4.1,6.5,5,10.8c-0.1-1-0.6-10.3-1.4-12.1
			C496.7,191.1,490.3,194.7,486,196.4z"/>
		
			<ellipse transform="matrix(-0.8582 -0.5133 0.5133 -0.8582 826.3809 653.893)" fill="#FFAA8B" cx="503.5" cy="212.8" rx="4.1" ry="5.4"/>
		<path fill="#36232E" d="M529.3,280.3c0.1,0.4,0.5,0.8,1.1,1.1c1.9,0.9,6.2,1.1,11,0.5c4.1-0.5,7.7-1.5,9.7-2.6
			c1.1-0.6,1.8-1.3,1.7-1.9c-0.1-0.7-0.9-1.2-2.4-1.5c-2.2-0.5-5.8-0.6-9.8-0.1c-5,0.6-9.1,2-10.7,3.3
			C529.5,279.5,529.2,279.9,529.3,280.3z"/>
		<path fill="#FFAA8B" d="M529.9,279.2l0.4,2.3l2.4,12.6h21.1l-2.8-14.7l-0.7-3.4c-2.2-0.5-5.8-0.6-9.8-0.1
			C535.7,276.5,531.5,277.8,529.9,279.2z"/>
		<g>
			<path fill="#36232E" d="M487.3,209.1C487.3,209.1,487.3,209.1,487.3,209.1c-0.3,0-0.5-0.2-0.5-0.5c0,0,0.1-2.4,3.3-2.7
				c3-0.3,4.9,1,4.9,1c0.2,0.1,0.3,0.4,0.1,0.6c-0.1,0.2-0.4,0.3-0.6,0.1c0,0-1.7-1.2-4.3-0.9c-2.4,0.2-2.5,1.8-2.5,1.9
				C487.8,208.9,487.6,209.1,487.3,209.1z"/>
		</g>
		<g>
			<path fill="#36232E" d="M474,212C474,212,474,212,474,212c-0.3,0-0.5-0.2-0.5-0.5c0,0,0.1-2.4,3.3-2.7c3-0.3,4.9,1,4.9,1
				c0.2,0.1,0.3,0.4,0.1,0.6c-0.1,0.2-0.4,0.3-0.6,0.1c0,0-1.7-1.2-4.3-0.9c-2.4,0.2-2.5,1.8-2.5,1.9C474.4,211.8,474.2,212,474,212
				z"/>
		</g>
		<path fill="#FFAA8B" d="M422.2,294.1h25c1.2-3.2,2.4-6.8,3.7-10.6c0.9-2.5,1.7-5.1,2.6-7.8c0.6-1.9,1.2-3.7,1.8-5.6
			c0.1-0.3,0.1-0.5,0.2-0.8c0.1-0.2,0.1-0.3,0.1-0.4c6.2-19.4,11.8-38.7,11.8-38.7l-12.4-4.6c0,0-29.1,51-32.7,67.5
			C422.4,293.4,422.3,293.7,422.2,294.1z"/>
		<path fill="#FFAA8B" d="M452.4,232.2l11.1,2.5c4.3,1,8.4-2.1,8.6-6.5l0.7-10.6l-12.9-4.8L452.4,232.2z"/>
		<g>
			<path fill="#FFAA8B" d="M476.9,225.2c1-0.2,0.9-2.7,0.9-3.7c0-0.2-0.3-5.7-0.6-7.9c-0.2-1.8-1-2.8-2.4-3.1l-1.7-0.3
				c-1.7-0.3-3.3,0.6-3.9,2.2l-0.8,2.1c-0.3,0.9,0.1,2,1.1,2.3c0.9,0.3,2-0.1,2.3-1.1l0.7-1.9l1,0.2c0,0,0,0.1,0,0.1
				c0.2,2,0.5,7.5,0.5,7.6C474.2,222.7,475,225.5,476.9,225.2z"/>
		</g>
		<g>
			<path fill="#FFAA8B" d="M473.7,225.9c1.1,0.2,1.2-2.7,1.1-3.7c0-0.3-0.3-6.4-0.6-8.5c-0.2-1.8-1-2.8-2.4-3.1l-1.7-0.3
				c-1.7-0.3-3.3,0.6-3.9,2.2l-1.1,3c-0.3,0.9,0.1,2,1.1,2.3c0.9,0.3,2-0.1,2.3-1.1l1.1-2.8l1,0.2c0,0,0,0.1,0,0.1
				c0.2,2,0.5,8.2,0.5,8.3C471.3,223.3,472.2,225.7,473.7,225.9z"/>
		</g>
		<g>
			<path fill="#FFAA8B" d="M470.7,224.2c0.7,0,0.9-1.2,1-2.7c0-1.2-0.3-8.2-0.3-8.3c-0.2-1.8-1-2.8-2.4-3.1l-1.6-0.3
				c-1.7-0.3-3.3,0.6-3.9,2.2l-1,2.6c-0.3,0.9,0.1,2,1.1,2.3c0.9,0.3,2-0.1,2.3-1.1l0.9-2.5l1,0.2c0,0,0,0.1,0,0.1
				c0.2,1.9,0.5,6.1,0.5,6.8C468.1,221.1,468.8,224.4,470.7,224.2z"/>
		</g>
		<g>
			<path fill="#FFAA8B" d="M467.7,222.7c1,0.1,1.6-2.8,0.8-9.6c-0.2-1.5-1.3-2.7-2.7-2.9l-1.6-0.3c-1.7-0.3-3.3,0.6-3.9,2.2l-1,2.7
				c-0.3,0.9,0.1,2,1.1,2.3c0.9,0.3,2-0.1,2.3-1.1l1-2.6l1.4,0.3c0.6,4.5,0.7,5.6,0.7,5.9C465.5,220.3,466.3,222.8,467.7,222.7z"/>
		</g>
		<g>
			<path fill="#36232E" d="M530.4,281.9c-0.1,0-0.1,0-0.2-0.1c-4.5-2.4-4.9-5.4-5.1-6.6c0-0.1,0-0.2,0-0.2c-0.1-0.1-0.1-0.2-0.1-0.3
				c0-0.3,0.2-0.5,0.5-0.5c0.5,0,0.5,0.5,0.6,0.9c0.1,1.1,0.5,3.7,4.6,5.9c0.2,0.1,0.3,0.4,0.2,0.6
				C530.7,281.8,530.5,281.9,530.4,281.9z M525.4,275.2L525.4,275.2L525.4,275.2z M525.4,275.2L525.4,275.2L525.4,275.2z"/>
		</g>
		<g>
			<path fill="#36232E" d="M456.9,278.6C456.9,278.6,456.9,278.6,456.9,278.6c-0.3,0-0.5-0.2-0.5-0.5c0.3-5.3,2.1-9.8,2.1-10
				c0.1-0.2,0.4-0.3,0.6-0.3c0.2,0.1,0.3,0.4,0.3,0.6c0,0-1.8,4.6-2.1,9.7C457.4,278.4,457.2,278.6,456.9,278.6z"/>
		</g>
		<g>
			<path fill="#36232E" d="M547.4,259c-0.2,0-0.3-0.1-0.4-0.3c-0.2-0.4-4.3-5.5-9.8-7.6c-0.2-0.1-0.4-0.4-0.3-0.6
				c0.1-0.2,0.3-0.4,0.6-0.3c5.8,2.2,10.2,7.6,10.3,8.1c0.1,0.2,0,0.5-0.3,0.6C547.5,259,547.4,259,547.4,259z"/>
		</g>
		<g>
			<path fill="#36232E" d="M482.9,265.1c-1.5,0-2.9-0.1-4.4-0.3c-0.2,0-0.4-0.3-0.4-0.5c0-0.2,0.3-0.4,0.5-0.4
				c14.8,1.8,29.2-6.5,29.3-6.6c0.2-0.1,0.5-0.1,0.6,0.2c0.1,0.2,0.1,0.5-0.2,0.6C508.2,258.1,496.3,265.1,482.9,265.1z"/>
		</g>
		<g>
			<path fill="#36232E" d="M478.7,273.3c-0.7,0-1.5,0-2.3-0.1c-0.3,0-0.4-0.2-0.4-0.5c0-0.3,0.2-0.4,0.5-0.4
				c14.9,0.9,25.1-8,25.2-8.1c0.2-0.2,0.5-0.2,0.6,0c0.2,0.2,0.1,0.5,0,0.6C502.2,265,492.7,273.3,478.7,273.3z"/>
		</g>
		<g>
			<path fill="#C15638" d="M473.8,226.4c-0.1,0-0.1,0-0.2,0c-1.3-0.1-2.4-1.9-2.7-3c-0.1-0.2,0.1-0.5,0.3-0.5
				c0.2-0.1,0.5,0.1,0.5,0.3c0.2,0.9,1.2,2.2,1.9,2.3c0.1,0,0.2,0,0.2-0.1c0.2-0.2,0.3-0.7,0.3-0.9c0-2.9-0.1-10.7-0.7-12
				c-0.6-1.4-2.2-1.6-2.7-1.7l-0.1,0c-0.2,0-0.4-0.3-0.4-0.5c0-0.2,0.3-0.4,0.5-0.4l0.1,0c1.7,0.3,2.9,1,3.4,2.2
				c0.8,1.8,0.7,11.3,0.7,12.4c0,0.1-0.1,1.1-0.6,1.5C474.4,226.3,474.1,226.4,473.8,226.4z"/>
		</g>
		<g>
			<path fill="#C15638" d="M470.4,224.6c-0.1,0-0.2,0-0.3,0c-1.6-0.2-2.1-2.2-2.1-2.3c-0.1-0.2,0.1-0.5,0.3-0.5
				c0.2-0.1,0.5,0.1,0.5,0.3c0,0,0.4,1.5,1.3,1.6c0.2,0,0.5,0,0.6-0.1c0.1-0.1,0.1-0.3,0.1-0.3c0.1-1.7,0.4-8.5-0.2-10.6
				c-0.5-1.9-1.5-2.1-1.8-2.1l0-0.5l0.1-0.4L469,210l0.1-0.4c1.2,0.2,2.1,1.2,2.5,2.8c0.7,2.4,0.3,9.7,0.2,10.9c0,0,0,0.6-0.4,1
				C471.2,224.5,470.8,224.6,470.4,224.6z"/>
		</g>
		<g>
			<path fill="#C15638" d="M467.4,223.1c-0.1,0-0.2,0-0.4,0c-1.5-0.3-2.5-5.7-2.6-8.8c-0.3-0.1-0.5-0.1-0.7-0.2
				c-0.5,1.6-0.8,2.6-1,3.1c-0.1,0.2-0.4,0.4-0.6,0.3c-0.2-0.1-0.4-0.4-0.3-0.6c0.1-0.3,0.4-1.2,1.1-3.3l0-0.1
				c0.2-0.4,0.2-0.4,2,0.1c0.2,0.1,0.3,0.2,0.3,0.4c0.1,3.9,1.2,8.1,1.9,8.3c0.6,0.1,0.7-0.3,0.8-0.4l0,0c0,0-0.1-8.4-0.9-10.4
				c-0.4-0.9-2.4-1.1-3-1.1c-0.3,0-0.5-0.2-0.5-0.4c0-0.3,0.2-0.5,0.4-0.5c0.3,0,3.2,0,3.9,1.6c0.9,2.2,0.9,10.5,0.9,10.9
				C468.8,222.5,468.3,223.1,467.4,223.1z"/>
		</g>
		<g>
			<path fill="#C15638" d="M476.7,225.7c-1,0-2.1-0.7-2.3-2.3c0-0.2,0.1-0.5,0.4-0.5c0.3,0,0.5,0.1,0.5,0.4c0.2,1.1,0.8,1.6,1.4,1.6
				c0,0,0,0,0,0c0.1,0,0.4,0,0.5-0.3c0.1-1.1-0.4-10.4-0.9-12.3c-0.3-1.3-2.9-1.6-3.8-1.6c-0.3,0-0.5-0.2-0.5-0.5
				c0-0.3,0.2-0.5,0.5-0.5l0,0c0.2,0,4.2,0,4.7,2.2c0.5,2,1.1,11.5,0.9,12.6C478,225.2,477.5,225.7,476.7,225.7
				C476.7,225.7,476.7,225.7,476.7,225.7z"/>
		</g>
		<g>
			<path fill="#C15638" d="M447.4,294.5c-0.1,0-0.1,0-0.2,0c-0.2-0.1-0.4-0.3-0.3-0.6c1.3-3.4,2.6-7.2,3.8-10.8
				c0.9-2.7,1.7-5.3,2.4-7.6c0.6-1.8,1-3.4,1.4-4.5l0.3-1.1c0.1-0.3,0.2-0.5,0.2-0.7c0.1-0.2,0.1-0.3,0.1-0.4l0.5,0.1l0.4,0.1
				c0,0.1-0.1,0.3-0.1,0.4c-0.1,0.2-0.1,0.5-0.2,0.7l-0.3,1.1c-0.4,1.2-0.8,2.7-1.4,4.5c-0.7,2.2-1.6,4.8-2.5,7.6
				c-1.2,3.6-2.5,7.4-3.8,10.8C447.7,294.4,447.6,294.5,447.4,294.5z"/>
		</g>
		<g>
			<path fill="#36232E" d="M471.1,199.7c-6.4,0-9.4-2.8-9.5-2.9c-0.2-0.2-0.2-0.5,0-0.6c0.2-0.2,0.5-0.2,0.6,0c0,0,3.7,3.5,11.7,2.5
				c0.2,0,0.5,0.1,0.5,0.4c0,0.2-0.1,0.5-0.4,0.5C472.9,199.6,471.9,199.7,471.1,199.7z"/>
		</g>
		<g>
			<path fill="#36232E" d="M463,187.5c-0.1,0-0.2,0-0.3-0.1c-0.2-0.2-0.2-0.5,0-0.6c2.9-3,17.3-1.6,18.3-1.2
				c0.2,0.1,0.3,0.3,0.3,0.5c0,0.3-0.4,0.6-0.7,0.4c-1.3-0.4-14.8-1.5-17.2,1C463.2,187.5,463.1,187.5,463,187.5z"/>
		</g>
		<path fill="#DBF8FF" d="M498.2,249c2.6,0.5,6.1-0.2,9.5-1.9c5.8-2.9,9.1-7.9,7.4-11.2c-0.2-0.4-0.4-0.7-0.8-1
			c-4-2.5-9.7-1.5-13.4,2.6C497.8,240.9,496.9,245.4,498.2,249z"/>
		<path fill="#DBF8FF" d="M475.7,237.8c0.5,3.2,3.6,6.8,8.3,9.2c3.9,2,8,2.6,10.9,1.8c1.5-4.4-0.8-9.7-5.6-12.4
			C484.4,233.6,478.7,234.3,475.7,237.8z"/>
		<g>
			<path fill="#36232E" d="M484.8,217.8c-0.3,0-0.6-0.1-0.9-0.2c-0.4-0.3-0.7-0.7-0.8-1.1c-0.8-4.9-1.3-8.3-1.5-8.7
				c-0.1-0.2-0.1-0.4,0.1-0.6c0.2-0.1,0.5-0.1,0.7,0.1c0.1,0.1,0.2,0.3,1.6,9c0,0.2,0.2,0.4,0.3,0.5c0.2,0.1,0.4,0.1,0.6,0.1l3.1-1
				c0.2-0.1,0.5,0,0.6,0.3c0.1,0.2,0,0.5-0.3,0.6l-3.1,1C485.1,217.7,484.9,217.8,484.8,217.8z"/>
		</g>
		<path fill="#FFFFFF" d="M488.2,224.6c4.3-0.7,4.8-6,4.5-6.5c0,0-2.6,1.2-5.1,1.9c-2.9,0.8-5.2,0.8-5.2,0.8
			C482.3,221.4,483.7,225.3,488.2,224.6z"/>
		<g>
			<path fill="#C15638" d="M482.1,221.3c-1,0-1.4-0.1-1.5-0.2c-0.2-0.1-0.3-0.4-0.2-0.6c0.1-0.2,0.4-0.3,0.6-0.2l0,0
				c0,0,1.1,0.4,5.3-0.4c4.2-0.8,6.5-2.4,6.8-2.8c0.1-0.2,0.3-0.3,0.6-0.3c0.2,0.1,0.4,0.4,0.3,0.6c-0.2,0.6-3,2.5-7.4,3.3
				C484.3,221.2,482.9,221.3,482.1,221.3z"/>
		</g>
		<path fill="#713D2F" d="M495.8,201.4l-5.2,0.3l-2.6,0.2c-0.9,0-1.7,0.1-2.6,0.1l-0.1,0c-0.6,0-1.2-0.6-1.1-1.2
			c0-0.5,0.3-0.9,0.8-1.1c1.8-0.7,3.7-0.8,5.5-0.8c1.9,0,3.7,0.2,5.5,0.7c0.5,0.1,0.8,0.6,0.7,1.1
			C496.5,201.1,496.2,201.4,495.8,201.4L495.8,201.4z"/>
		<path fill="#713D2F" d="M470.2,204.2c1.5-1.1,3.1-2,4.8-2.7c1.7-0.7,3.5-1.3,5.4-1.3c0.6,0,1.2,0.5,1.2,1.1c0,0.5-0.3,0.9-0.7,1.1
			l-0.1,0c-0.8,0.4-1.6,0.6-2.4,0.9l-2.5,0.8l-5,1.7l0,0c-0.5,0.2-1-0.1-1.2-0.6C469.8,204.8,469.9,204.4,470.2,204.2z"/>
		<g>
			<defs>
				<path id="SVGID_5_" d="M219.5,49.6l12.5,89c0.5,3.4-2.2,6.1-6,6.1H80.4c-3.8,0-7.2-2.7-7.7-6.1l-12.5-89c-0.5-3.4,2.2-6.1,6-6.1
					h145.6C215.6,43.6,219.1,46.3,219.5,49.6z"/>
			</defs>
			<use xlink:href="#SVGID_5_"  overflow="visible" fill="#98D3E0"/>
			<clipPath id="SVGID_6_">
				<use xlink:href="#SVGID_5_"  overflow="visible"/>
			</clipPath>
			<g clip-path="url(#SVGID_6_)">
				<g>
					<polygon fill="#91CEDB" points="211.1,106.1 63.3,106.1 51,18.3 198.8,18.3 					"/>
					<path fill="#FEDEA3" d="M212,106.9H62.6L50.1,17.6h149.3L212,106.9z M63.9,105.4h146.4L198.2,19H51.8L63.9,105.4z"/>
				</g>
				<polygon fill="#5E888F" points="76.4,85.3 66.7,85.3 59.5,34.4 69.3,34.4 				"/>
				<polygon fill="#5E888F" points="91.9,85.3 82.2,85.3 77.6,52.7 87.3,52.7 				"/>
				<polygon fill="#5E888F" points="107.4,85.3 97.7,85.3 94.5,62.2 104.2,62.2 				"/>
				<polygon fill="#FEDEA3" points="175.5,62.3 171.2,62.3 168,39.2 172.3,39.2 				"/>
				<polygon fill="#FEDEA3" points="184.3,62.3 180,62.3 177.5,44.9 181.8,44.9 				"/>
				<polygon fill="#FEDEA3" points="193,62.3 188.7,62.3 187.6,54.6 191.9,54.6 				"/>
			</g>
		</g>
		<path fill="#FFFFFF" d="M200.9,89.5l-1,55.1H99.6l2.1-57.2v0c0,0,0,0,0.1-0.1c0,0,0,0,0,0c0.1,0,0.1-0.1,0.2-0.1
			c0.1-0.1,0.2-0.1,0.4-0.2c4-2.1,23.5-11.9,48.2-11.9c26,0,47.2,12.6,49.9,14.2c0,0,0,0,0,0C200.7,89.4,200.8,89.5,200.9,89.5
			C200.8,89.5,200.8,89.5,200.9,89.5z"/>
		<path fill="#FFFFFF" d="M114.8,97.8l-0.8,11.7l0,0.4c-0.1,1.1-0.3,4.1-0.5,7.4l-0.2,2.5v0.1l-0.1,1.8c0,0,0,0,0,0l-0.1,0.8
			c-0.1,0.8-0.1,1.7-0.2,2.4v0l-1.3,19.6H83.4l-3.5-0.4c0,0,17.7-49.5,20.5-55.4c0.3-0.6,0.7-1.1,1.2-1.5c0,0,0.1-0.1,0.1-0.1
			c0,0,0,0,0,0c0.1-0.1,0.1-0.1,0.2-0.1c0.1-0.1,0.2-0.1,0.4-0.2c0.5-0.2,1-0.3,1.5-0.3C110.2,86.2,115.2,91.6,114.8,97.8z"/>
		<path fill="#FFFFFF" d="M222.1,144.7h-31.3l-0.3-4.1l-2.7-40.6c-0.4-6.2,4.6-11.6,10.8-11.1c0.7,0.1,1.4,0.2,2,0.5c0,0,0,0,0,0
			c0.1,0.1,0.1,0.1,0.2,0.1c0,0,0.1,0,0.1,0c0.5,0.3,1,0.8,1.3,1.5C204.7,96.3,218.9,135.8,222.1,144.7z"/>
		<path fill="#FFAA8B" d="M179.2,80c-0.1,3.8-11.8,8-25.6,7.6c-13.8-0.5-26-5.9-25.9-9.8c0,0,3.5-1.2,7.3-2.2
			c3.2-0.9,6.2-3.9,7.2-7.1c1.5-5.1,2.4-14,2.4-14c7.4,1.5,14.8,2.9,22.2,4.2c-0.1,1.2-0.1,2.4-0.1,3.7c-0.1,2-0.1,4,0,6
			c0,2.6,1.3,4.6,3.1,6.3c0.9,0.8,1.9,1.5,3,2.1C175.7,78.4,179.2,80,179.2,80z"/>
		<path fill="#36232E" d="M115.4,144.7h-9c0.2-0.2,0.3-0.4,0.5-0.6c3.6-4.6,5.4-14.4,6.1-19.8c0,0.2,0.1,0.5,0.1,0.7v0
			C113.4,130.3,112.7,138,115.4,144.7z"/>
		<path fill="#36232E" d="M169.7,74.7c-13.7,0.7-19.5-3.8-19.6-4.2l9-7.1l7.6-1c-0.1,2-0.1,4,0,6C166.7,70.9,167.9,73,169.7,74.7z"
			/>
		<path fill="#912B16" d="M151.3,32.5c-0.5,0-0.9,0-1.4,0c0,0-0.1,0-0.1,0l0,0c-0.7,0.1-1.3,0.2-2,0.4c-3.9,1.4-6,5.7-5.6,10.3l0,0
			c0,0,0,0,0,0.1c0,0.4,0.1,0.8,0.2,1.1c0.4,2.3,1.1,6.9,1.4,8.3c0.4,1.8,14.3,5.7,14.3,5.7l5.1-7.8l2.1-20
			C165.4,30.6,159.7,32.5,151.3,32.5z"/>
		<path fill="#36232E" d="M191.4,128.8c-0.2,3.6-0.5,7.9-0.9,11.7c0,0,0,0,0,0c-0.1,1.2-0.3,2.4-0.5,3.5c0,0.2-0.1,0.4-0.1,0.6h-5.6
			C187.3,139.5,189.9,133.2,191.4,128.8z"/>
		<path fill="#FFAA8B" d="M167.8,63.1c0.3-1.6,0.5-3.3,0.6-5c0.5-6.5,0.8-13.5-1-19.7c-1.5-5-20.7-1.2-20.7-1.2s-2,16.2-1.7,22.5
			c0.4,9,4.9,13.7,11.4,13.7c3.5,0,6.8-1.7,8.9-4.5C166.6,67.1,167.3,65.1,167.8,63.1z"/>
		<path fill="#912B16" d="M147.1,53.7c0,0-0.2-7.6,2.5-11.9c2.5-3.9,7.6-1,11.7-0.2c4,0.8-1.7-8-1.7-8l-10.3,1.7l-4.6,1.8l-0.6,1.6
			l-0.2,7.5l0.8,7.5H147.1z"/>
		<g>
			<path fill="#36232E" d="M144.6,51.9c-0.2,0-0.4-0.1-0.4-0.3c0-0.2-0.8-5.9-0.3-10c0.5-4.3,4.4-6,4.6-6.1c0.2-0.1,0.4,0,0.5,0.2
				c0.1,0.2,0,0.4-0.2,0.5c0,0-3.7,1.6-4.1,5.4c-0.5,4,0.3,9.7,0.3,9.8C145,51.7,144.9,51.9,144.6,51.9
				C144.6,51.9,144.6,51.9,144.6,51.9z"/>
		</g>
		<g>
			<path fill="#36232E" d="M146.4,54c-0.2,0-0.4-0.2-0.4-0.4c-0.5-7.4,0.8-10,0.8-10.1c0.1-0.2,0.3-0.3,0.5-0.2
				c0.2,0.1,0.3,0.3,0.2,0.5c0,0-1.2,2.6-0.7,9.7C146.8,53.8,146.6,54,146.4,54C146.4,54,146.4,54,146.4,54z"/>
		</g>
		<g>
			<path fill="#36232E" d="M115.5,145.4c-0.2,0-0.3-0.1-0.4-0.2c0-0.1-0.1-0.2-0.1-0.3c-2-5-2.1-10.8-2.2-15.4c0-1.5-0.1-3-0.1-4.3
				c0-0.3,0-0.5-0.1-0.7c-0.6-4.9-4.4-6.9-4.4-6.9c-0.2-0.1-0.3-0.3-0.2-0.5c0.1-0.2,0.3-0.3,0.5-0.2c0.2,0.1,4.1,2.1,4.8,7.5
				c0,0.2,0.1,0.5,0.1,0.7c0.1,1.3,0.1,2.8,0.2,4.4c0.1,4.6,0.2,10.3,2.2,15.2c0,0.1,0.1,0.2,0.1,0.3c0.1,0.2,0,0.4-0.2,0.5
				C115.6,145.3,115.5,145.4,115.5,145.4z"/>
		</g>
		<g>
			<path fill="#36232E" d="M113,125.4C113,125.4,113,125.4,113,125.4c-0.2,0-0.4-0.2-0.4-0.4l1-15.4c0-0.2,0.2-0.4,0.4-0.4
				c0.2,0,0.4,0.2,0.4,0.4l-1,15.4C113.4,125.2,113.2,125.4,113,125.4z"/>
		</g>
		<g>
			<path fill="#36232E" d="M189.9,145.1C189.9,145.1,189.9,145.1,189.9,145.1c-0.3,0-0.4-0.2-0.4-0.4c0-0.2,0.1-0.4,0.1-0.6
				c0.2-1.2,0.3-2.4,0.5-3.5c0,0,0-0.1,0-0.1c0.4-3.3,0.7-7.2,0.9-11.7c0.1-0.8,0.1-1.6,0.1-2.4c0.2-4.1,0.2-7.1,0.2-7.1
				c0-0.2,0.2-0.4,0.4-0.4c0.2,0,0.4,0.2,0.4,0.4c0,0-0.1,3-0.2,7.1c0,0.8-0.1,1.6-0.1,2.4c-0.2,4.5-0.6,8.4-0.9,11.7c0,0,0,0,0,0.1
				c-0.1,1.2-0.3,2.4-0.5,3.5l0,0.1c0,0.2-0.1,0.3-0.1,0.5C190.3,144.9,190.1,145.1,189.9,145.1z"/>
		</g>
		<g>
			<path fill="#36232E" d="M191.8,126.7c-0.1,0-0.2,0-0.2-0.1c-0.2-0.1-0.2-0.4-0.1-0.6c3-4,4.7-7.7,4.7-7.7
				c0.1-0.2,0.3-0.3,0.5-0.2c0.2,0.1,0.3,0.3,0.2,0.5c0,0-1.7,3.8-4.8,7.9C192,126.6,191.9,126.7,191.8,126.7z"/>
		</g>
		
			<ellipse transform="matrix(0.7621 -0.6475 0.6475 0.7621 -0.3362 106.3946)" fill="#FFAA8B" cx="144.6" cy="53.7" rx="3" ry="4.3"/>
		<path fill="#912B16" d="M174,34c0,3-2.4,8.6-9.8,8c-4.5-0.3-8.8-2.4-8.8-5.4s5.8-4.5,10.1-6C171.9,28.5,174,31,174,34z"/>
		
			<ellipse transform="matrix(0.9906 -0.1367 0.1367 0.9906 -3.5001 23.7427)" fill="#912B16" cx="171.1" cy="37.4" rx="4.9" ry="2.7"/>
		<g>
			<path fill="#C15638" d="M158.5,60.7c-0.1,0-0.2,0-0.3,0l-1.5-0.3c-0.2,0-0.3-0.3-0.3-0.5c0-0.2,0.3-0.3,0.5-0.3l1.5,0.3
				c0.1,0,0.3,0,0.4-0.1c0.1-0.1,0.2-0.2,0.2-0.3v-6.7c0-0.2,0.2-0.4,0.4-0.4c0.2,0,0.4,0.2,0.4,0.4v6.7c0,0.4-0.2,0.7-0.5,1
				C159,60.6,158.8,60.7,158.5,60.7z"/>
		</g>
		<path fill="#A51C35" d="M150.1,48c0.5-0.6,1.1-0.9,1.7-1.2c0.6-0.3,1.3-0.4,1.9-0.5c0.6-0.1,1.3-0.1,1.9-0.1
			c0.6,0.1,1.3,0.2,1.9,0.4c0.4,0.2,0.6,0.6,0.4,1c-0.1,0.3-0.3,0.4-0.6,0.5l0,0c-0.6,0.1-1.2,0.2-1.8,0.2c-0.6,0-1.2,0-1.7,0
			c-1.2,0-2.3,0-3.5,0l-0.1,0c-0.1,0-0.2-0.1-0.2-0.2C150,48.1,150.1,48.1,150.1,48z"/>
		<path fill="#A51C35" d="M168.7,49.3c-1.2-0.3-2.3-0.4-3.4-0.5c-0.6-0.1-1.1-0.1-1.7-0.2c-0.6-0.1-1.2-0.2-1.7-0.4l0,0
			c-0.4-0.1-0.6-0.6-0.5-1c0.1-0.3,0.3-0.4,0.6-0.5c0.6-0.2,1.3-0.2,1.9-0.1c0.6,0,1.3,0.2,1.9,0.3c0.6,0.2,1.2,0.4,1.8,0.8
			c0.6,0.4,1.1,0.8,1.5,1.4c0.1,0.1,0,0.2-0.1,0.3C168.8,49.4,168.8,49.4,168.7,49.3L168.7,49.3z"/>
		<path fill="#36232E" d="M159.4,63.5c0,0.1,0,0.1-0.1,0.2c-0.2,0.4-0.3,0.7-0.5,1.1c-0.6,1.3-1.5,2.5-2.5,2.9c0,0-0.1,0-0.1,0
			c-1.8,0.6-4.5-0.5-4.9-4c-0.1-0.5-0.1-1-0.1-1.5c0-0.3-0.1-0.6-0.1-0.8c0-0.3,0-0.5,0-0.8c0.1,0.2,0.3,0.4,0.5,0.6
			c0.1,0.1,0.2,0.2,0.3,0.3c0.1,0.1,0.2,0.2,0.3,0.3c0.7,0.6,1.6,1.1,2.7,1.5C156.2,63.7,157.7,63.8,159.4,63.5z"/>
		<path fill="#A51C35" d="M156.3,67.7c0,0-0.1,0-0.1,0c-1.8,0.6-4.5-0.5-4.9-4c0,0,1.5,0.3,3,1.2C156,65.9,156.3,66.6,156.3,67.7z"
			/>
		
			<ellipse transform="matrix(0.8904 0.4551 -0.4551 0.8904 41.1126 -63.9963)" fill="#36232E" cx="153.5" cy="53.4" rx="1.2" ry="1.4"/>
		
			<ellipse transform="matrix(0.8904 0.4551 -0.4551 0.8904 42.3348 -69.0737)" fill="#36232E" cx="164.6" cy="53.4" rx="1.2" ry="1.4"/>
		<g>
			<path fill="#FFFFFF" d="M159.4,63.6c-0.2,0.4-0.3,0.7-0.5,1.1c-0.5,0.1-0.9,0.1-1.3,0.1c-2.7,0-5-1.3-6.4-2.6
				c0-0.3-0.1-0.6-0.1-0.8c0-0.3,0-0.5,0-0.8c0.1,0.2,0.3,0.4,0.5,0.6c0.1,0.1,0.2,0.2,0.3,0.3c0.1,0.1,0.2,0.2,0.3,0.3
				C153.4,62.8,155.9,64.4,159.4,63.6C159.3,63.6,159.4,63.6,159.4,63.6z"/>
		</g>
		<g>
			<path fill="#A51C35" d="M157.5,64.2c-0.2,0-0.4,0-0.6,0c-0.1,0-0.3,0-0.4,0c-0.3,0-0.7-0.1-1-0.2c-0.2-0.1-0.5-0.1-0.8-0.2
				c-0.1,0-0.1,0-0.2-0.1c-0.2-0.1-0.4-0.2-0.7-0.3c-0.4-0.1-0.8-0.4-1.2-0.6c-0.3-0.2-0.6-0.4-0.9-0.6c-0.2-0.1-0.3-0.3-0.5-0.4
				l-0.2-0.1c-0.2-0.2-0.4-0.4-0.5-0.5l-0.1-0.1c-0.2-0.2-0.2-0.5,0-0.7c0.2-0.2,0.5-0.2,0.7,0l0.1,0.1c0.1,0.1,0.2,0.3,0.4,0.4
				l0.2,0.1c0.1,0.1,0.3,0.3,0.4,0.4c0.2,0.2,0.5,0.4,0.8,0.5c0.3,0.2,0.7,0.4,1,0.6c0.2,0.1,0.4,0.2,0.6,0.3c0.1,0,0.1,0,0.2,0.1
				c0.2,0,0.4,0.1,0.6,0.2c0.3,0.1,0.5,0.1,0.8,0.1c0.1,0,0.2,0,0.4,0c0.8,0.1,1.5,0,2.4-0.2c0.3-0.1,0.5,0.1,0.6,0.4
				c0.1,0.3-0.1,0.5-0.4,0.6C158.8,64.1,158.2,64.2,157.5,64.2z"/>
		</g>
		<g>
			<path fill="#36232E" d="M164.9,42.1c-0.3,0-0.6,0-1,0c-0.2,0-0.4-0.2-0.4-0.4c0-0.2,0.2-0.4,0.4-0.4c5.9,0.4,9.1-3,9.6-6.4
				c0.6-3.8-3.1-4.5-3.2-4.5c-0.2,0-0.4-0.2-0.3-0.5c0-0.2,0.2-0.4,0.5-0.3c0,0,4.6,0.9,3.9,5.4C173.7,39.2,169.8,42.1,164.9,42.1z"
				/>
		</g>
		<g>
			<path fill="#36232E" d="M168.9,39.9c-0.9,0-2-0.2-3.3-0.7c-0.2-0.1-0.3-0.3-0.2-0.5c0.1-0.2,0.3-0.3,0.5-0.2
				c5,1.9,6.8-1.2,6.9-1.3c0.1-0.2,0.4-0.3,0.5-0.1c0.2,0.1,0.3,0.3,0.1,0.5C173.5,37.6,172.1,39.9,168.9,39.9z"/>
		</g>
		<g>
			<path fill="#36232E" d="M94.4,104.8c0,0-0.1,0-0.1,0c-0.2-0.1-0.3-0.3-0.2-0.5c0.3-0.8,7.2-6.7,12.2-7.4c0.2,0,0.4,0.1,0.4,0.3
				c0,0.2-0.1,0.4-0.3,0.4c-4.7,0.6-11.3,6.3-11.6,6.9C94.7,104.7,94.6,104.8,94.4,104.8z"/>
		</g>
		<g>
			<path fill="#36232E" d="M176.5,106.1c-0.1,0-0.2,0-0.3-0.1c-6.3-5.6-22.4-10.7-22.6-10.8c-0.2-0.1-0.3-0.3-0.3-0.5
				c0.1-0.2,0.3-0.3,0.5-0.3c0.7,0.2,16.5,5.2,22.9,10.9c0.2,0.1,0.2,0.4,0,0.6C176.7,106,176.6,106.1,176.5,106.1z"/>
		</g>
		<g>
			<path fill="#36232E" d="M165.4,107.4c-0.1,0-0.2,0-0.2-0.1c-4.9-3.9-11.9-6.7-12-6.7c-0.2-0.1-0.3-0.3-0.2-0.5
				c0.1-0.2,0.3-0.3,0.5-0.2c0.1,0,7.2,2.8,12.2,6.8c0.2,0.1,0.2,0.4,0.1,0.6C165.6,107.3,165.5,107.4,165.4,107.4z"/>
		</g>
		<g>
			<path fill="#36232E" d="M217.2,131.5c-0.2,0-0.3-0.1-0.4-0.3c-3.5-9.7-13.3-21.4-13.3-21.5c-0.1-0.2-0.1-0.4,0-0.6
				c0.2-0.1,0.4-0.1,0.6,0c0.1,0.1,9.9,11.8,13.5,21.7c0.1,0.2,0,0.4-0.2,0.5C217.3,131.5,217.2,131.5,217.2,131.5z"/>
		</g>
		<path fill="#59A581" d="M30.5,188.2L44.8,274c0.5,3.2,3.8,5.7,7.3,5.7h136.4c3.5,0,5.9-2.6,5.4-5.7l-14.3-85.8
			c-0.5-3.2-3.8-5.7-7.3-5.7H35.9C32.4,182.5,30,185,30.5,188.2z"/>
		<g>
			<g>
				<g>
					<path fill="#F3F0EB" d="M160,213.7h-9c-0.1,0-0.2-0.1-0.3-0.2l-1.2-23.6c0-0.1,0-0.1,0.1-0.2c0-0.1,0.1-0.1,0.2-0.1h11.5
						c0.1,0,0.1,0,0.2,0.1c0,0.1,0.1,0.1,0.1,0.2l-1.2,23.6C160.3,213.6,160.2,213.7,160,213.7z M151.3,213.2h8.5l1.2-23h-10.9
						L151.3,213.2z"/>
				</g>
				<g>
					<path fill="#F3F0EB" d="M173.8,213.7h-9c-0.1,0-0.2-0.1-0.3-0.2l-1.2-23.6c0-0.1,0-0.1,0.1-0.2c0-0.1,0.1-0.1,0.2-0.1H175
						c0.1,0,0.1,0,0.2,0.1c0,0.1,0.1,0.1,0.1,0.2l-1.2,23.6C174,213.6,173.9,213.7,173.8,213.7z M165,213.2h8.5l1.2-23h-10.9
						L165,213.2z"/>
				</g>
				<g>
					<path fill="#F3F0EB" d="M147.6,213.8h-11.1c-0.1,0-0.2-0.1-0.2-0.2l-1.5-14.3c0-0.1,0-0.1,0.1-0.2c0,0,0.1-0.1,0.2-0.1h14.1
						c0.1,0,0.1,0,0.2,0.1c0,0,0.1,0.1,0.1,0.2l-1.5,14.3C147.8,213.7,147.7,213.8,147.6,213.8z M136.7,213.4h10.7l1.5-13.8h-13.6
						L136.7,213.4z"/>
				</g>
				<rect x="120.9" y="213.6" fill="#F3F0EB" width="59.9" height="3.2"/>
			</g>
			<g>
				<path fill="#F3F0EB" d="M75.8,209.3l-1.1-1.6c-0.4-0.6-0.6-1.2-0.6-1.9v-3.4h-2.7v3.4c0,0.7-0.2,1.3-0.6,1.9l-1.1,1.6
					c-0.3,0.5-0.5,1.1-0.5,1.6v13.3h7.1v-13.3C76.3,210.4,76.1,209.8,75.8,209.3z"/>
				<path fill="#F3F0EB" d="M73.1,202.9h-0.7c-0.3,0-0.6-0.3-0.6-0.6v-1.8c0-0.3,0.3-0.6,0.6-0.6h0.7c0.3,0,0.6,0.3,0.6,0.6v1.8
					C73.7,202.7,73.4,202.9,73.1,202.9z"/>
			</g>
			<g>
				<path fill="#F3F0EB" d="M64.1,208.2l-1.1-1.7c-0.4-0.6-0.6-1.3-0.6-2v-3.6h-2.7v3.6c0,0.7-0.2,1.4-0.6,2l-1.1,1.7
					c-0.3,0.5-0.5,1.1-0.5,1.8v14.3h7.1v-14.3C64.6,209.3,64.4,208.7,64.1,208.2z"/>
				<path fill="#F3F0EB" d="M61.4,201.3h-0.6c-0.4,0-0.7-0.3-0.7-0.7v-2c0-0.4,0.3-0.7,0.7-0.7h0.6c0.4,0,0.7,0.3,0.7,0.7v2
					C62,201,61.7,201.3,61.4,201.3z"/>
			</g>
			<g>
				<path fill="#F3F0EB" d="M51.4,209.3l-1.1-1.6c-0.4-0.6-0.6-1.2-0.6-1.9v-3.4H47v3.4c0,0.7-0.2,1.3-0.6,1.9l-1.1,1.6
					c-0.3,0.5-0.5,1.1-0.5,1.6v13.3h7.1v-13.3C51.9,210.4,51.7,209.8,51.4,209.3z"/>
				<path fill="#F3F0EB" d="M48.7,202.9H48c-0.3,0-0.6-0.3-0.6-0.6v-1.8c0-0.3,0.3-0.6,0.6-0.6h0.7c0.3,0,0.6,0.3,0.6,0.6v1.8
					C49.3,202.7,49,202.9,48.7,202.9z"/>
			</g>
			<rect x="37.3" y="224.3" fill="#F3F0EB" width="55.2" height="3.2"/>
		</g>
		<path fill="#FFDFAD" d="M133.5,198.2l-23.4-1.2l-2.2-9.3c-1.2-5.8,4.4-7.5,8.8-7.2l3,0.2c1.5,0.1,3,0.2,4.4-0.2
			c7.9-2.3,13.6,1,10.7,6.8L133.5,198.2z"/>
		<path fill="#FFDFAD" d="M107.2,187c1,0.8-2.6,23.4-3.5,22.8c4.4,3,15.5,2.8,17.2,1.3c-5.7,5.3-3.2-17-6.7-24.7
			C111.9,186.6,109.5,186.8,107.2,187z"/>
		<path fill="#754C24" d="M101.5,252.6c-5.5,5.7-10.5,11.3-15.2,16.7c-1.2,1.4-2.5,2.9-3.7,4.3c-1.7,2-3.4,4-5,6H48.8
			c8.4-14.6,18.9-31.5,32.5-49.9c0-0.1,0.1-0.2,0.2-0.3c0.1-0.1,0.2-0.2,0.3-0.4l0,0C89,235.9,95.6,243.7,101.5,252.6z"/>
		<path fill="#36232E" d="M86.3,266.3l0,3c-1.2,1.4-2.5,2.9-3.7,4.3c-1.7,2-3.4,4-5,6h-3.4c6.3-10.4,7.4-26,7.5-26.3L86.3,266.3z"/>
		<g>
			<path fill="#E3B064" d="M110.9,202.4C110.9,202.4,110.9,202.4,110.9,202.4c-0.2,0-0.4-0.2-0.4-0.4c0.3-3.4-1.2-6.6-2-8.3
				c-0.3-0.7-0.5-1-0.5-1.3c0-0.2,0.2-0.4,0.4-0.4c0.2,0,0.4,0.2,0.4,0.3c0,0.1,0.2,0.6,0.4,1c0.8,1.8,2.4,5.1,2.1,8.7
				C111.2,202.3,111.1,202.4,110.9,202.4z M108.7,192.4L108.7,192.4L108.7,192.4z"/>
		</g>
		<g>
			<path fill="#E3B064" d="M112.2,202.2C112.2,202.2,112.2,202.2,112.2,202.2c-0.2,0-0.4-0.2-0.4-0.4c0.7-5.1-1.2-9-2.1-10.9
				c-0.4-0.8-0.5-1.1-0.5-1.3c0-0.2,0.2-0.3,0.4-0.3c0.2,0,0.3,0.2,0.3,0.4c0,0.1,0.2,0.6,0.4,1c0.9,2,2.8,6,2.2,11.3
				C112.5,202,112.4,202.2,112.2,202.2z"/>
		</g>
		<path fill="#754C24" d="M171.9,279.7h-26c-4.8-9.8-10.3-20.4-16.9-31.7c7.7-7.2,16.7-12.1,25.3-17c0,0,0,0,0.1,0
			c0.2,0.4,0.3,0.8,0.5,1.1c0.1,0.1,0.1,0.2,0.2,0.4c4.5,10.7,8.1,20.5,11.2,29.6c0.1,0.3,0.2,0.5,0.3,0.8c0,0.1,0.1,0.2,0.1,0.3
			c0,0,0,0,0,0C168.6,269,170.3,274.4,171.9,279.7z"/>
		<path fill="#754C24" d="M155.8,237.3c-1.3,14-2.7,28.1-4,42.4H83.1c-0.2-2-0.4-4-0.6-6c-1.1-12.2-2.3-24.4-3.4-36.4
			c-0.3-2.7,0.6-5.4,2.2-7.6c0-0.1,0.1-0.2,0.2-0.3c0.1-0.1,0.2-0.2,0.3-0.3c1.8-2.3,4.5-3.9,7.4-4.3c5-0.6,10-1,15-1.3
			c11.2-0.6,22.4-0.5,33.6,0.5c2.7,0.2,5.3,0.5,8,0.8c3.7,0.4,6.9,2.9,8.6,6.1c0.2,0.4,0.4,0.7,0.5,1.1c0.1,0.1,0.1,0.2,0.2,0.4
			C155.7,234,156,235.7,155.8,237.3z"/>
		<path fill="#FFFFFF" d="M137.8,224.9c0,5.6-7.6,10.1-16.9,10.1c-9.3,0-16.9-4.5-16.9-10.1c0-0.4,0-0.9,0.1-1.3
			c11.2-0.6,22.4-0.5,33.6,0.5C137.8,224.4,137.8,224.6,137.8,224.9z"/>
		<path fill="#36232E" d="M166.7,263.2c-0.2,5.4-0.4,16-0.1,16.4h-12.9c7.8-2.4,11.4-13.1,12.6-17.6c0.1,0.3,0.2,0.5,0.3,0.8
			C166.6,263,166.6,263.1,166.7,263.2C166.7,263.2,166.7,263.2,166.7,263.2z"/>
		<path fill="#FFAA8B" d="M129.1,208.8v18.5c0,1.4-4.1,2.5-9.1,2.5c-5,0-9.1-1.1-9.1-2.5l0.8-18.5H129.1z"/>
		<path fill="#36232E" d="M129.1,213.6v6.2c-7.6-0.8-10.4-3-10.6-3.4l10-3C128.5,213.4,128.7,213.5,129.1,213.6z"/>
		<path fill="#FFAA8B" d="M126.7,216.9h-15.3l0.8-18.6c-0.4-5.6,3.8-8.8,9.5-8.5c12.1,0.6,13.2-2.5,13.2-2.5l-1.5,23.3
			C133.2,214.1,130.2,216.9,126.7,216.9z"/>
		
			<ellipse transform="matrix(0.9403 -0.3405 0.3405 0.9403 -55.2995 47.3495)" fill="#FFDFAD" cx="107.3" cy="181.2" rx="4.7" ry="6"/>
		
			<ellipse transform="matrix(0.7071 0.7071 -0.7071 0.7071 175.7177 -20.1402)" fill="#FFAA8B" cx="112.2" cy="202" rx="4.6" ry="3.8"/>
		<path fill="#FFDFAD" d="M128.7,189.6c0,0,5.3-0.2,8.1-2.4c2.4-1.9,3.2-4.1,2.5-5.1c-0.7-1.1-3.3-0.6-5.9,1.1
			C130.8,184.8,128,188.5,128.7,189.6z"/>
		
			<ellipse transform="matrix(-0.6751 0.7377 -0.7377 -0.6751 360.2683 206.8846)" fill="#FFDFAD" cx="134.6" cy="182.8" rx="4.6" ry="1.9"/>
		<path fill="#754C24" d="M190.9,238c-2.1,13.5-3.8,27.4-5,41.7h-22.7c1.1-5.7,2.2-11.3,3.4-16.8c2.3-10.5,4.8-20.7,7.5-30.6
			C179.6,234.3,185.2,236.2,190.9,238z"/>
		<path fill="#36232E" d="M190.9,238c-0.2,0.7-2,0.8-4.5,0.3c-1.4-0.2-2.9-0.7-4.6-1.2c-3-1-5.6-2.3-6.9-3.3c-0.7-0.6-1-1.1-0.9-1.4
			c0.1-0.3,0.6-0.5,1.3-0.6c1.6-0.1,4.6,0.4,7.7,1.4c1.5,0.5,2.8,1,4,1.6C189.6,236.1,191.1,237.3,190.9,238z"/>
		<path fill="#FF946E" d="M181.1,226.3c0.6-0.3,1.2-0.6,1.7-0.9c0.5-0.3,1.1-0.6,1.6-0.9c0.5-0.3,1-0.7,1.5-1
			c0.5-0.4,1.1-0.8,1.7-1.1c0.5-0.3,1.1-0.1,1.4,0.3c0.2,0.4,0.2,0.8-0.1,1.1c-0.4,0.5-0.9,1-1.3,1.5c-0.5,0.5-1,1-1.6,1.5
			c-0.6,0.5-1.2,0.8-1.8,1.2c-0.7,0.3-1.2,0.6-1.9,0.9c-0.7,0.3-1.6-0.1-1.8-0.8C180.3,227.4,180.5,226.7,181.1,226.3L181.1,226.3z"
			/>
		<path fill="#FFAA8B" d="M188.6,227.5l-1.5,7.3l-0.7,3.5c-1.4-0.2-2.9-0.7-4.6-1.2c-3-1-5.6-2.3-6.9-3.3l0.4-2l0.4-1.8
			c0.6-2.7,3.2-4.5,5.9-3.9L188.6,227.5z"/>
		<path fill="#FFAA8B" d="M183.3,226.6c0.8-0.1,1.6-0.2,2.4-0.5c0.8-0.3,1.6-0.6,2.3-1.1c0.7-0.5,1.4-1,2.1-1.6
			c0.7-0.6,1.3-1.3,1.9-1.9l0-0.1c0.3-0.3,0.7-0.3,1-0.1c0.2,0.2,0.3,0.5,0.2,0.8c-0.4,1-0.9,1.9-1.5,2.7c-0.6,0.8-1.4,1.6-2.2,2.3
			c-0.8,0.7-1.8,1.2-2.8,1.6c-1,0.4-2.2,0.6-3.3,0.7c-0.8,0-1.4-0.6-1.5-1.3c0-0.7,0.5-1.4,1.2-1.5L183.3,226.6z"/>
		<path fill="#FFAA8B" d="M186.1,227.6c0.9-0.4,1.9-0.9,2.9-1.3c1-0.5,1.9-1,2.8-1.6c0.9-0.6,1.8-1.2,2.7-1.8
			c0.9-0.6,1.7-1.3,2.6-2.1l0,0c0.3-0.3,0.8-0.2,1,0.1c0.2,0.2,0.2,0.6,0.1,0.8c-0.6,1-1.3,2.1-2.1,2.9c-0.8,0.9-1.7,1.7-2.7,2.4
			c-1,0.7-2,1.4-3.1,1.9c-1.1,0.5-2.2,1-3.4,1.3c-0.7,0.2-1.5-0.2-1.7-1C185.1,228.6,185.4,227.9,186.1,227.6L186.1,227.6z"/>
		<path fill="#FFAA8B" d="M185.3,230.8c1.4-0.5,2.9-1.1,4.3-1.8c1.4-0.7,2.9-1.4,4.3-2.2c1.4-0.8,2.8-1.6,4.1-2.6
			c1.3-0.9,2.6-1.9,3.8-2.9l0,0c0.3-0.2,0.8-0.2,1,0.1c0.2,0.3,0.2,0.6,0,0.9c-1,1.3-2.2,2.6-3.4,3.7c-1.2,1.2-2.6,2.2-4,3.2
			c-1.4,0.9-2.9,1.8-4.4,2.6c-1.5,0.8-3.1,1.5-4.8,2c-0.8,0.3-1.7-0.2-2-1C184,232,184.4,231.1,185.3,230.8L185.3,230.8z"/>
		<g>
			<path fill="#36232E" d="M83.1,280c-0.2,0-0.3-0.1-0.4-0.3c-0.1-1.4-1.1-11.6-2.7-28.9L80,250c0-0.2,0.1-0.4,0.3-0.4
				c0.2,0,0.4,0.1,0.4,0.3l0.1,0.8c1.6,17.2,2.6,27.5,2.7,28.9C83.5,279.9,83.3,280,83.1,280C83.1,280,83.1,280,83.1,280z"/>
		</g>
		<g>
			<path fill="#36232E" d="M145.9,280C145.9,280,145.9,280,145.9,280c-0.2,0-0.4-0.2-0.4-0.4l1.4-27.4c0-0.1,0-0.1,0.1-0.2l2.5-3.6
				c0.1-0.2,0.3-0.2,0.5-0.1c0.2,0.1,0.2,0.3,0.1,0.5l-2.5,3.5l-1.4,27.3C146.3,279.9,146.1,280,145.9,280z"/>
		</g>
		<g>
			<path fill="#36232E" d="M72.2,275.5c-0.1,0-0.2,0-0.2-0.1c-0.1-0.1-0.1-0.3,0-0.4c0.1-0.1,3.3-2.7,8.6-4.4c0.2-0.1,0.3,0,0.4,0.2
				c0.1,0.2,0,0.3-0.2,0.4c-5.2,1.7-8.4,4.2-8.4,4.3C72.4,275.4,72.3,275.5,72.2,275.5z"/>
		</g>
		<g>
			<path fill="#36232E" d="M128.9,252c-8.5,0-22.5-5.4-23.1-5.6c-0.2-0.1-0.3-0.3-0.2-0.5c0.1-0.2,0.3-0.3,0.5-0.2
				c0.2,0.1,17.1,6.6,25,5.4c0.2,0,0.4,0.1,0.4,0.3c0,0.2-0.1,0.4-0.3,0.4C130.4,251.9,129.7,252,128.9,252z"/>
		</g>
		<g>
			<path fill="#36232E" d="M133.7,258.2c-6.5,0-16.9-2.5-17.4-2.6c-0.2,0-0.3-0.2-0.3-0.4s0.2-0.3,0.4-0.3c0.1,0,12.1,2.9,18.3,2.5
				c0.2,0,0.4,0.1,0.4,0.3c0,0.2-0.1,0.4-0.3,0.4C134.5,258.2,134.1,258.2,133.7,258.2z"/>
		</g>
		<g>
			<path fill="#36232E" d="M164,255.7c-0.1,0-0.3-0.1-0.3-0.2c-1.8-5.1-8.8-12-9.6-12.6c-0.2-0.1-0.2-0.3-0.1-0.5
				c0.1-0.2,0.3-0.2,0.5-0.1c1.2,0.8,8.1,7.9,9.8,12.9c0.1,0.2,0,0.4-0.2,0.5C164,255.7,164,255.7,164,255.7z"/>
		</g>
		<g>
			<path fill="#36232E" d="M171,270.5c-0.1,0-0.3-0.1-0.3-0.2c-2.5-6.4-1.8-19.1-1.7-19.5c0-0.2,0.2-0.3,0.4-0.3
				c0.2,0,0.3,0.2,0.3,0.4c-0.1,0.7-0.8,13,1.7,19.1c0.1,0.2,0,0.4-0.2,0.5C171.1,270.5,171.1,270.5,171,270.5z"/>
		</g>
		<g>
			<path fill="#36232E" d="M75.9,237.5c-0.1,0-0.1,0-0.2-0.1c-0.2-0.1-0.2-0.3-0.1-0.5c0.3-0.4,6.3-4.2,13.1-5
				c0.2,0,0.4,0.1,0.4,0.3c0,0.2-0.1,0.4-0.3,0.4c-6.7,0.8-12.3,4.4-12.6,4.7C76.1,237.5,76,237.5,75.9,237.5z"/>
		</g>
		<g>
			<path fill="#36232E" d="M145.9,229.4c-0.1,0-0.2,0-0.2-0.1c-2.9-2.5-9.9-5-10-5c-0.2-0.1-0.3-0.3-0.2-0.5
				c0.1-0.2,0.3-0.3,0.5-0.2c0.3,0.1,7.2,2.5,10.2,5.1c0.1,0.1,0.2,0.4,0,0.5C146.1,229.3,146,229.4,145.9,229.4z"/>
		</g>
		<ellipse fill="#36232E" cx="121.5" cy="199.6" rx="1.1" ry="1.4"/>
		<ellipse fill="#36232E" cx="131" cy="199.7" rx="1.1" ry="1.4"/>
		<g>
			<path fill="#C15638" d="M126.8,205.9c-1.3,0-3-0.7-3.1-0.7c-0.2-0.1-0.3-0.3-0.2-0.5c0.1-0.2,0.3-0.3,0.5-0.2
				c1.2,0.5,3,0.9,3.4,0.6c0.2-0.4-0.2-3.2-0.4-4.2c-0.2-1.1-0.2-1.2-0.1-1.3c0.1-0.2,0.3-0.3,0.5-0.2c0.1,0.1,0.2,0.2,0.2,0.4
				c0,0.1,0.1,0.6,0.2,1c0.5,2.9,0.7,4.4,0.2,4.8C127.6,205.8,127.2,205.9,126.8,205.9z"/>
		</g>
		<path fill="#C15638" d="M128.6,194.9c-0.6-0.1-0.3-0.6-0.3-0.6l0.1-0.1l0.1-0.1l0.1-0.1c0.1-0.1,0.1-0.1,0.2-0.2
			c0.1-0.1,0.3-0.2,0.4-0.3c0.3-0.2,0.6-0.4,0.9-0.5c0.7-0.3,1.4-0.4,2.2-0.3c0.8,0.1,1.5,0.5,2,1c0.5,0.5,0.9,1.1,1,1.9
			c0,0.2-0.1,0.4-0.3,0.4c-0.1,0-0.2,0-0.3-0.1l-0.1,0c-0.5-0.3-0.9-0.7-1.4-0.9c-0.4-0.3-0.9-0.5-1.3-0.6c-0.4-0.1-0.9-0.1-1.5,0
			c-0.3,0-0.5,0.1-0.8,0.2l-0.4,0.1l-0.2,0.1l-0.1,0c0,0,0,0,0,0c0,0,0,0,0,0c0,0,0.2-0.4-0.3-0.5c0.2,0,0.4,0.2,0.4,0.4
			C128.9,194.8,128.8,194.9,128.6,194.9z"/>
		<path fill="#C15638" d="M117.3,195.9c-0.1,0-0.2,0-0.3-0.1c-0.1-0.1-0.1-0.1-0.1-0.2c0-0.1,0-0.2,0-0.2l0,0l0-0.1l0-0.1l0.1-0.1
			l0.1-0.2c0.1-0.1,0.2-0.3,0.3-0.4c0.2-0.3,0.5-0.5,0.7-0.7c0.5-0.4,1.2-0.8,2-0.9c0.7-0.1,1.4-0.1,2.1,0.2
			c0.7,0.2,1.4,0.6,1.7,1.5c0.1,0.2,0,0.4-0.2,0.4c-0.1,0-0.2,0-0.2,0l-0.2-0.1c-0.4-0.2-0.9-0.3-1.4-0.3c-0.5,0-1.1,0-1.6,0.1
			c-0.4,0-0.9,0.2-1.4,0.5c-0.3,0.1-0.5,0.2-0.8,0.4l-0.4,0.2l-0.2,0.1l-0.1,0c0,0,0,0,0,0c0,0,0,0,0,0l0,0c0-0.1,0-0.1,0-0.2
			c0-0.1,0-0.1-0.1-0.2c-0.1-0.1-0.2-0.1-0.3-0.1c0.2,0,0.4,0.1,0.4,0.3C117.6,195.7,117.5,195.8,117.3,195.9z"/>
		<path fill="#36232E" d="M127.7,210.2c0,0.1-0.1,0.2-0.1,0.3c-0.6,1.1-2.8,1.3-5,0.5c-1.1-0.4-1.9-1.3-2.4-2.1
			c-0.4-0.7-0.7-1.2-0.7-1.2c1.4,0.5,3.8,1,7.9,1.3C127.7,209.5,127.8,209.9,127.7,210.2z"/>
		<path fill="#FFFFFF" d="M127.7,210.2c-3.6-0.1-6.5-0.9-7.5-1.3c-0.4-0.7-0.7-1.2-0.7-1.2c2.2,0.4,4.9,1,8.9,1.2
			C128.1,209.9,127.7,210.2,127.7,210.2z"/>
		<g>
			<path fill="#C15638" d="M127.6,209.2c-0.7,0-1.7,0-2.9-0.2c-3.9-0.4-5.6-1.6-5.7-1.7c-0.2-0.1-0.2-0.3-0.1-0.5
				c0.1-0.2,0.3-0.2,0.5-0.1c0,0,1.6,1.2,5.3,1.5c3.6,0.3,4.4,0,4.5,0c0.2-0.1,0.4,0,0.5,0.2c0.1,0.2,0,0.4-0.2,0.5
				C129.5,209,129,209.2,127.6,209.2z"/>
		</g>
		<g>
			<path fill="#E3B064" d="M125.5,183.1c-0.1,0-0.1,0-0.2,0c0,0-3.9-2.3-9.4-2.3c0,0,0,0,0,0c-4.3,0-6.6,2.2-6.6,2.2
				c-0.1,0.1-0.4,0.1-0.5,0c-0.1-0.1-0.1-0.4,0-0.5c0.1-0.1,2.5-2.4,7.1-2.4c0,0,0,0,0,0c5.7,0,9.6,2.3,9.8,2.4
				c0.2,0.1,0.2,0.3,0.1,0.5C125.8,183.1,125.7,183.1,125.5,183.1z"/>
		</g>
		<g>
			<path fill="#E3B064" d="M131.7,184.7c-0.1,0-0.2,0-0.2-0.1c-0.1-0.1-0.1-0.4,0-0.5c0.1-0.1,1.9-1.9,4.5-2.6
				c2.8-0.7,3.6,0.6,3.7,0.7c0.1,0.2,0,0.4-0.1,0.5c-0.2,0.1-0.4,0-0.5-0.1c0,0-0.6-0.9-2.9-0.4c-2.5,0.6-4.2,2.4-4.2,2.4
				C131.9,184.6,131.8,184.7,131.7,184.7z"/>
		</g>
		<g>
			<path fill="#E3B064" d="M134.9,182.6c-0.1,0-0.2-0.1-0.3-0.2c-1.5-2.5-5.4-2.4-5.5-2.4c-0.2,0-0.4-0.1-0.4-0.3
				c0-0.2,0.1-0.4,0.3-0.4c0.2,0,4.4-0.1,6.1,2.7c0.1,0.2,0,0.4-0.1,0.5C135,182.6,134.9,182.6,134.9,182.6z"/>
		</g>
		<path fill="#FAAB87" d="M295.5,95.7h-37.2c-7.6,0-13.7-6.2-13.7-13.7l0,0c0-7.6,6.2-13.7,13.7-13.7h37.2c7.6,0,13.7,6.2,13.7,13.7
			l0,0C309.2,89.5,303,95.7,295.5,95.7z"/>
		<path fill="#64B4C2" d="M373.4,117.9h-57.2c-4,0-7.3-3.3-7.3-7.3l0,0c0-4,3.3-7.3,7.3-7.3h57.2c4,0,7.3,3.3,7.3,7.3l0,0
			C380.7,114.7,377.4,117.9,373.4,117.9z"/>
		<path fill="#64B4C2" d="M571.7,170.9h-48.5c-9.9,0-17.9-8-17.9-17.9l0,0c0-9.9,8-17.9,17.9-17.9h48.5c9.9,0,17.9,8,17.9,17.9l0,0
			C589.6,162.8,581.5,170.9,571.7,170.9z"/>
		<path fill="#64B4C2" d="M244.9,188.5h-45.7c-6.7,0-12.2-5.4-12.2-12.2l0,0c0-6.7,5.4-12.2,12.2-12.2h45.7
			c6.7,0,12.2,5.4,12.2,12.2l0,0C257.1,183,251.6,188.5,244.9,188.5z"/>
		<path fill="#FAAB87" d="M131.3,310.3H99.1c-4.5,0-8.1-3.6-8.1-8.1l0,0c0-4.5,3.6-8.1,8.1-8.1h32.1c4.5,0,8.1,3.6,8.1,8.1l0,0
			C139.4,306.6,135.7,310.3,131.3,310.3z"/>
		<path fill="#64B4C2" d="M563.2,323H525c-5.6,0-10.2,4.6-10.2,10.2l0,0c0,5.6,4.6,10.2,10.2,10.2h38.2c5.6,0,10.2-4.6,10.2-10.2
			l0,0C573.3,327.6,568.8,323,563.2,323z"/>
		<path fill="#FAAB87" d="M371.6,201.1h38.1c7,0,12.7-5.7,12.7-12.7l0,0c0-7-5.7-12.7-12.7-12.7h-38.1c-7,0-12.7,5.7-12.7,12.7l0,0
			C358.9,195.4,364.6,201.1,371.6,201.1z"/>
		<path fill="#FAAB87" d="M268.4,93c-0.2,0.4-8.9,8.3-8.9,8.3l2.2-8.3H268.4z"/>
		<path fill="#64B4C2" d="M359.6,116.2c0.2,0.4,8.7,7,8.7,7l-4.3-8.2L359.6,116.2z"/>
		<path fill="#64B4C2" d="M572.3,141.7c-1-1-16.1-17-16.1-17l8.1,19.4L572.3,141.7z"/>
		<path fill="#64B4C2" d="M530.1,327.1c-0.4-0.4-6.6-9.6-6.3-9.2c0.3,0.4,13.8,7.7,13.8,7.7L530.1,327.1z"/>
		<path fill="#FAAB87" d="M416.7,209.2c0-1-9.5-12.7-9.5-12.7l-12,1.2L416.7,209.2z"/>
		<path fill="#64B4C2" d="M212,185c-1,0.4-10.4,7.9-10.4,7.9l0.8-7.4L212,185z"/>
		<path fill="#FAAB87" d="M128.6,297.2c0-1.2,5.4-9.4,5.4-9.4l-14.4,9.4H128.6z"/>
		<g>
			<g>
				<circle fill="#322924" cx="288.1" cy="81.2" r="2.5"/>
			</g>
			<g>
				<circle fill="#322924" cx="276.8" cy="81.2" r="2.5"/>
			</g>
			<g>
				<circle fill="#322924" cx="265.5" cy="81.2" r="2.5"/>
			</g>
		</g>
		<g>
			<g>
				<circle fill="#FFFFFF" cx="354" cy="110.6" r="2.1"/>
			</g>
			<g>
				<circle fill="#FFFFFF" cx="344.8" cy="110.6" r="2.1"/>
			</g>
			<g>
				<circle fill="#FFFFFF" cx="335.5" cy="110.6" r="2.1"/>
			</g>
		</g>
		<g>
			<g>
				<circle fill="#FFFFFF" cx="564.8" cy="152.9" r="3.9"/>
			</g>
			<g>
				<circle fill="#FFFFFF" cx="547.4" cy="152.9" r="3.9"/>
			</g>
			<g>
				<circle fill="#FFFFFF" cx="530" cy="152.9" r="3.9"/>
			</g>
		</g>
		<g>
			<g>
				<circle fill="#FFFFFF" cx="235.6" cy="176.5" r="3"/>
			</g>
			<g>
				<circle fill="#FFFFFF" cx="222.1" cy="176.5" r="3"/>
			</g>
			<g>
				<circle fill="#FFFFFF" cx="208.5" cy="176.5" r="3"/>
			</g>
		</g>
		<g>
			<g>
				<circle fill="#322924" cx="404.2" cy="188.4" r="3"/>
			</g>
			<g>
				<circle fill="#322924" cx="390.7" cy="188.4" r="3"/>
			</g>
			<g>
				<circle fill="#322924" cx="377.1" cy="188.4" r="3"/>
			</g>
		</g>
		<g>
			<g>
				<circle fill="#322924" cx="122.3" cy="302.2" r="1.6"/>
			</g>
			<g>
				<circle fill="#322924" cx="115.2" cy="302.2" r="1.6"/>
			</g>
			<g>
				<circle fill="#322924" cx="108.1" cy="302.2" r="1.6"/>
			</g>
		</g>
		<g>
			<g>
				<circle fill="#FFFFFF" cx="553.9" cy="332.7" r="2.2"/>
			</g>
			<g>
				<circle fill="#FFFFFF" cx="544.1" cy="332.7" r="2.2"/>
			</g>
			<g>
				<circle fill="#FFFFFF" cx="534.2" cy="332.7" r="2.2"/>
			</g>
		</g>
	</g>
</g>
</svg>
